M48
; DRILL file {KiCad (6.0.0-rc1-387-g70841c6393)} date Wed Mar  2 22:10:38 2022
; FORMAT={-:-/ absolute / metric / decimal}
; #@! TF.CreationDate,2022-03-02T22:10:38+08:00
; #@! TF.GenerationSoftware,Kicad,Pcbnew,(6.0.0-rc1-387-g70841c6393)
; #@! TF.FileFunction,Plated,1,2,PTH
FMAT,2
METRIC
; #@! TA.AperFunction,Plated,PTH,ViaDrill
T1C0.305
; #@! TA.AperFunction,Plated,PTH,ComponentDrill
T2C0.305
; #@! TA.AperFunction,Plated,PTH,ComponentDrill
T3C0.559
; #@! TA.AperFunction,Plated,PTH,ComponentDrill
T4C0.610
; #@! TA.AperFunction,Plated,PTH,ComponentDrill
T5C1.000
%
G90
G05
T1
X29.845Y-129.794
X32.004Y-132.207
X33.02Y-146.558
X33.274Y-142.748
X34.671Y-135.509
X34.798Y-137.795
X35.56Y-134.112
X36.068Y-147.828
X36.068Y-149.098
X36.449Y-141.732
X36.576Y-142.748
X36.576Y-144.018
X37.287Y-140.513
X37.465Y-150.368
X37.592Y-129.413
X38.1Y-137.922
X38.354Y-146.558
X40.894Y-143.383
X41.021Y-147.828
X41.725Y-137.141
X41.783Y-141.605
X41.91Y-142.875
X42.418Y-136.525
X43.053Y-142.875
X43.307Y-149.733
X43.688Y-129.921
X45.085Y-138.926
X45.212Y-149.352
X45.466Y-142.367
X46.355Y-146.685
X46.493Y-145.859
X46.609Y-135.89
X47.625Y-132.08
X48.387Y-145.542
X48.514Y-132.08
X49.403Y-146.05
X51.562Y-150.495
X51.689Y-131.445
X51.689Y-147.955
X51.701Y-144.526
X51.702Y-146.952
X54.229Y-131.318
X54.864Y-133.223
X54.991Y-135.509
X55.88Y-136.906
X56.261Y-139.954
X57.785Y-149.987
X58.019Y-145.288
X58.674Y-138.557
X59.944Y-138.557
X61.214Y-136.271
X61.214Y-138.303
X61.341Y-146.685
X62.484Y-143.129
X64.389Y-130.937
X64.897Y-145.923
X67.056Y-132.461
X68.897Y-143.954
T2
X47.879Y-139.573
X48.768Y-138.684
X48.768Y-140.462
X49.657Y-139.573
T5
X37.338Y-132.969
X39.878Y-132.969
X42.418Y-132.969
X44.958Y-132.969
T3
G00X32.582Y-135.484
M15
G01X32.582Y-135.28
M16
G05
G00X32.582Y-140.31
M15
G01X32.582Y-140.106
M16
G05
T4
G00X30.27Y-134.239
M15
G01X29.559Y-134.239
M16
G05
G00X30.27Y-141.351
M15
G01X29.559Y-141.351
M16
G05
T0
M30
