G04 #@! TF.GenerationSoftware,KiCad,Pcbnew,(6.0.0-rc1-387-g70841c6393)*
G04 #@! TF.CreationDate,2022-03-02T22:10:33+08:00*
G04 #@! TF.ProjectId,uw-rs485_hat,75772d72-7334-4383-955f-6861742e6b69,rev?*
G04 #@! TF.SameCoordinates,Original*
G04 #@! TF.FileFunction,Soldermask,Bot*
G04 #@! TF.FilePolarity,Negative*
%FSLAX46Y46*%
G04 Gerber Fmt 4.6, Leading zero omitted, Abs format (unit mm)*
G04 Created by KiCad (PCBNEW (6.0.0-rc1-387-g70841c6393)) date 2022-03-02 22:10:33*
%MOMM*%
%LPD*%
G01*
G04 APERTURE LIST*
G04 Aperture macros list*
%AMRoundRect*
0 Rectangle with rounded corners*
0 $1 Rounding radius*
0 $2 $3 $4 $5 $6 $7 $8 $9 X,Y pos of 4 corners*
0 Add a 4 corners polygon primitive as box body*
4,1,4,$2,$3,$4,$5,$6,$7,$8,$9,$2,$3,0*
0 Add four circle primitives for the rounded corners*
1,1,$1+$1,$2,$3*
1,1,$1+$1,$4,$5*
1,1,$1+$1,$6,$7*
1,1,$1+$1,$8,$9*
0 Add four rect primitives between the rounded corners*
20,1,$1+$1,$2,$3,$4,$5,0*
20,1,$1+$1,$4,$5,$6,$7,0*
20,1,$1+$1,$6,$7,$8,$9,0*
20,1,$1+$1,$8,$9,$2,$3,0*%
G04 Aperture macros list end*
%ADD10RoundRect,0.101600X0.850000X-0.850000X0.850000X0.850000X-0.850000X0.850000X-0.850000X-0.850000X0*%
%ADD11O,1.903200X1.903200*%
%ADD12C,3.251200*%
%ADD13O,0.457200X0.838200*%
%ADD14RoundRect,0.101600X0.444500X-0.317500X0.444500X0.317500X-0.444500X0.317500X-0.444500X-0.317500X0*%
%ADD15O,0.838200X0.457200*%
%ADD16RoundRect,0.101600X-0.317500X-0.444500X0.317500X-0.444500X0.317500X0.444500X-0.317500X0.444500X0*%
%ADD17O,1.092200X0.584200*%
%ADD18RoundRect,0.101600X-0.444500X-0.508000X0.444500X-0.508000X0.444500X0.508000X-0.444500X0.508000X0*%
%ADD19O,0.584200X1.092200*%
%ADD20RoundRect,0.101600X0.508000X-0.444500X0.508000X0.444500X-0.508000X0.444500X-0.508000X-0.444500X0*%
%ADD21RoundRect,0.101600X0.317500X0.444500X-0.317500X0.444500X-0.317500X-0.444500X0.317500X-0.444500X0*%
%ADD22RoundRect,0.101600X-0.444500X0.317500X-0.444500X-0.317500X0.444500X-0.317500X0.444500X0.317500X0*%
%ADD23O,0.711200X1.524000*%
%ADD24O,1.016000X1.219200*%
%ADD25O,1.727200X0.609600*%
%ADD26O,1.219200X1.473200*%
%ADD27O,2.108200X1.397000*%
%ADD28O,1.727200X0.965200*%
%ADD29O,0.609600X1.117600*%
%ADD30O,1.981200X1.727200*%
%ADD31O,0.457200X1.219200*%
%ADD32O,1.219200X0.457200*%
%ADD33O,3.251200X0.711200*%
%ADD34RoundRect,0.101600X-1.524000X-1.270000X1.524000X-1.270000X1.524000X1.270000X-1.524000X1.270000X0*%
%ADD35O,1.602740X0.802640*%
%ADD36O,0.802640X1.602740*%
%ADD37O,0.965200X1.117600*%
%ADD38C,1.320800*%
%ADD39O,1.219200X1.981200*%
%ADD40C,1.983200*%
%ADD41RoundRect,0.101600X1.590000X-0.635000X1.590000X0.635000X-1.590000X0.635000X-1.590000X-0.635000X0*%
G04 APERTURE END LIST*
D10*
G04 #@! TO.C,J4*
X44958000Y-132969000D03*
D11*
X42418000Y-132969000D03*
X39878000Y-132969000D03*
X37338000Y-132969000D03*
G04 #@! TD*
D12*
G04 #@! TO.C,MH1*
X28905200Y-125298200D03*
G04 #@! TD*
G04 #@! TO.C,MH2*
X28905200Y-148298200D03*
G04 #@! TD*
D13*
G04 #@! TO.C,C1*
X39814500Y-137795000D03*
X38925500Y-137795000D03*
D14*
X39370000Y-137795000D03*
X39370000Y-136271000D03*
D13*
X38925500Y-136271000D03*
X39814500Y-136271000D03*
G04 #@! TD*
D15*
G04 #@! TO.C,C2*
X53086000Y-136461500D03*
D16*
X53086000Y-136906000D03*
D15*
X53086000Y-137350500D03*
X54610000Y-137350500D03*
X54610000Y-136461500D03*
D16*
X54610000Y-136906000D03*
G04 #@! TD*
D17*
G04 #@! TO.C,C3*
X53149500Y-138049000D03*
X53149500Y-139065000D03*
D18*
X53149500Y-138557000D03*
D17*
X55054500Y-138049000D03*
D18*
X55054500Y-138557000D03*
D17*
X55054500Y-139065000D03*
G04 #@! TD*
D13*
G04 #@! TO.C,C4*
X49593500Y-135382000D03*
D14*
X50038000Y-135382000D03*
D13*
X50482500Y-135382000D03*
D14*
X50038000Y-133858000D03*
D13*
X50482500Y-133858000D03*
X49593500Y-133858000D03*
G04 #@! TD*
D19*
G04 #@! TO.C,C5*
X52197000Y-135318500D03*
D20*
X51689000Y-135318500D03*
D19*
X51181000Y-135318500D03*
X51181000Y-133413500D03*
D20*
X51689000Y-133413500D03*
D19*
X52197000Y-133413500D03*
G04 #@! TD*
D17*
G04 #@! TO.C,C6*
X47561500Y-143764000D03*
D18*
X47561500Y-144272000D03*
D17*
X47561500Y-144780000D03*
X49466500Y-144780000D03*
X49466500Y-143764000D03*
D18*
X49466500Y-144272000D03*
G04 #@! TD*
D13*
G04 #@! TO.C,C7*
X45656500Y-147955000D03*
D14*
X45212000Y-147955000D03*
D13*
X44767500Y-147955000D03*
X45656500Y-146431000D03*
X44767500Y-146431000D03*
D14*
X45212000Y-146431000D03*
G04 #@! TD*
D15*
G04 #@! TO.C,C8*
X32581850Y-129857500D03*
X32581850Y-130746500D03*
D21*
X32581850Y-130302000D03*
X31057850Y-130302000D03*
D15*
X31057850Y-129857500D03*
X31057850Y-130746500D03*
G04 #@! TD*
D22*
G04 #@! TO.C,C9*
X34105850Y-132588000D03*
D13*
X33661350Y-132588000D03*
X34550350Y-132588000D03*
X33661350Y-134112000D03*
X34550350Y-134112000D03*
D22*
X34105850Y-134112000D03*
G04 #@! TD*
G04 #@! TO.C,C10*
X32131000Y-143383000D03*
D13*
X31686500Y-143383000D03*
X32575500Y-143383000D03*
D22*
X32131000Y-144907000D03*
D13*
X32575500Y-144907000D03*
X31686500Y-144907000D03*
G04 #@! TD*
D14*
G04 #@! TO.C,C12*
X56515000Y-132842000D03*
D13*
X56070500Y-132842000D03*
X56959500Y-132842000D03*
X56070500Y-131318000D03*
D14*
X56515000Y-131318000D03*
D13*
X56959500Y-131318000D03*
G04 #@! TD*
G04 #@! TO.C,C13*
X62547500Y-132969000D03*
D14*
X62103000Y-132969000D03*
D13*
X61658500Y-132969000D03*
X61658500Y-131445000D03*
X62547500Y-131445000D03*
D14*
X62103000Y-131445000D03*
G04 #@! TD*
D19*
G04 #@! TO.C,C14*
X58928000Y-132778500D03*
D20*
X58420000Y-132778500D03*
D19*
X57912000Y-132778500D03*
X57912000Y-130873500D03*
D20*
X58420000Y-130873500D03*
D19*
X58928000Y-130873500D03*
G04 #@! TD*
D23*
G04 #@! TO.C,D1*
X35356800Y-136829800D03*
X36322000Y-136829800D03*
X37287200Y-136829800D03*
X37287200Y-139268200D03*
X36322000Y-139268200D03*
X35356800Y-139268200D03*
G04 #@! TD*
D24*
G04 #@! TO.C,D3*
X55562500Y-147744180D03*
X57467500Y-147744180D03*
X56515000Y-149943820D03*
G04 #@! TD*
D25*
G04 #@! TO.C,J1*
X32581850Y-139090400D03*
X32581850Y-138455400D03*
X32581850Y-137795000D03*
X32581850Y-137134600D03*
X32581850Y-136499600D03*
D26*
X32581850Y-135382000D03*
D27*
X29914850Y-134239000D03*
D28*
X29914850Y-137033000D03*
D27*
X29914850Y-141351000D03*
D28*
X29914850Y-138557000D03*
D26*
X32581850Y-140208000D03*
G04 #@! TD*
D14*
G04 #@! TO.C,L1*
X39370000Y-140462000D03*
D13*
X39814500Y-140462000D03*
X38925500Y-140462000D03*
X38925500Y-138938000D03*
D14*
X39370000Y-138938000D03*
D13*
X39814500Y-138938000D03*
G04 #@! TD*
G04 #@! TO.C,L2*
X41522650Y-140462000D03*
X40633650Y-140462000D03*
D14*
X41078150Y-140462000D03*
D13*
X40633650Y-138938000D03*
D14*
X41078150Y-138938000D03*
D13*
X41522650Y-138938000D03*
G04 #@! TD*
D16*
G04 #@! TO.C,L3*
X55245000Y-144526000D03*
D15*
X55245000Y-144970500D03*
X55245000Y-144081500D03*
X56769000Y-144081500D03*
D16*
X56769000Y-144526000D03*
D15*
X56769000Y-144970500D03*
G04 #@! TD*
G04 #@! TO.C,L4*
X55245000Y-143065500D03*
X55245000Y-142176500D03*
D16*
X55245000Y-142621000D03*
D15*
X56769000Y-143065500D03*
X56769000Y-142176500D03*
D16*
X56769000Y-142621000D03*
G04 #@! TD*
G04 #@! TO.C,L5*
X65532000Y-130937000D03*
D15*
X65532000Y-130492500D03*
X65532000Y-131381500D03*
D16*
X67056000Y-130937000D03*
D15*
X67056000Y-131381500D03*
X67056000Y-130492500D03*
G04 #@! TD*
G04 #@! TO.C,R2*
X53086000Y-140652500D03*
X53086000Y-139763500D03*
D16*
X53086000Y-140208000D03*
X54610000Y-140208000D03*
D15*
X54610000Y-140652500D03*
X54610000Y-139763500D03*
G04 #@! TD*
D16*
G04 #@! TO.C,R3*
X52451000Y-144526000D03*
D15*
X52451000Y-144970500D03*
X52451000Y-144081500D03*
X53975000Y-144081500D03*
D16*
X53975000Y-144526000D03*
D15*
X53975000Y-144970500D03*
G04 #@! TD*
G04 #@! TO.C,R4*
X52451000Y-142176500D03*
D16*
X52451000Y-142621000D03*
D15*
X52451000Y-143065500D03*
X53975000Y-142176500D03*
D16*
X53975000Y-142621000D03*
D15*
X53975000Y-143065500D03*
G04 #@! TD*
D14*
G04 #@! TO.C,R5*
X63627000Y-140970000D03*
D13*
X64071500Y-140970000D03*
X63182500Y-140970000D03*
X64071500Y-139446000D03*
D14*
X63627000Y-139446000D03*
D13*
X63182500Y-139446000D03*
G04 #@! TD*
D15*
G04 #@! TO.C,R6*
X43561000Y-145097500D03*
X43561000Y-144208500D03*
D21*
X43561000Y-144653000D03*
D15*
X42037000Y-145097500D03*
X42037000Y-144208500D03*
D21*
X42037000Y-144653000D03*
G04 #@! TD*
G04 #@! TO.C,R7*
X43561000Y-146304000D03*
D15*
X43561000Y-146748500D03*
X43561000Y-145859500D03*
D21*
X42037000Y-146304000D03*
D15*
X42037000Y-146748500D03*
X42037000Y-145859500D03*
G04 #@! TD*
G04 #@! TO.C,R8*
X43561000Y-148399500D03*
X43561000Y-147510500D03*
D21*
X43561000Y-147955000D03*
D15*
X42037000Y-147510500D03*
X42037000Y-148399500D03*
D21*
X42037000Y-147955000D03*
G04 #@! TD*
G04 #@! TO.C,R9*
X44323000Y-139700000D03*
D15*
X44323000Y-140144500D03*
X44323000Y-139255500D03*
X42799000Y-140144500D03*
X42799000Y-139255500D03*
D21*
X42799000Y-139700000D03*
G04 #@! TD*
D15*
G04 #@! TO.C,R10*
X44323000Y-138366500D03*
D21*
X44323000Y-137922000D03*
D15*
X44323000Y-137477500D03*
D21*
X42799000Y-137922000D03*
D15*
X42799000Y-138366500D03*
X42799000Y-137477500D03*
G04 #@! TD*
G04 #@! TO.C,R11*
X44323000Y-141160500D03*
X44323000Y-142049500D03*
D21*
X44323000Y-141605000D03*
D15*
X42799000Y-141160500D03*
X42799000Y-142049500D03*
D21*
X42799000Y-141605000D03*
G04 #@! TD*
D13*
G04 #@! TO.C,R12*
X60388500Y-143129000D03*
D14*
X60833000Y-143129000D03*
D13*
X61277500Y-143129000D03*
X60388500Y-141605000D03*
X61277500Y-141605000D03*
D14*
X60833000Y-141605000D03*
G04 #@! TD*
D13*
G04 #@! TO.C,R13*
X59880500Y-132969000D03*
D14*
X60325000Y-132969000D03*
D13*
X60769500Y-132969000D03*
X60769500Y-131445000D03*
D14*
X60325000Y-131445000D03*
D13*
X59880500Y-131445000D03*
G04 #@! TD*
D29*
G04 #@! TO.C,T1*
X47726600Y-133248400D03*
X47726600Y-134975600D03*
X48539400Y-134975600D03*
X48539400Y-133248400D03*
G04 #@! TD*
D30*
G04 #@! TO.C,T2*
X61849000Y-149352000D03*
X61849000Y-145288000D03*
X59563000Y-145288000D03*
X59563000Y-149352000D03*
G04 #@! TD*
D31*
G04 #@! TO.C,U1*
X47269400Y-137033000D03*
X47777400Y-137033000D03*
X48272700Y-137033000D03*
X48768000Y-137033000D03*
X49276000Y-137033000D03*
X49771300Y-137033000D03*
X50266600Y-137033000D03*
D32*
X51308000Y-138074400D03*
X51308000Y-138582400D03*
X51308000Y-139077700D03*
X51308000Y-139573000D03*
X51308000Y-140081000D03*
X51308000Y-140576300D03*
X51308000Y-141071600D03*
D31*
X50266600Y-142113000D03*
X49758600Y-142113000D03*
X49263300Y-142113000D03*
X48768000Y-142113000D03*
X48260000Y-142113000D03*
X47764700Y-142113000D03*
X47269400Y-142113000D03*
D32*
X46228000Y-141071600D03*
X46228000Y-140563600D03*
X46228000Y-140068300D03*
X46228000Y-139573000D03*
X46228000Y-139065000D03*
X46228000Y-138569700D03*
X46228000Y-138074400D03*
D33*
X48768000Y-140843000D03*
X48768000Y-138303000D03*
D34*
X48768000Y-139573000D03*
G04 #@! TD*
D35*
G04 #@! TO.C,U2*
X52832000Y-146685000D03*
X52832000Y-147955000D03*
X52832000Y-149225000D03*
X52832000Y-150495000D03*
X47498000Y-150495000D03*
X47498000Y-149225000D03*
X47498000Y-147955000D03*
X47498000Y-146685000D03*
G04 #@! TD*
G04 #@! TO.C,U3*
X39751000Y-142748000D03*
X39751000Y-144018000D03*
X39751000Y-145288000D03*
X39751000Y-146558000D03*
X39751000Y-147828000D03*
X39751000Y-149098000D03*
X39751000Y-150368000D03*
X34417000Y-150368000D03*
X34417000Y-149098000D03*
X34417000Y-147828000D03*
X34417000Y-146558000D03*
X34417000Y-145288000D03*
X34417000Y-144018000D03*
X34417000Y-142748000D03*
G04 #@! TD*
D36*
G04 #@! TO.C,U4*
X61214000Y-139954000D03*
X59944000Y-139954000D03*
X58674000Y-139954000D03*
X57404000Y-139954000D03*
X57404000Y-134620000D03*
X58674000Y-134620000D03*
X59944000Y-134620000D03*
X61214000Y-134620000D03*
G04 #@! TD*
D16*
G04 #@! TO.C,R1*
X29464000Y-132080000D03*
D15*
X29464000Y-131635500D03*
X29464000Y-132524500D03*
D16*
X30988000Y-132080000D03*
D15*
X30988000Y-132524500D03*
X30988000Y-131635500D03*
G04 #@! TD*
D37*
G04 #@! TO.C,D2*
X53594000Y-133248400D03*
X53594000Y-135483600D03*
G04 #@! TD*
D38*
G04 #@! TO.C,J3*
X33782000Y-124028200D03*
X38862000Y-124028200D03*
X36322000Y-126568200D03*
X38862000Y-126568200D03*
X36322000Y-124028200D03*
X43942000Y-126568200D03*
X33782000Y-126568200D03*
X43942000Y-124028200D03*
X41402000Y-126568200D03*
X41402000Y-124028200D03*
D39*
X33782000Y-122377200D03*
X33782000Y-128219200D03*
X36322000Y-122377200D03*
X36322000Y-128219200D03*
X38862000Y-122377200D03*
X38862000Y-128219200D03*
X41402000Y-122377200D03*
X41402000Y-128219200D03*
X43942000Y-122377200D03*
X43942000Y-128219200D03*
G04 #@! TD*
D40*
G04 #@! TO.C,J2*
X72270000Y-145254500D03*
X72270000Y-135094500D03*
D41*
X66990000Y-146524500D03*
X66990000Y-143984500D03*
X66990000Y-141444500D03*
X66990000Y-138904500D03*
X66990000Y-136364500D03*
X66990000Y-133824500D03*
G04 #@! TD*
M02*
