G04 #@! TF.GenerationSoftware,KiCad,Pcbnew,(6.0.0-rc1-387-g70841c6393)*
G04 #@! TF.CreationDate,2022-03-02T22:10:33+08:00*
G04 #@! TF.ProjectId,uw-rs485_hat,75772d72-7334-4383-955f-6861742e6b69,rev?*
G04 #@! TF.SameCoordinates,Original*
G04 #@! TF.FileFunction,Copper,L1,Top*
G04 #@! TF.FilePolarity,Positive*
%FSLAX46Y46*%
G04 Gerber Fmt 4.6, Leading zero omitted, Abs format (unit mm)*
G04 Created by KiCad (PCBNEW (6.0.0-rc1-387-g70841c6393)) date 2022-03-02 22:10:33*
%MOMM*%
%LPD*%
G01*
G04 APERTURE LIST*
G04 Aperture macros list*
%AMHorizOval*
0 Thick line with rounded ends*
0 $1 width*
0 $2 $3 position (X,Y) of the first rounded end (center of the circle)*
0 $4 $5 position (X,Y) of the second rounded end (center of the circle)*
0 Add line between two ends*
20,1,$1,$2,$3,$4,$5,0*
0 Add two circle primitives to create the rounded ends*
1,1,$1,$2,$3*
1,1,$1,$4,$5*%
G04 Aperture macros list end*
G04 #@! TA.AperFunction,ComponentPad*
%ADD10R,1.700000X1.700000*%
G04 #@! TD*
G04 #@! TA.AperFunction,ComponentPad*
%ADD11O,1.700000X1.700000*%
G04 #@! TD*
G04 #@! TA.AperFunction,SMDPad,CuDef*
%ADD12HorizOval,1.016000X0.254000X0.439941X-0.254000X-0.439941X0*%
G04 #@! TD*
G04 #@! TA.AperFunction,SMDPad,CuDef*
%ADD13O,2.032000X1.016000*%
G04 #@! TD*
G04 #@! TA.AperFunction,SMDPad,CuDef*
%ADD14HorizOval,1.016000X-0.254000X-0.439941X0.254000X0.439941X0*%
G04 #@! TD*
G04 #@! TA.AperFunction,SMDPad,CuDef*
%ADD15HorizOval,1.016000X-0.254000X0.439941X0.254000X-0.439941X0*%
G04 #@! TD*
G04 #@! TA.AperFunction,SMDPad,CuDef*
%ADD16HorizOval,1.016000X0.254000X-0.439941X-0.254000X0.439941X0*%
G04 #@! TD*
G04 #@! TA.AperFunction,ComponentPad*
%ADD17O,1.016000X1.270000*%
G04 #@! TD*
G04 #@! TA.AperFunction,ComponentPad*
%ADD18O,1.905000X1.193800*%
G04 #@! TD*
G04 #@! TA.AperFunction,ComponentPad*
%ADD19C,0.609600*%
G04 #@! TD*
G04 #@! TA.AperFunction,SMDPad,CuDef*
%ADD20C,3.048000*%
G04 #@! TD*
G04 #@! TA.AperFunction,ViaPad*
%ADD21C,0.635000*%
G04 #@! TD*
G04 #@! TA.AperFunction,Conductor*
%ADD22C,0.254000*%
G04 #@! TD*
G04 #@! TA.AperFunction,Conductor*
%ADD23C,0.508000*%
G04 #@! TD*
G04 APERTURE END LIST*
D10*
G04 #@! TO.P,J4,1,Pin_1*
G04 #@! TO.N,/RXDA*
X44958000Y-132969000D03*
D11*
G04 #@! TO.P,J4,2,Pin_2*
G04 #@! TO.N,/TXDA*
X42418000Y-132969000D03*
G04 #@! TO.P,J4,3,Pin_3*
G04 #@! TO.N,GND*
X39878000Y-132969000D03*
G04 #@! TO.P,J4,4,Pin_4*
G04 #@! TO.N,+3.3V*
X37338000Y-132969000D03*
G04 #@! TD*
D12*
G04 #@! TO.P,MH1,*
G04 #@! TO.N,*
X30810200Y-126441200D03*
D13*
X28905200Y-123012200D03*
D14*
X27000200Y-124155200D03*
D13*
X28905200Y-127584200D03*
D15*
X30810200Y-124155200D03*
D16*
X27000200Y-126441200D03*
G04 #@! TD*
D15*
G04 #@! TO.P,MH2,*
G04 #@! TO.N,*
X30810200Y-147155200D03*
D12*
X30810200Y-149441200D03*
D16*
X27000200Y-149441200D03*
D13*
X28905200Y-146012200D03*
X28905200Y-150584200D03*
D14*
X27000200Y-147155200D03*
G04 #@! TD*
D17*
G04 #@! TO.P,J1,6,CH*
G04 #@! TO.N,Net-(J1-Pad6)*
X32581850Y-135382000D03*
D18*
X29914850Y-134239000D03*
X29914850Y-141351000D03*
D17*
X32581850Y-140208000D03*
G04 #@! TD*
D19*
G04 #@! TO.P,U1,29,GND*
G04 #@! TO.N,GND*
X49657000Y-139573000D03*
X48768000Y-138684000D03*
X48768000Y-140462000D03*
X47879000Y-139573000D03*
D20*
X48768000Y-139573000D03*
G04 #@! TD*
D21*
G04 #@! TO.N,GND*
X40894000Y-143383000D03*
X41783000Y-141605000D03*
X48387000Y-145542000D03*
X45212000Y-149352000D03*
X36068000Y-147828000D03*
X36068000Y-149098000D03*
X37465000Y-150368000D03*
X36576000Y-142748000D03*
X36576000Y-144018000D03*
X33020000Y-146558000D03*
X61214000Y-138303000D03*
X55880000Y-136906000D03*
G04 #@! TO.N,Net-(D3-Pad3)*
X67056000Y-132461000D03*
X57785000Y-149987000D03*
G04 #@! TO.N,+3.3V*
X46355000Y-146685000D03*
X33274000Y-142748000D03*
X56261000Y-139954000D03*
X62484000Y-143129000D03*
X54864000Y-133223000D03*
X61214000Y-136271000D03*
X49403000Y-146050000D03*
G04 #@! TO.N,GND*
X29845000Y-129794000D03*
X35560000Y-134112000D03*
G04 #@! TO.N,Net-(C1-Pad2)*
X32004000Y-132207000D03*
X34671000Y-135509000D03*
G04 #@! TO.N,GND*
X37592000Y-129413000D03*
X43688000Y-129921000D03*
X51689000Y-131445000D03*
X54229000Y-131318000D03*
X64389000Y-130937000D03*
G04 #@! TO.N,+5V*
X54991000Y-135509000D03*
X41910000Y-142875000D03*
G04 #@! TO.N,/RXD*
X51702140Y-146952140D03*
X46492718Y-145858695D03*
G04 #@! TO.N,/TXD*
X43307000Y-149733000D03*
X51562000Y-150495000D03*
X59944000Y-138557000D03*
G04 #@! TO.N,/TXEN*
X58674000Y-138557000D03*
X51689000Y-147955000D03*
G04 #@! TO.N,/B*
X68897500Y-143954500D03*
X58018680Y-145288000D03*
G04 #@! TO.N,/A*
X64897000Y-145923000D03*
X61341000Y-146685000D03*
G04 #@! TO.N,+3.3V*
X51701200Y-144526000D03*
G04 #@! TO.N,/TXDR*
X38354000Y-146558000D03*
X41725350Y-137140623D03*
G04 #@! TO.N,/TXDA*
X41021000Y-147828000D03*
X42418000Y-136525000D03*
G04 #@! TO.N,/RXDA*
X46609000Y-135890000D03*
X45466000Y-142367000D03*
G04 #@! TO.N,/TXDU*
X43053000Y-142875000D03*
X45085000Y-138925800D03*
G04 #@! TO.N,Net-(D1-Pad4)*
X48514000Y-132080000D03*
X37287200Y-140512800D03*
G04 #@! TO.N,Net-(D1-Pad6)*
X47625000Y-132080000D03*
X34798000Y-137795000D03*
G04 #@! TO.N,Net-(C1-Pad1)*
X38100000Y-137922000D03*
X36449000Y-141732000D03*
G04 #@! TD*
D22*
G04 #@! TO.N,/TXDA*
X41783000Y-139573000D02*
X38989000Y-142367000D01*
X38989000Y-145796000D02*
X41021000Y-147828000D01*
X42418000Y-137541000D02*
X41783000Y-138176000D01*
X38989000Y-142367000D02*
X38989000Y-145796000D01*
X42418000Y-136525000D02*
X42418000Y-137541000D01*
X41783000Y-138176000D02*
X41783000Y-139573000D01*
G04 #@! TO.N,/TXDR*
X38354000Y-142113000D02*
X38354000Y-146558000D01*
X41148000Y-139319000D02*
X38354000Y-142113000D01*
X41148000Y-137717973D02*
X41148000Y-139319000D01*
X41725350Y-137140623D02*
X41148000Y-137717973D01*
D23*
G04 #@! TO.N,+5V*
X54991000Y-139573000D02*
X54991000Y-135509000D01*
X50800000Y-143764000D02*
X54991000Y-139573000D01*
X42799000Y-143764000D02*
X50800000Y-143764000D01*
X41910000Y-142875000D02*
X42799000Y-143764000D01*
D22*
G04 #@! TO.N,/RXD*
X47586163Y-146952140D02*
X51702140Y-146952140D01*
X46492718Y-145858695D02*
X47586163Y-146952140D01*
D23*
G04 #@! TO.N,Net-(D3-Pad3)*
X67056000Y-137287000D02*
X67056000Y-132461000D01*
X70104000Y-146177000D02*
X70104000Y-140335000D01*
X66294000Y-149987000D02*
X70104000Y-146177000D01*
X57785000Y-149987000D02*
X66294000Y-149987000D01*
X70104000Y-140335000D02*
X67056000Y-137287000D01*
G04 #@! TO.N,+3.3V*
X39370000Y-148844000D02*
X33274000Y-142748000D01*
X41910000Y-148844000D02*
X39370000Y-148844000D01*
X44069000Y-146685000D02*
X41910000Y-148844000D01*
X46355000Y-146685000D02*
X44069000Y-146685000D01*
X33655000Y-142367000D02*
X33274000Y-142748000D01*
X33655000Y-137414000D02*
X33655000Y-142367000D01*
X34544000Y-137033000D02*
X34036000Y-137033000D01*
X34036000Y-137033000D02*
X33655000Y-137414000D01*
X37338000Y-134239000D02*
X34544000Y-137033000D01*
X37338000Y-132842000D02*
X37338000Y-134239000D01*
D22*
G04 #@! TO.N,Net-(C1-Pad1)*
X36449000Y-139573000D02*
X38100000Y-137922000D01*
X36449000Y-141732000D02*
X36449000Y-139573000D01*
G04 #@! TO.N,Net-(D1-Pad6)*
X45466000Y-135001000D02*
X47625000Y-132842000D01*
X34798000Y-137795000D02*
X37592000Y-135001000D01*
X37592000Y-135001000D02*
X45466000Y-135001000D01*
X47625000Y-132842000D02*
X47625000Y-132080000D01*
D23*
G04 #@! TO.N,+3.3V*
X56261000Y-139966200D02*
X56261000Y-139954000D01*
X51377600Y-144849600D02*
X51701200Y-144526000D01*
X50177200Y-146050000D02*
X51377600Y-144849600D01*
X51377600Y-144849600D02*
X56261000Y-139966200D01*
X62484000Y-137541000D02*
X61214000Y-136271000D01*
X62484000Y-143129000D02*
X62484000Y-137541000D01*
X58166000Y-133223000D02*
X54864000Y-133223000D01*
X61214000Y-136271000D02*
X58166000Y-133223000D01*
X49403000Y-146050000D02*
X50177200Y-146050000D01*
G04 #@! TO.N,Net-(C1-Pad2)*
X32004000Y-132842000D02*
X34671000Y-135509000D01*
X32004000Y-132207000D02*
X32004000Y-132842000D01*
D22*
G04 #@! TO.N,/TXD*
X44069000Y-150495000D02*
X51562000Y-150495000D01*
X43307000Y-149733000D02*
X44069000Y-150495000D01*
X51689000Y-150495000D02*
X51562000Y-150495000D01*
X57785000Y-144399000D02*
X51689000Y-150495000D01*
X59944000Y-142240000D02*
X57785000Y-144399000D01*
X59944000Y-138557000D02*
X59944000Y-142240000D01*
G04 #@! TO.N,/TXEN*
X53213000Y-147955000D02*
X51689000Y-147955000D01*
X56642000Y-144526000D02*
X53213000Y-147955000D01*
X58674000Y-138557000D02*
X58674000Y-142494000D01*
X58674000Y-142494000D02*
X56642000Y-144526000D01*
G04 #@! TO.N,/B*
X64325500Y-143954500D02*
X68897500Y-143954500D01*
X62992000Y-145288000D02*
X64325500Y-143954500D01*
X58018680Y-145288000D02*
X62992000Y-145288000D01*
G04 #@! TO.N,/A*
X64135000Y-146685000D02*
X64897000Y-145923000D01*
X61341000Y-146685000D02*
X64135000Y-146685000D01*
G04 #@! TO.N,/TXDU*
X43180000Y-142875000D02*
X45085000Y-140970000D01*
X43053000Y-142875000D02*
X43180000Y-142875000D01*
X45085000Y-140970000D02*
X45085000Y-138925800D01*
G04 #@! TO.N,Net-(D1-Pad4)*
X46025280Y-135457720D02*
X48514000Y-132969000D01*
X41707280Y-135457720D02*
X46025280Y-135457720D01*
X37287200Y-139877800D02*
X41707280Y-135457720D01*
X48514000Y-132969000D02*
X48514000Y-132080000D01*
X37287200Y-140512800D02*
X37287200Y-139877800D01*
G04 #@! TO.N,/RXDA*
X45974000Y-136525000D02*
X46609000Y-135890000D01*
X45974000Y-139446000D02*
X45974000Y-136525000D01*
X45974000Y-141859000D02*
X45974000Y-139446000D01*
X45466000Y-142367000D02*
X45974000Y-141859000D01*
G04 #@! TD*
G04 #@! TA.AperFunction,Conductor*
G04 #@! TO.N,GND*
G36*
X44562116Y-122321002D02*
G01*
X44583090Y-122337905D01*
X45302095Y-123056910D01*
X45336121Y-123119222D01*
X45339000Y-123146005D01*
X45339000Y-129517786D01*
X45338530Y-129528656D01*
X45334923Y-129570306D01*
X45337434Y-129580413D01*
X45337434Y-129580419D01*
X45345409Y-129612525D01*
X45347415Y-129622208D01*
X45354558Y-129665119D01*
X45359503Y-129674284D01*
X45361066Y-129678848D01*
X45362989Y-129683292D01*
X45365501Y-129693406D01*
X45371152Y-129702158D01*
X45389093Y-129729944D01*
X45394128Y-129738457D01*
X45414788Y-129776746D01*
X45422431Y-129783811D01*
X45425395Y-129787632D01*
X45428657Y-129791216D01*
X45434304Y-129799963D01*
X45468481Y-129826906D01*
X45475983Y-129833314D01*
X45507930Y-129862846D01*
X45517456Y-129867057D01*
X45521484Y-129869703D01*
X45525732Y-129872039D01*
X45533914Y-129878489D01*
X45543741Y-129881940D01*
X45574954Y-129892901D01*
X45584153Y-129896544D01*
X45623939Y-129914133D01*
X45634315Y-129915032D01*
X45641978Y-129916999D01*
X45646104Y-129917887D01*
X45653589Y-129920516D01*
X45659177Y-129921000D01*
X45697786Y-129921000D01*
X45708656Y-129921470D01*
X45750306Y-129925077D01*
X45760415Y-129922566D01*
X45770796Y-129921749D01*
X45770846Y-129922381D01*
X45782134Y-129921000D01*
X73026000Y-129921000D01*
X73094121Y-129941002D01*
X73140614Y-129994658D01*
X73152000Y-130047000D01*
X73152000Y-133918935D01*
X73131998Y-133987056D01*
X73078342Y-134033549D01*
X73008068Y-134043653D01*
X72959047Y-134025673D01*
X72849582Y-133957006D01*
X72675935Y-133887201D01*
X72644191Y-133874440D01*
X72644189Y-133874439D01*
X72638989Y-133872349D01*
X72633501Y-133871212D01*
X72633496Y-133871211D01*
X72466962Y-133836724D01*
X72416733Y-133826322D01*
X72412120Y-133826056D01*
X72360944Y-133823105D01*
X72360942Y-133823105D01*
X72359122Y-133823000D01*
X72212420Y-133823000D01*
X72209633Y-133823249D01*
X72209627Y-133823249D01*
X72148271Y-133828725D01*
X72043927Y-133838038D01*
X71922665Y-133871211D01*
X71830415Y-133896447D01*
X71830411Y-133896448D01*
X71824999Y-133897929D01*
X71819933Y-133900345D01*
X71819934Y-133900345D01*
X71625194Y-133993231D01*
X71625190Y-133993233D01*
X71620138Y-133995643D01*
X71549926Y-134046096D01*
X71457770Y-134112317D01*
X71435818Y-134128091D01*
X71431913Y-134132121D01*
X71284743Y-134283988D01*
X71277865Y-134291085D01*
X71151273Y-134479474D01*
X71060042Y-134687304D01*
X71058734Y-134692752D01*
X71058732Y-134692758D01*
X71012461Y-134885492D01*
X71007056Y-134908005D01*
X71005947Y-134927246D01*
X70995986Y-135100007D01*
X70993991Y-135134600D01*
X71021259Y-135359928D01*
X71087998Y-135576866D01*
X71090568Y-135581846D01*
X71090570Y-135581850D01*
X71164246Y-135724595D01*
X71192098Y-135778557D01*
X71330270Y-135958626D01*
X71334415Y-135962397D01*
X71334418Y-135962401D01*
X71442677Y-136060909D01*
X71498145Y-136111381D01*
X71502901Y-136114364D01*
X71502903Y-136114366D01*
X71581368Y-136163587D01*
X71690418Y-136231994D01*
X71901011Y-136316651D01*
X71906499Y-136317788D01*
X71906504Y-136317789D01*
X72069102Y-136351461D01*
X72123267Y-136362678D01*
X72127880Y-136362944D01*
X72179056Y-136365895D01*
X72179058Y-136365895D01*
X72180878Y-136366000D01*
X72327580Y-136366000D01*
X72330367Y-136365751D01*
X72330373Y-136365751D01*
X72391729Y-136360275D01*
X72496073Y-136350962D01*
X72629138Y-136314560D01*
X72709585Y-136292553D01*
X72709589Y-136292552D01*
X72715001Y-136291071D01*
X72793640Y-136253562D01*
X72914806Y-136195769D01*
X72914810Y-136195767D01*
X72919862Y-136193357D01*
X72952476Y-136169921D01*
X73019466Y-136146415D01*
X73088532Y-136162857D01*
X73137745Y-136214029D01*
X73152000Y-136272245D01*
X73152000Y-144078935D01*
X73131998Y-144147056D01*
X73078342Y-144193549D01*
X73008068Y-144203653D01*
X72959047Y-144185673D01*
X72849582Y-144117006D01*
X72638989Y-144032349D01*
X72633501Y-144031212D01*
X72633496Y-144031211D01*
X72466962Y-143996724D01*
X72416733Y-143986322D01*
X72412120Y-143986056D01*
X72360944Y-143983105D01*
X72360942Y-143983105D01*
X72359122Y-143983000D01*
X72212420Y-143983000D01*
X72209633Y-143983249D01*
X72209627Y-143983249D01*
X72148271Y-143988725D01*
X72043927Y-143998038D01*
X71922665Y-144031211D01*
X71830415Y-144056447D01*
X71830411Y-144056448D01*
X71824999Y-144057929D01*
X71819933Y-144060345D01*
X71819934Y-144060345D01*
X71625194Y-144153231D01*
X71625190Y-144153233D01*
X71620138Y-144155643D01*
X71435818Y-144288091D01*
X71366551Y-144359569D01*
X71299742Y-144428510D01*
X71277865Y-144451085D01*
X71207408Y-144555936D01*
X71156871Y-144631144D01*
X71151273Y-144639474D01*
X71149014Y-144644620D01*
X71149013Y-144644622D01*
X71145722Y-144652119D01*
X71060042Y-144847304D01*
X71058734Y-144852752D01*
X71058732Y-144852758D01*
X71022756Y-145002611D01*
X71007056Y-145068005D01*
X71003902Y-145122700D01*
X70994527Y-145285312D01*
X70993991Y-145294600D01*
X71021259Y-145519928D01*
X71087998Y-145736866D01*
X71090568Y-145741846D01*
X71090570Y-145741850D01*
X71189527Y-145933576D01*
X71192098Y-145938557D01*
X71330270Y-146118626D01*
X71334415Y-146122397D01*
X71334418Y-146122401D01*
X71460288Y-146236934D01*
X71498145Y-146271381D01*
X71502901Y-146274364D01*
X71502903Y-146274366D01*
X71591467Y-146329922D01*
X71690418Y-146391994D01*
X71815552Y-146442297D01*
X71851849Y-146456888D01*
X71901011Y-146476651D01*
X71906499Y-146477788D01*
X71906504Y-146477789D01*
X72069102Y-146511461D01*
X72123267Y-146522678D01*
X72127880Y-146522944D01*
X72179056Y-146525895D01*
X72179058Y-146525895D01*
X72180878Y-146526000D01*
X72327580Y-146526000D01*
X72330367Y-146525751D01*
X72330373Y-146525751D01*
X72391729Y-146520275D01*
X72496073Y-146510962D01*
X72629138Y-146474560D01*
X72709585Y-146452553D01*
X72709589Y-146452552D01*
X72715001Y-146451071D01*
X72835812Y-146393447D01*
X72914806Y-146355769D01*
X72914810Y-146355767D01*
X72919862Y-146353357D01*
X72952476Y-146329921D01*
X73019466Y-146306415D01*
X73088532Y-146322857D01*
X73137745Y-146374029D01*
X73152000Y-146432245D01*
X73152000Y-151385000D01*
X73131998Y-151453121D01*
X73078342Y-151499614D01*
X73026000Y-151511000D01*
X30041463Y-151511000D01*
X29973342Y-151490998D01*
X29926849Y-151437342D01*
X29916745Y-151367068D01*
X29946239Y-151302488D01*
X29957153Y-151291364D01*
X30072962Y-151187090D01*
X30072970Y-151187081D01*
X30077869Y-151182670D01*
X30085657Y-151171951D01*
X30183892Y-151036742D01*
X30183893Y-151036741D01*
X30187773Y-151031400D01*
X30191290Y-151023502D01*
X30261142Y-150866611D01*
X30263825Y-150860585D01*
X30265197Y-150854132D01*
X30267239Y-150847846D01*
X30269551Y-150848597D01*
X30298047Y-150795829D01*
X30360201Y-150761515D01*
X30400726Y-150759200D01*
X30549635Y-150774851D01*
X30556200Y-150775541D01*
X30562765Y-150774851D01*
X30735592Y-150756686D01*
X30735593Y-150756686D01*
X30742156Y-150755996D01*
X30820909Y-150730408D01*
X30913701Y-150700258D01*
X30913700Y-150700258D01*
X30919986Y-150698216D01*
X30941871Y-150685581D01*
X31059871Y-150617453D01*
X31081915Y-150604726D01*
X31112618Y-150577081D01*
X31215966Y-150484026D01*
X31215967Y-150484024D01*
X31220869Y-150479611D01*
X31303220Y-150366265D01*
X31304867Y-150363412D01*
X31304873Y-150363403D01*
X31856187Y-149408498D01*
X31857840Y-149405635D01*
X31860118Y-149400520D01*
X31912140Y-149283675D01*
X31912140Y-149283674D01*
X31914825Y-149277644D01*
X31953700Y-149094750D01*
X31953700Y-148907769D01*
X31914825Y-148724874D01*
X31891289Y-148672012D01*
X31841458Y-148560089D01*
X31841457Y-148560087D01*
X31838773Y-148554059D01*
X31794912Y-148493689D01*
X31732752Y-148408133D01*
X31732750Y-148408131D01*
X31728869Y-148402789D01*
X31716703Y-148391835D01*
X31679465Y-148331392D01*
X31680815Y-148260409D01*
X31716703Y-148204566D01*
X31728869Y-148193611D01*
X31838773Y-148042341D01*
X31877582Y-147955176D01*
X31912140Y-147877557D01*
X31912140Y-147877555D01*
X31914825Y-147871526D01*
X31953700Y-147688631D01*
X31953700Y-147501650D01*
X31945701Y-147464014D01*
X31928165Y-147381518D01*
X31914825Y-147318756D01*
X31885927Y-147253849D01*
X31859183Y-147193781D01*
X31859181Y-147193778D01*
X31857840Y-147190765D01*
X31770533Y-147039544D01*
X31304873Y-146232997D01*
X31304867Y-146232988D01*
X31303220Y-146230135D01*
X31220869Y-146116789D01*
X31210682Y-146107616D01*
X31086823Y-145996093D01*
X31086822Y-145996092D01*
X31081915Y-145991674D01*
X30995576Y-145941826D01*
X30925709Y-145901488D01*
X30925708Y-145901487D01*
X30919986Y-145898184D01*
X30833730Y-145870158D01*
X30748435Y-145842444D01*
X30748434Y-145842444D01*
X30742156Y-145840404D01*
X30735593Y-145839714D01*
X30735592Y-145839714D01*
X30562765Y-145821549D01*
X30556200Y-145820859D01*
X30549635Y-145821549D01*
X30400726Y-145837200D01*
X30330887Y-145824428D01*
X30279041Y-145775926D01*
X30268254Y-145748224D01*
X30267239Y-145748554D01*
X30265197Y-145742268D01*
X30263825Y-145735815D01*
X30251230Y-145707526D01*
X30190458Y-145571030D01*
X30190457Y-145571028D01*
X30187773Y-145565000D01*
X30169302Y-145539576D01*
X30081748Y-145419069D01*
X30077869Y-145413730D01*
X30062459Y-145399854D01*
X29943823Y-145293034D01*
X29943822Y-145293033D01*
X29938915Y-145288615D01*
X29794394Y-145205176D01*
X29782708Y-145198429D01*
X29782707Y-145198428D01*
X29776985Y-145195125D01*
X29666502Y-145159227D01*
X29605435Y-145139385D01*
X29605434Y-145139385D01*
X29599156Y-145137345D01*
X29592593Y-145136655D01*
X29592592Y-145136655D01*
X29570003Y-145134281D01*
X29459820Y-145122700D01*
X28350580Y-145122700D01*
X28240397Y-145134281D01*
X28217808Y-145136655D01*
X28217807Y-145136655D01*
X28211244Y-145137345D01*
X28204966Y-145139385D01*
X28204965Y-145139385D01*
X28143898Y-145159227D01*
X28033415Y-145195125D01*
X28027693Y-145198428D01*
X28027692Y-145198429D01*
X28016006Y-145205176D01*
X27871485Y-145288615D01*
X27866578Y-145293033D01*
X27866577Y-145293034D01*
X27747942Y-145399854D01*
X27732531Y-145413730D01*
X27728652Y-145419069D01*
X27641099Y-145539576D01*
X27622627Y-145565000D01*
X27619943Y-145571028D01*
X27619942Y-145571030D01*
X27549260Y-145729784D01*
X27546575Y-145735815D01*
X27545203Y-145742271D01*
X27543161Y-145748555D01*
X27540847Y-145747803D01*
X27512361Y-145800563D01*
X27450210Y-145834882D01*
X27409675Y-145837200D01*
X27290830Y-145824709D01*
X27225173Y-145797696D01*
X27184543Y-145739474D01*
X27178000Y-145699399D01*
X27178000Y-142747000D01*
X27198002Y-142678879D01*
X27251658Y-142632386D01*
X27304000Y-142621000D01*
X28171786Y-142621000D01*
X28182656Y-142621470D01*
X28224306Y-142625077D01*
X28234413Y-142622566D01*
X28234419Y-142622566D01*
X28266525Y-142614591D01*
X28276208Y-142612585D01*
X28288607Y-142610521D01*
X28319119Y-142605442D01*
X28328284Y-142600497D01*
X28332848Y-142598934D01*
X28337292Y-142597011D01*
X28347406Y-142594499D01*
X28383949Y-142570904D01*
X28392457Y-142565872D01*
X28421584Y-142550156D01*
X28421586Y-142550155D01*
X28430746Y-142545212D01*
X28437811Y-142537569D01*
X28441632Y-142534605D01*
X28445216Y-142531343D01*
X28453963Y-142525696D01*
X28480906Y-142491519D01*
X28487314Y-142484017D01*
X28516846Y-142452070D01*
X28521057Y-142442544D01*
X28523703Y-142438516D01*
X28526039Y-142434268D01*
X28532489Y-142426086D01*
X28546902Y-142385044D01*
X28550544Y-142375846D01*
X28551793Y-142373022D01*
X28568133Y-142336061D01*
X28569032Y-142325685D01*
X28570999Y-142318022D01*
X28571887Y-142313896D01*
X28574516Y-142306411D01*
X28575000Y-142300823D01*
X28575000Y-142262214D01*
X28575470Y-142251342D01*
X28577216Y-142231183D01*
X28579077Y-142209694D01*
X28576566Y-142199585D01*
X28575749Y-142189204D01*
X28576381Y-142189154D01*
X28575000Y-142177866D01*
X28575000Y-142050807D01*
X28595002Y-141982686D01*
X28648658Y-141936193D01*
X28718932Y-141926089D01*
X28783512Y-141955583D01*
X28792548Y-141964234D01*
X28905867Y-142084065D01*
X28916646Y-142095464D01*
X28921876Y-142099126D01*
X28921877Y-142099127D01*
X28954957Y-142122290D01*
X29079466Y-142209472D01*
X29193607Y-142258865D01*
X29252673Y-142284425D01*
X29261886Y-142288412D01*
X29268134Y-142289717D01*
X29268133Y-142289717D01*
X29451707Y-142328068D01*
X29451711Y-142328068D01*
X29456452Y-142329059D01*
X29461287Y-142329312D01*
X29461292Y-142329313D01*
X29461306Y-142329313D01*
X29462959Y-142329400D01*
X30320126Y-142329400D01*
X30427551Y-142318488D01*
X30461850Y-142315004D01*
X30461851Y-142315004D01*
X30468199Y-142314359D01*
X30657871Y-142254920D01*
X30831716Y-142158556D01*
X30854541Y-142138993D01*
X30977782Y-142033363D01*
X30977784Y-142033361D01*
X30982634Y-142029204D01*
X31039740Y-141955583D01*
X31100544Y-141877196D01*
X31100546Y-141877193D01*
X31104460Y-141872147D01*
X31192216Y-141693802D01*
X31193823Y-141687632D01*
X31193825Y-141687627D01*
X31223373Y-141574187D01*
X31242319Y-141501453D01*
X31248001Y-141393042D01*
X31252388Y-141309341D01*
X31252388Y-141309336D01*
X31252722Y-141302959D01*
X31222999Y-141106427D01*
X31154365Y-140919886D01*
X31151007Y-140914470D01*
X31151005Y-140914466D01*
X31052987Y-140756378D01*
X31052984Y-140756374D01*
X31049624Y-140750955D01*
X30964156Y-140660575D01*
X30917443Y-140611177D01*
X30917442Y-140611176D01*
X30913054Y-140606536D01*
X30750234Y-140492528D01*
X30592908Y-140424447D01*
X30573670Y-140416122D01*
X30573669Y-140416122D01*
X30567814Y-140413588D01*
X30513169Y-140402172D01*
X30377993Y-140373932D01*
X30377989Y-140373932D01*
X30373248Y-140372941D01*
X30368413Y-140372688D01*
X30368408Y-140372687D01*
X30368394Y-140372687D01*
X30366741Y-140372600D01*
X29509574Y-140372600D01*
X29435784Y-140380095D01*
X29367850Y-140386996D01*
X29367849Y-140386996D01*
X29361501Y-140387641D01*
X29171829Y-140447080D01*
X28997984Y-140543444D01*
X28993136Y-140547600D01*
X28993135Y-140547600D01*
X28861325Y-140660575D01*
X28847066Y-140672796D01*
X28801054Y-140732115D01*
X28800559Y-140732753D01*
X28743003Y-140774319D01*
X28672111Y-140778169D01*
X28610391Y-140743081D01*
X28577439Y-140680195D01*
X28575000Y-140655526D01*
X28575000Y-134938807D01*
X28595002Y-134870686D01*
X28648658Y-134824193D01*
X28718932Y-134814089D01*
X28783512Y-134843583D01*
X28792548Y-134852234D01*
X28871624Y-134935854D01*
X28916646Y-134983464D01*
X29079466Y-135097472D01*
X29261886Y-135176412D01*
X29268134Y-135177717D01*
X29268133Y-135177717D01*
X29451707Y-135216068D01*
X29451711Y-135216068D01*
X29456452Y-135217059D01*
X29461287Y-135217312D01*
X29461292Y-135217313D01*
X29461306Y-135217313D01*
X29462959Y-135217400D01*
X30320126Y-135217400D01*
X30441107Y-135205111D01*
X30461850Y-135203004D01*
X30461851Y-135203004D01*
X30468199Y-135202359D01*
X30657871Y-135142920D01*
X30831716Y-135046556D01*
X30910742Y-134978823D01*
X30977782Y-134921363D01*
X30977784Y-134921361D01*
X30982634Y-134917204D01*
X31104460Y-134760147D01*
X31192216Y-134581802D01*
X31193823Y-134575632D01*
X31193825Y-134575627D01*
X31232345Y-134427743D01*
X31242319Y-134389453D01*
X31249150Y-134259121D01*
X31252388Y-134197341D01*
X31252388Y-134197336D01*
X31252722Y-134190959D01*
X31222999Y-133994427D01*
X31154365Y-133807886D01*
X31151007Y-133802470D01*
X31151005Y-133802466D01*
X31052987Y-133644378D01*
X31052984Y-133644374D01*
X31049624Y-133638955D01*
X30969487Y-133554212D01*
X30917443Y-133499177D01*
X30917442Y-133499176D01*
X30913054Y-133494536D01*
X30898676Y-133484468D01*
X30818529Y-133428349D01*
X30750234Y-133380528D01*
X30567814Y-133301588D01*
X30490997Y-133285540D01*
X30377993Y-133261932D01*
X30377989Y-133261932D01*
X30373248Y-133260941D01*
X30368413Y-133260688D01*
X30368408Y-133260687D01*
X30368394Y-133260687D01*
X30366741Y-133260600D01*
X29509574Y-133260600D01*
X29475945Y-133264016D01*
X29367850Y-133274996D01*
X29367849Y-133274996D01*
X29361501Y-133275641D01*
X29171829Y-133335080D01*
X28997984Y-133431444D01*
X28993136Y-133435600D01*
X28993135Y-133435600D01*
X28854748Y-133554212D01*
X28847066Y-133560796D01*
X28814261Y-133603089D01*
X28800559Y-133620753D01*
X28743003Y-133662319D01*
X28672111Y-133666169D01*
X28610391Y-133631081D01*
X28577439Y-133568195D01*
X28575000Y-133543526D01*
X28575000Y-133245214D01*
X28575470Y-133234342D01*
X28577812Y-133207298D01*
X28579077Y-133192694D01*
X28576566Y-133182587D01*
X28576566Y-133182581D01*
X28568591Y-133150475D01*
X28566585Y-133140792D01*
X28563531Y-133122445D01*
X28559442Y-133097881D01*
X28554497Y-133088716D01*
X28552934Y-133084152D01*
X28551011Y-133079708D01*
X28548499Y-133069594D01*
X28524904Y-133033051D01*
X28519872Y-133024543D01*
X28504156Y-132995416D01*
X28504155Y-132995414D01*
X28499212Y-132986254D01*
X28491569Y-132979189D01*
X28488605Y-132975368D01*
X28485343Y-132971784D01*
X28479696Y-132963037D01*
X28445519Y-132936094D01*
X28438017Y-132929686D01*
X28406070Y-132900154D01*
X28396544Y-132895943D01*
X28392516Y-132893297D01*
X28388268Y-132890961D01*
X28380086Y-132884511D01*
X28339044Y-132870098D01*
X28329846Y-132866456D01*
X28299586Y-132853078D01*
X28290061Y-132848867D01*
X28279685Y-132847968D01*
X28272022Y-132846001D01*
X28267896Y-132845113D01*
X28260411Y-132842484D01*
X28254823Y-132842000D01*
X28216214Y-132842000D01*
X28205344Y-132841530D01*
X28163694Y-132837923D01*
X28153585Y-132840434D01*
X28143204Y-132841251D01*
X28143154Y-132840619D01*
X28131866Y-132842000D01*
X27304000Y-132842000D01*
X27235879Y-132821998D01*
X27189386Y-132768342D01*
X27178000Y-132716000D01*
X27178000Y-132199626D01*
X31299905Y-132199626D01*
X31318470Y-132367790D01*
X31321080Y-132374922D01*
X31360826Y-132483533D01*
X31368500Y-132526834D01*
X31368500Y-132762980D01*
X31367970Y-132774214D01*
X31366292Y-132781719D01*
X31368201Y-132842484D01*
X31368438Y-132850012D01*
X31368500Y-132853969D01*
X31368500Y-132881983D01*
X31368996Y-132885908D01*
X31368996Y-132885909D01*
X31369008Y-132886004D01*
X31369941Y-132897849D01*
X31371335Y-132942205D01*
X31373547Y-132949817D01*
X31377013Y-132961748D01*
X31381023Y-132981112D01*
X31381673Y-132986254D01*
X31383573Y-133001299D01*
X31386489Y-133008663D01*
X31386490Y-133008668D01*
X31399907Y-133042556D01*
X31403752Y-133053785D01*
X31408345Y-133069594D01*
X31416131Y-133096393D01*
X31420169Y-133103220D01*
X31420170Y-133103223D01*
X31426488Y-133113906D01*
X31435188Y-133131664D01*
X31439761Y-133143215D01*
X31439765Y-133143221D01*
X31442681Y-133150588D01*
X31447339Y-133156999D01*
X31447340Y-133157001D01*
X31468764Y-133186488D01*
X31475281Y-133196410D01*
X31493826Y-133227768D01*
X31493829Y-133227772D01*
X31497866Y-133234598D01*
X31512250Y-133248982D01*
X31525091Y-133264016D01*
X31537058Y-133280487D01*
X31543166Y-133285540D01*
X31571255Y-133308777D01*
X31580035Y-133316767D01*
X32440061Y-134176793D01*
X32474087Y-134239105D01*
X32469022Y-134309920D01*
X32426475Y-134366756D01*
X32377163Y-134389135D01*
X32349954Y-134394919D01*
X32305465Y-134404375D01*
X32299436Y-134407060D01*
X32299434Y-134407060D01*
X32140680Y-134477742D01*
X32140678Y-134477743D01*
X32134650Y-134480427D01*
X32129309Y-134484307D01*
X32129308Y-134484308D01*
X32118033Y-134492500D01*
X31983380Y-134590331D01*
X31858265Y-134729285D01*
X31854962Y-134735006D01*
X31787281Y-134852234D01*
X31764775Y-134891215D01*
X31740711Y-134965278D01*
X31736310Y-134978823D01*
X31706995Y-135069044D01*
X31692350Y-135208380D01*
X31692350Y-135555620D01*
X31698061Y-135609953D01*
X31705100Y-135676922D01*
X31706995Y-135694956D01*
X31709035Y-135701234D01*
X31709035Y-135701235D01*
X31714486Y-135718012D01*
X31764775Y-135872785D01*
X31768078Y-135878507D01*
X31768079Y-135878508D01*
X31820380Y-135969096D01*
X31858265Y-136034715D01*
X31862683Y-136039622D01*
X31862684Y-136039623D01*
X31927296Y-136111381D01*
X31983380Y-136173669D01*
X31988719Y-136177548D01*
X32078739Y-136242951D01*
X32134650Y-136283573D01*
X32140678Y-136286257D01*
X32140680Y-136286258D01*
X32287128Y-136351461D01*
X32305465Y-136359625D01*
X32376859Y-136374800D01*
X32481903Y-136397128D01*
X32481907Y-136397128D01*
X32488360Y-136398500D01*
X32675340Y-136398500D01*
X32681793Y-136397128D01*
X32681797Y-136397128D01*
X32786841Y-136374800D01*
X32858235Y-136359625D01*
X32876572Y-136351461D01*
X33023020Y-136286258D01*
X33023022Y-136286257D01*
X33029050Y-136283573D01*
X33084962Y-136242951D01*
X33174981Y-136177548D01*
X33180320Y-136173669D01*
X33236405Y-136111381D01*
X33301016Y-136039623D01*
X33301017Y-136039622D01*
X33305435Y-136034715D01*
X33343320Y-135969096D01*
X33395621Y-135878508D01*
X33395622Y-135878507D01*
X33398925Y-135872785D01*
X33449214Y-135718012D01*
X33454665Y-135701235D01*
X33454665Y-135701234D01*
X33456705Y-135694956D01*
X33458601Y-135676922D01*
X33465639Y-135609953D01*
X33471350Y-135555620D01*
X33471350Y-135512273D01*
X33491352Y-135444152D01*
X33545008Y-135397659D01*
X33615282Y-135387555D01*
X33679862Y-135417049D01*
X33686445Y-135423178D01*
X33996049Y-135732782D01*
X34025280Y-135778575D01*
X34043612Y-135828670D01*
X34047848Y-135834973D01*
X34047848Y-135834974D01*
X34133740Y-135962796D01*
X34133743Y-135962799D01*
X34137974Y-135969096D01*
X34263108Y-136082959D01*
X34315455Y-136111381D01*
X34330123Y-136119345D01*
X34380444Y-136169427D01*
X34395701Y-136238765D01*
X34371049Y-136305345D01*
X34359096Y-136319171D01*
X34317672Y-136360595D01*
X34255360Y-136394621D01*
X34228577Y-136397500D01*
X34115020Y-136397500D01*
X34103791Y-136396971D01*
X34096281Y-136395292D01*
X34088355Y-136395541D01*
X34088354Y-136395541D01*
X34028002Y-136397438D01*
X34024044Y-136397500D01*
X33996017Y-136397500D01*
X33991971Y-136398011D01*
X33980143Y-136398942D01*
X33935795Y-136400336D01*
X33928177Y-136402549D01*
X33928178Y-136402549D01*
X33916254Y-136406013D01*
X33896894Y-136410022D01*
X33884566Y-136411579D01*
X33884563Y-136411580D01*
X33876701Y-136412573D01*
X33869335Y-136415490D01*
X33869329Y-136415491D01*
X33835439Y-136428909D01*
X33824212Y-136432753D01*
X33781607Y-136445131D01*
X33774788Y-136449164D01*
X33774783Y-136449166D01*
X33764091Y-136455490D01*
X33746341Y-136464187D01*
X33727412Y-136471681D01*
X33720996Y-136476342D01*
X33720995Y-136476343D01*
X33691519Y-136497759D01*
X33681595Y-136504278D01*
X33650224Y-136522830D01*
X33650219Y-136522834D01*
X33643401Y-136526866D01*
X33629014Y-136541253D01*
X33613980Y-136554094D01*
X33597513Y-136566058D01*
X33592460Y-136572166D01*
X33569228Y-136600249D01*
X33561238Y-136609029D01*
X33261517Y-136908750D01*
X33253191Y-136916326D01*
X33246697Y-136920447D01*
X33204378Y-136965512D01*
X33199915Y-136970265D01*
X33197160Y-136973107D01*
X33177361Y-136992906D01*
X33174937Y-136996031D01*
X33174929Y-136996040D01*
X33174863Y-136996126D01*
X33167155Y-137005151D01*
X33136783Y-137037494D01*
X33132965Y-137044438D01*
X33132964Y-137044440D01*
X33126978Y-137055329D01*
X33116127Y-137071847D01*
X33103650Y-137087933D01*
X33086024Y-137128666D01*
X33080807Y-137139314D01*
X33074415Y-137150942D01*
X33059431Y-137178197D01*
X33057460Y-137185872D01*
X33057458Y-137185878D01*
X33054369Y-137197911D01*
X33047966Y-137216613D01*
X33039883Y-137235292D01*
X33035929Y-137260256D01*
X33032940Y-137279127D01*
X33030535Y-137290740D01*
X33019500Y-137333718D01*
X33019500Y-137354065D01*
X33017949Y-137373776D01*
X33014765Y-137393879D01*
X33015511Y-137401771D01*
X33018941Y-137438056D01*
X33019500Y-137449914D01*
X33019500Y-139110074D01*
X32999498Y-139178195D01*
X32945842Y-139224688D01*
X32875568Y-139234792D01*
X32860053Y-139231184D01*
X32858235Y-139230375D01*
X32851783Y-139229004D01*
X32851778Y-139229002D01*
X32681797Y-139192872D01*
X32681793Y-139192872D01*
X32675340Y-139191500D01*
X32488360Y-139191500D01*
X32481907Y-139192872D01*
X32481903Y-139192872D01*
X32407947Y-139208592D01*
X32305465Y-139230375D01*
X32299436Y-139233060D01*
X32299434Y-139233060D01*
X32140680Y-139303742D01*
X32140678Y-139303743D01*
X32134650Y-139306427D01*
X32129309Y-139310307D01*
X32129308Y-139310308D01*
X32039165Y-139375801D01*
X31983380Y-139416331D01*
X31978967Y-139421233D01*
X31978965Y-139421234D01*
X31862684Y-139550377D01*
X31858265Y-139555285D01*
X31854962Y-139561006D01*
X31784347Y-139683316D01*
X31764775Y-139717215D01*
X31762733Y-139723500D01*
X31709498Y-139887342D01*
X31706995Y-139895044D01*
X31692350Y-140034380D01*
X31692350Y-140381620D01*
X31706995Y-140520956D01*
X31709035Y-140527234D01*
X31709035Y-140527235D01*
X31737006Y-140613321D01*
X31764775Y-140698785D01*
X31768078Y-140704507D01*
X31768079Y-140704508D01*
X31830922Y-140813355D01*
X31858265Y-140860715D01*
X31862683Y-140865622D01*
X31862684Y-140865623D01*
X31978583Y-140994341D01*
X31983380Y-140999669D01*
X32134650Y-141109573D01*
X32140678Y-141112257D01*
X32140680Y-141112258D01*
X32292139Y-141179692D01*
X32305465Y-141185625D01*
X32396913Y-141205063D01*
X32481903Y-141223128D01*
X32481907Y-141223128D01*
X32488360Y-141224500D01*
X32675340Y-141224500D01*
X32681793Y-141223128D01*
X32681797Y-141223128D01*
X32851778Y-141186998D01*
X32851783Y-141186996D01*
X32858235Y-141185625D01*
X32858311Y-141185984D01*
X32925536Y-141184067D01*
X32986333Y-141220731D01*
X33017655Y-141284445D01*
X33019500Y-141305926D01*
X33019500Y-142015944D01*
X32999498Y-142084065D01*
X32951290Y-142127910D01*
X32929155Y-142139334D01*
X32885916Y-142161651D01*
X32878218Y-142165624D01*
X32872497Y-142170614D01*
X32872495Y-142170616D01*
X32775856Y-142254920D01*
X32750726Y-142276842D01*
X32746356Y-142283060D01*
X32664981Y-142398846D01*
X32653444Y-142415261D01*
X32650682Y-142422344D01*
X32650682Y-142422345D01*
X32648598Y-142427691D01*
X32591988Y-142572889D01*
X32589887Y-142588848D01*
X32574435Y-142706219D01*
X32569905Y-142740626D01*
X32588470Y-142908790D01*
X32591080Y-142915922D01*
X32641918Y-143054842D01*
X32646612Y-143067670D01*
X32650848Y-143073973D01*
X32650848Y-143073974D01*
X32736740Y-143201796D01*
X32736743Y-143201799D01*
X32740974Y-143208096D01*
X32795564Y-143257769D01*
X32836793Y-143295284D01*
X32866108Y-143321959D01*
X33014791Y-143402687D01*
X33016761Y-143403204D01*
X33056721Y-143429453D01*
X35972451Y-146345184D01*
X38864750Y-149237483D01*
X38872326Y-149245809D01*
X38876447Y-149252303D01*
X38897604Y-149272171D01*
X38926265Y-149299085D01*
X38929107Y-149301840D01*
X38948906Y-149321639D01*
X38952031Y-149324063D01*
X38952040Y-149324071D01*
X38952126Y-149324137D01*
X38961151Y-149331845D01*
X38993494Y-149362217D01*
X39000438Y-149366035D01*
X39000440Y-149366036D01*
X39011329Y-149372022D01*
X39027847Y-149382873D01*
X39043933Y-149395350D01*
X39084666Y-149412976D01*
X39095314Y-149418193D01*
X39106942Y-149424585D01*
X39134197Y-149439569D01*
X39141872Y-149441540D01*
X39141878Y-149441542D01*
X39153911Y-149444631D01*
X39172613Y-149451034D01*
X39191292Y-149459117D01*
X39224818Y-149464427D01*
X39235127Y-149466060D01*
X39246740Y-149468465D01*
X39289718Y-149479500D01*
X39310065Y-149479500D01*
X39329777Y-149481051D01*
X39349879Y-149484235D01*
X39357771Y-149483489D01*
X39394056Y-149480059D01*
X39405914Y-149479500D01*
X41830980Y-149479500D01*
X41842214Y-149480030D01*
X41849719Y-149481708D01*
X41918012Y-149479562D01*
X41921969Y-149479500D01*
X41949983Y-149479500D01*
X41953908Y-149479004D01*
X41953909Y-149479004D01*
X41954004Y-149478992D01*
X41965849Y-149478059D01*
X41995670Y-149477122D01*
X42002282Y-149476914D01*
X42002283Y-149476914D01*
X42010205Y-149476665D01*
X42029749Y-149470987D01*
X42049112Y-149466977D01*
X42061440Y-149465420D01*
X42061442Y-149465420D01*
X42069299Y-149464427D01*
X42076663Y-149461511D01*
X42076668Y-149461510D01*
X42110556Y-149448093D01*
X42121785Y-149444248D01*
X42138465Y-149439402D01*
X42164393Y-149431869D01*
X42171220Y-149427831D01*
X42171223Y-149427830D01*
X42181906Y-149421512D01*
X42199664Y-149412812D01*
X42211215Y-149408239D01*
X42211221Y-149408235D01*
X42218588Y-149405319D01*
X42225194Y-149400520D01*
X42254488Y-149379236D01*
X42264410Y-149372719D01*
X42295768Y-149354174D01*
X42295772Y-149354171D01*
X42302598Y-149350134D01*
X42316982Y-149335750D01*
X42332016Y-149322909D01*
X42342073Y-149315602D01*
X42348487Y-149310942D01*
X42376778Y-149276744D01*
X42384767Y-149267965D01*
X44295328Y-147357405D01*
X44357640Y-147323379D01*
X44384423Y-147320500D01*
X46028453Y-147320500D01*
X46081750Y-147334036D01*
X46082054Y-147333267D01*
X46088012Y-147335626D01*
X46088575Y-147335769D01*
X46095791Y-147339687D01*
X46259438Y-147382619D01*
X46347047Y-147383996D01*
X46421004Y-147385158D01*
X46421007Y-147385158D01*
X46428602Y-147385277D01*
X46486723Y-147371965D01*
X46586114Y-147349202D01*
X46586118Y-147349201D01*
X46593517Y-147347506D01*
X46744662Y-147271488D01*
X46750433Y-147266559D01*
X46750436Y-147266557D01*
X46867533Y-147166546D01*
X46873311Y-147161611D01*
X46877747Y-147155438D01*
X46881066Y-147151828D01*
X46941898Y-147115222D01*
X47012864Y-147117315D01*
X47062912Y-147148017D01*
X47176343Y-147261448D01*
X47183963Y-147270985D01*
X47184332Y-147270671D01*
X47190147Y-147277504D01*
X47194939Y-147285098D01*
X47235024Y-147320500D01*
X47235279Y-147320725D01*
X47240966Y-147326071D01*
X47252418Y-147337523D01*
X47256009Y-147340214D01*
X47256011Y-147340216D01*
X47260793Y-147343800D01*
X47268636Y-147350185D01*
X47304114Y-147381518D01*
X47312241Y-147385334D01*
X47314697Y-147386947D01*
X47329710Y-147395969D01*
X47332281Y-147397377D01*
X47339459Y-147402756D01*
X47347859Y-147405905D01*
X47347861Y-147405906D01*
X47383803Y-147419379D01*
X47393106Y-147423299D01*
X47435963Y-147443421D01*
X47444832Y-147444802D01*
X47447658Y-147445666D01*
X47464562Y-147450100D01*
X47467438Y-147450732D01*
X47475847Y-147453885D01*
X47484797Y-147454550D01*
X47523069Y-147457394D01*
X47533115Y-147458548D01*
X47541738Y-147459891D01*
X47541741Y-147459891D01*
X47546549Y-147460640D01*
X47562069Y-147460640D01*
X47571406Y-147460986D01*
X47621104Y-147464679D01*
X47629883Y-147462805D01*
X47638141Y-147462242D01*
X47653324Y-147460640D01*
X50947094Y-147460640D01*
X51015215Y-147480642D01*
X51061708Y-147534298D01*
X51071812Y-147604572D01*
X51064487Y-147632409D01*
X51040050Y-147695088D01*
X51006988Y-147779889D01*
X51005997Y-147787418D01*
X50994225Y-147876836D01*
X50984905Y-147947626D01*
X51003470Y-148115790D01*
X51006080Y-148122922D01*
X51031949Y-148193611D01*
X51061612Y-148274670D01*
X51065848Y-148280973D01*
X51065848Y-148280974D01*
X51151740Y-148408796D01*
X51151743Y-148408799D01*
X51155974Y-148415096D01*
X51281108Y-148528959D01*
X51429791Y-148609687D01*
X51593438Y-148652619D01*
X51681047Y-148653996D01*
X51755004Y-148655158D01*
X51755007Y-148655158D01*
X51762602Y-148655277D01*
X51820723Y-148641965D01*
X51920114Y-148619202D01*
X51920118Y-148619201D01*
X51927517Y-148617506D01*
X52078662Y-148541488D01*
X52134628Y-148493689D01*
X52199417Y-148464658D01*
X52216458Y-148463500D01*
X52697183Y-148463500D01*
X52765304Y-148483502D01*
X52811797Y-148537158D01*
X52821901Y-148607432D01*
X52792407Y-148672012D01*
X52786278Y-148678595D01*
X51705539Y-149759334D01*
X51643227Y-149793360D01*
X51615785Y-149796237D01*
X51528621Y-149795781D01*
X51481069Y-149795532D01*
X51473688Y-149797304D01*
X51323938Y-149833256D01*
X51323935Y-149833257D01*
X51316559Y-149835028D01*
X51166218Y-149912624D01*
X51160497Y-149917614D01*
X51160495Y-149917616D01*
X51117127Y-149955449D01*
X51052645Y-149985157D01*
X51034298Y-149986500D01*
X44331817Y-149986500D01*
X44263696Y-149966498D01*
X44242722Y-149949595D01*
X44039835Y-149746708D01*
X44005809Y-149684396D01*
X44003843Y-149672750D01*
X43991721Y-149572580D01*
X43990809Y-149565040D01*
X43931006Y-149406778D01*
X43900380Y-149362217D01*
X43839481Y-149273607D01*
X43839479Y-149273605D01*
X43835179Y-149267348D01*
X43829508Y-149262295D01*
X43714531Y-149159854D01*
X43714528Y-149159852D01*
X43708859Y-149154801D01*
X43559339Y-149075634D01*
X43548964Y-149073028D01*
X43402622Y-149036269D01*
X43402618Y-149036269D01*
X43395251Y-149034418D01*
X43387652Y-149034378D01*
X43387650Y-149034378D01*
X43317308Y-149034010D01*
X43226069Y-149033532D01*
X43218688Y-149035304D01*
X43068938Y-149071256D01*
X43068935Y-149071257D01*
X43061559Y-149073028D01*
X42911218Y-149150624D01*
X42905497Y-149155614D01*
X42905495Y-149155616D01*
X42900637Y-149159854D01*
X42783726Y-149261842D01*
X42773252Y-149276745D01*
X42698661Y-149382878D01*
X42686444Y-149400261D01*
X42683682Y-149407344D01*
X42683682Y-149407345D01*
X42682797Y-149409616D01*
X42624988Y-149557889D01*
X42623997Y-149565418D01*
X42604180Y-149715943D01*
X42602905Y-149725626D01*
X42621470Y-149893790D01*
X42624080Y-149900922D01*
X42655645Y-149987176D01*
X42679612Y-150052670D01*
X42683848Y-150058973D01*
X42683848Y-150058974D01*
X42769740Y-150186796D01*
X42769743Y-150186799D01*
X42773974Y-150193096D01*
X42899108Y-150306959D01*
X42990187Y-150356411D01*
X43013260Y-150368938D01*
X43047791Y-150387687D01*
X43211438Y-150430619D01*
X43235644Y-150430999D01*
X43303441Y-150452067D01*
X43322760Y-150467888D01*
X43659183Y-150804311D01*
X43666800Y-150813845D01*
X43667169Y-150813531D01*
X43672984Y-150820364D01*
X43677776Y-150827958D01*
X43711570Y-150857804D01*
X43718116Y-150863585D01*
X43723803Y-150868931D01*
X43735255Y-150880383D01*
X43738846Y-150883074D01*
X43738848Y-150883076D01*
X43743630Y-150886660D01*
X43751473Y-150893045D01*
X43786951Y-150924378D01*
X43795078Y-150928194D01*
X43797534Y-150929807D01*
X43812547Y-150938829D01*
X43815118Y-150940237D01*
X43822296Y-150945616D01*
X43830696Y-150948765D01*
X43830698Y-150948766D01*
X43866640Y-150962239D01*
X43875943Y-150966159D01*
X43918800Y-150986281D01*
X43927669Y-150987662D01*
X43930495Y-150988526D01*
X43947399Y-150992960D01*
X43950275Y-150993592D01*
X43958684Y-150996745D01*
X43967634Y-150997410D01*
X44005906Y-151000254D01*
X44015952Y-151001408D01*
X44024575Y-151002751D01*
X44024578Y-151002751D01*
X44029386Y-151003500D01*
X44044906Y-151003500D01*
X44054243Y-151003846D01*
X44103941Y-151007539D01*
X44112720Y-151005665D01*
X44120978Y-151005102D01*
X44136161Y-151003500D01*
X51033424Y-151003500D01*
X51101545Y-151023502D01*
X51118222Y-151036305D01*
X51154108Y-151068959D01*
X51302791Y-151149687D01*
X51466438Y-151192619D01*
X51554047Y-151193996D01*
X51628004Y-151195158D01*
X51628007Y-151195158D01*
X51635602Y-151195277D01*
X51693723Y-151181965D01*
X51793114Y-151159202D01*
X51793118Y-151159201D01*
X51800517Y-151157506D01*
X51951662Y-151081488D01*
X51957433Y-151076559D01*
X51957436Y-151076557D01*
X52074539Y-150976541D01*
X52074540Y-150976540D01*
X52080311Y-150971611D01*
X52179037Y-150834219D01*
X52187060Y-150814263D01*
X52242141Y-150677243D01*
X52244311Y-150678115D01*
X52270674Y-150632453D01*
X57244501Y-145658626D01*
X57306813Y-145624600D01*
X57377628Y-145629665D01*
X57438177Y-145677445D01*
X57481416Y-145741790D01*
X57481419Y-145741793D01*
X57485654Y-145748096D01*
X57610788Y-145861959D01*
X57677506Y-145898184D01*
X57742691Y-145933576D01*
X57759471Y-145942687D01*
X57923118Y-145985619D01*
X58010727Y-145986996D01*
X58084684Y-145988158D01*
X58084687Y-145988158D01*
X58092282Y-145988277D01*
X58150403Y-145974965D01*
X58249794Y-145952202D01*
X58249798Y-145952201D01*
X58257197Y-145950506D01*
X58408342Y-145874488D01*
X58464308Y-145826689D01*
X58529097Y-145797658D01*
X58546138Y-145796500D01*
X61019484Y-145796500D01*
X61087605Y-145816502D01*
X61134098Y-145870158D01*
X61144202Y-145940432D01*
X61114708Y-146005012D01*
X61077273Y-146034466D01*
X60945218Y-146102624D01*
X60939497Y-146107614D01*
X60939495Y-146107616D01*
X60841331Y-146193250D01*
X60817726Y-146213842D01*
X60813356Y-146220060D01*
X60725418Y-146345184D01*
X60720444Y-146352261D01*
X60717682Y-146359344D01*
X60717682Y-146359345D01*
X60706117Y-146389009D01*
X60658988Y-146509889D01*
X60657428Y-146521741D01*
X60643871Y-146624716D01*
X60636905Y-146677626D01*
X60655470Y-146845790D01*
X60658080Y-146852922D01*
X60694389Y-146952140D01*
X60713612Y-147004670D01*
X60717848Y-147010973D01*
X60717848Y-147010974D01*
X60803740Y-147138796D01*
X60803743Y-147138799D01*
X60807974Y-147145096D01*
X60861435Y-147193742D01*
X60919137Y-147246246D01*
X60933108Y-147258959D01*
X60956027Y-147271403D01*
X61074312Y-147335626D01*
X61081791Y-147339687D01*
X61245438Y-147382619D01*
X61333047Y-147383996D01*
X61407004Y-147385158D01*
X61407007Y-147385158D01*
X61414602Y-147385277D01*
X61472723Y-147371965D01*
X61572114Y-147349202D01*
X61572118Y-147349201D01*
X61579517Y-147347506D01*
X61730662Y-147271488D01*
X61786628Y-147223689D01*
X61851417Y-147194658D01*
X61868458Y-147193500D01*
X64063928Y-147193500D01*
X64076058Y-147194855D01*
X64076097Y-147194373D01*
X64085044Y-147195093D01*
X64093800Y-147197074D01*
X64147508Y-147193742D01*
X64155310Y-147193500D01*
X64171513Y-147193500D01*
X64180429Y-147192223D01*
X64181878Y-147192016D01*
X64191928Y-147190987D01*
X64230216Y-147188611D01*
X64239177Y-147188055D01*
X64247623Y-147185006D01*
X64250514Y-147184407D01*
X64267480Y-147180178D01*
X64270305Y-147179352D01*
X64279187Y-147178080D01*
X64322298Y-147158478D01*
X64331649Y-147154672D01*
X64367735Y-147141645D01*
X64376181Y-147138596D01*
X64383429Y-147133301D01*
X64386027Y-147131920D01*
X64401145Y-147123085D01*
X64403614Y-147121506D01*
X64411782Y-147117792D01*
X64447653Y-147086884D01*
X64455569Y-147080599D01*
X64462615Y-147075452D01*
X64462620Y-147075447D01*
X64466552Y-147072575D01*
X64477527Y-147061600D01*
X64484375Y-147055242D01*
X64515323Y-147028576D01*
X64515324Y-147028575D01*
X64522127Y-147022713D01*
X64527011Y-147015178D01*
X64532451Y-147008942D01*
X64542056Y-146997071D01*
X64878972Y-146660156D01*
X64941284Y-146626131D01*
X64955534Y-146624716D01*
X64955454Y-146623951D01*
X64963004Y-146623158D01*
X64970602Y-146623277D01*
X65028723Y-146609965D01*
X65128114Y-146587202D01*
X65128118Y-146587201D01*
X65135517Y-146585506D01*
X65286662Y-146509488D01*
X65292433Y-146504559D01*
X65292436Y-146504557D01*
X65409539Y-146404541D01*
X65409540Y-146404540D01*
X65415311Y-146399611D01*
X65514037Y-146262219D01*
X65533485Y-146213842D01*
X65551801Y-146168277D01*
X65577141Y-146105243D01*
X65600980Y-145937746D01*
X65601134Y-145923000D01*
X65600182Y-145915127D01*
X65588774Y-145820859D01*
X65580809Y-145755040D01*
X65521006Y-145596778D01*
X65495494Y-145559658D01*
X65429481Y-145463607D01*
X65429479Y-145463605D01*
X65425179Y-145457348D01*
X65419508Y-145452295D01*
X65304531Y-145349854D01*
X65304528Y-145349852D01*
X65298859Y-145344801D01*
X65149339Y-145265634D01*
X65138964Y-145263028D01*
X64992622Y-145226269D01*
X64992618Y-145226269D01*
X64985251Y-145224418D01*
X64977652Y-145224378D01*
X64977650Y-145224378D01*
X64907308Y-145224010D01*
X64816069Y-145223532D01*
X64808688Y-145225304D01*
X64658938Y-145261256D01*
X64658935Y-145261257D01*
X64651559Y-145263028D01*
X64501218Y-145340624D01*
X64495497Y-145345614D01*
X64495495Y-145345616D01*
X64379453Y-145446846D01*
X64373726Y-145451842D01*
X64365082Y-145464141D01*
X64287981Y-145573846D01*
X64276444Y-145590261D01*
X64214988Y-145747889D01*
X64199971Y-145861959D01*
X64199649Y-145864402D01*
X64170927Y-145929329D01*
X64163822Y-145937051D01*
X63961278Y-146139595D01*
X63898966Y-146173621D01*
X63872183Y-146176500D01*
X61869075Y-146176500D01*
X61800954Y-146156498D01*
X61785265Y-146144584D01*
X61742859Y-146106801D01*
X61701216Y-146084752D01*
X61605087Y-146033854D01*
X61554243Y-145984301D01*
X61538262Y-145915127D01*
X61562216Y-145848293D01*
X61618500Y-145805020D01*
X61664046Y-145796500D01*
X62920928Y-145796500D01*
X62933058Y-145797855D01*
X62933097Y-145797373D01*
X62942044Y-145798093D01*
X62950800Y-145800074D01*
X63004508Y-145796742D01*
X63012310Y-145796500D01*
X63028513Y-145796500D01*
X63037429Y-145795223D01*
X63038878Y-145795016D01*
X63048928Y-145793987D01*
X63087216Y-145791611D01*
X63096177Y-145791055D01*
X63104623Y-145788006D01*
X63107514Y-145787407D01*
X63124480Y-145783178D01*
X63127305Y-145782352D01*
X63136187Y-145781080D01*
X63179298Y-145761478D01*
X63188649Y-145757672D01*
X63224735Y-145744645D01*
X63233181Y-145741596D01*
X63240429Y-145736301D01*
X63243027Y-145734920D01*
X63258145Y-145726085D01*
X63260614Y-145724506D01*
X63268782Y-145720792D01*
X63304653Y-145689884D01*
X63312569Y-145683599D01*
X63319615Y-145678452D01*
X63319620Y-145678447D01*
X63323552Y-145675575D01*
X63334527Y-145664600D01*
X63341375Y-145658242D01*
X63372323Y-145631576D01*
X63372324Y-145631575D01*
X63379127Y-145625713D01*
X63384011Y-145618178D01*
X63389458Y-145611934D01*
X63399058Y-145600069D01*
X64499223Y-144499905D01*
X64561535Y-144465879D01*
X64588318Y-144463000D01*
X68368924Y-144463000D01*
X68437045Y-144483002D01*
X68453722Y-144495805D01*
X68489608Y-144528459D01*
X68638291Y-144609187D01*
X68801938Y-144652119D01*
X68889547Y-144653496D01*
X68963504Y-144654658D01*
X68963507Y-144654658D01*
X68971102Y-144654777D01*
X69037918Y-144639474D01*
X69128614Y-144618702D01*
X69128618Y-144618701D01*
X69136017Y-144617006D01*
X69285885Y-144541630D01*
X69355730Y-144528892D01*
X69421374Y-144555936D01*
X69461976Y-144614177D01*
X69468500Y-144654195D01*
X69468500Y-145861577D01*
X69448498Y-145929698D01*
X69431595Y-145950672D01*
X66067672Y-149314595D01*
X66005360Y-149348621D01*
X65978577Y-149351500D01*
X58109936Y-149351500D01*
X58050977Y-149336854D01*
X58044056Y-149333190D01*
X58044053Y-149333189D01*
X58037339Y-149329634D01*
X57962923Y-149310942D01*
X57880622Y-149290269D01*
X57880618Y-149290269D01*
X57873251Y-149288418D01*
X57865652Y-149288378D01*
X57865650Y-149288378D01*
X57795308Y-149288010D01*
X57704069Y-149287532D01*
X57696688Y-149289304D01*
X57546938Y-149325256D01*
X57546935Y-149325257D01*
X57539559Y-149327028D01*
X57389218Y-149404624D01*
X57383497Y-149409614D01*
X57383495Y-149409616D01*
X57299379Y-149482995D01*
X57261726Y-149515842D01*
X57257356Y-149522060D01*
X57226884Y-149565418D01*
X57164444Y-149654261D01*
X57161682Y-149661344D01*
X57161682Y-149661345D01*
X57152695Y-149684396D01*
X57102988Y-149811889D01*
X57101997Y-149819418D01*
X57084859Y-149949595D01*
X57080905Y-149979626D01*
X57099470Y-150147790D01*
X57157612Y-150306670D01*
X57161848Y-150312973D01*
X57161848Y-150312974D01*
X57247740Y-150440796D01*
X57247743Y-150440799D01*
X57251974Y-150447096D01*
X57287708Y-150479611D01*
X57371452Y-150555812D01*
X57377108Y-150560959D01*
X57525791Y-150641687D01*
X57689438Y-150684619D01*
X57777047Y-150685996D01*
X57851004Y-150687158D01*
X57851007Y-150687158D01*
X57858602Y-150687277D01*
X57957061Y-150664727D01*
X58016117Y-150651201D01*
X58016118Y-150651201D01*
X58023517Y-150649506D01*
X58035234Y-150643613D01*
X58050501Y-150635935D01*
X58107115Y-150622500D01*
X66214980Y-150622500D01*
X66226214Y-150623030D01*
X66233719Y-150624708D01*
X66302012Y-150622562D01*
X66305969Y-150622500D01*
X66333983Y-150622500D01*
X66337908Y-150622004D01*
X66337909Y-150622004D01*
X66338004Y-150621992D01*
X66349849Y-150621059D01*
X66379670Y-150620122D01*
X66386282Y-150619914D01*
X66386283Y-150619914D01*
X66394205Y-150619665D01*
X66413749Y-150613987D01*
X66433112Y-150609977D01*
X66445440Y-150608420D01*
X66445442Y-150608420D01*
X66453299Y-150607427D01*
X66460663Y-150604511D01*
X66460668Y-150604510D01*
X66494556Y-150591093D01*
X66505785Y-150587248D01*
X66522465Y-150582402D01*
X66548393Y-150574869D01*
X66555220Y-150570831D01*
X66555223Y-150570830D01*
X66565906Y-150564512D01*
X66583664Y-150555812D01*
X66595215Y-150551239D01*
X66595221Y-150551235D01*
X66602588Y-150548319D01*
X66638491Y-150522234D01*
X66648410Y-150515719D01*
X66679768Y-150497174D01*
X66679772Y-150497171D01*
X66686598Y-150493134D01*
X66700982Y-150478750D01*
X66716016Y-150465909D01*
X66726073Y-150458602D01*
X66732487Y-150453942D01*
X66738151Y-150447096D01*
X66760777Y-150419745D01*
X66768767Y-150410965D01*
X70497483Y-146682250D01*
X70505809Y-146674674D01*
X70512303Y-146670553D01*
X70559086Y-146620734D01*
X70561840Y-146617893D01*
X70581639Y-146598094D01*
X70584063Y-146594969D01*
X70584071Y-146594960D01*
X70584137Y-146594874D01*
X70591845Y-146585849D01*
X70616790Y-146559285D01*
X70622217Y-146553506D01*
X70632023Y-146535669D01*
X70642873Y-146519153D01*
X70655350Y-146503067D01*
X70672976Y-146462334D01*
X70678193Y-146451686D01*
X70695749Y-146419751D01*
X70699569Y-146412803D01*
X70701540Y-146405128D01*
X70701542Y-146405122D01*
X70704631Y-146393089D01*
X70711034Y-146374387D01*
X70719117Y-146355708D01*
X70720357Y-146347882D01*
X70720358Y-146347877D01*
X70726060Y-146311880D01*
X70728466Y-146300260D01*
X70737528Y-146264963D01*
X70737528Y-146264962D01*
X70739500Y-146257282D01*
X70739500Y-146236934D01*
X70741051Y-146217223D01*
X70742995Y-146204949D01*
X70744235Y-146197120D01*
X70740059Y-146152944D01*
X70739500Y-146141086D01*
X70739500Y-140414032D01*
X70740030Y-140402793D01*
X70741709Y-140395281D01*
X70741427Y-140386290D01*
X70739562Y-140326970D01*
X70739500Y-140323012D01*
X70739500Y-140295017D01*
X70738992Y-140290994D01*
X70738059Y-140279152D01*
X70736914Y-140242720D01*
X70736665Y-140234795D01*
X70730987Y-140215251D01*
X70726977Y-140195888D01*
X70725420Y-140183560D01*
X70725420Y-140183558D01*
X70724427Y-140175701D01*
X70721511Y-140168337D01*
X70721510Y-140168332D01*
X70708093Y-140134444D01*
X70704248Y-140123215D01*
X70698723Y-140104200D01*
X70691869Y-140080607D01*
X70687830Y-140073777D01*
X70681512Y-140063094D01*
X70672812Y-140045336D01*
X70668239Y-140033785D01*
X70668235Y-140033779D01*
X70665319Y-140026412D01*
X70639234Y-139990509D01*
X70632719Y-139980590D01*
X70614174Y-139949232D01*
X70614171Y-139949228D01*
X70610134Y-139942402D01*
X70595750Y-139928018D01*
X70582909Y-139912984D01*
X70577161Y-139905072D01*
X70570942Y-139896513D01*
X70536744Y-139868222D01*
X70527965Y-139860233D01*
X67728405Y-137060672D01*
X67694379Y-136998360D01*
X67691500Y-136971577D01*
X67691500Y-132778667D01*
X67700592Y-132731673D01*
X67736141Y-132643243D01*
X67759980Y-132475746D01*
X67760134Y-132461000D01*
X67759487Y-132455648D01*
X67747513Y-132356701D01*
X67739809Y-132293040D01*
X67680006Y-132134778D01*
X67639545Y-132075906D01*
X67588481Y-132001607D01*
X67588479Y-132001605D01*
X67584179Y-131995348D01*
X67578508Y-131990295D01*
X67463531Y-131887854D01*
X67463528Y-131887852D01*
X67457859Y-131882801D01*
X67308339Y-131803634D01*
X67292064Y-131799546D01*
X67151622Y-131764269D01*
X67151618Y-131764269D01*
X67144251Y-131762418D01*
X67136652Y-131762378D01*
X67136650Y-131762378D01*
X67066308Y-131762010D01*
X66975069Y-131761532D01*
X66967688Y-131763304D01*
X66817938Y-131799256D01*
X66817935Y-131799257D01*
X66810559Y-131801028D01*
X66660218Y-131878624D01*
X66654497Y-131883614D01*
X66654495Y-131883616D01*
X66621912Y-131912040D01*
X66532726Y-131989842D01*
X66520066Y-132007856D01*
X66458999Y-132094746D01*
X66435444Y-132128261D01*
X66373988Y-132285889D01*
X66369400Y-132320739D01*
X66354088Y-132437047D01*
X66351905Y-132453626D01*
X66370470Y-132621790D01*
X66373080Y-132628922D01*
X66412826Y-132737533D01*
X66420500Y-132780834D01*
X66420500Y-137207980D01*
X66419970Y-137219214D01*
X66418292Y-137226719D01*
X66419939Y-137279127D01*
X66420438Y-137295012D01*
X66420500Y-137298969D01*
X66420500Y-137326983D01*
X66420996Y-137330908D01*
X66420996Y-137330909D01*
X66421008Y-137331004D01*
X66421941Y-137342849D01*
X66423335Y-137387205D01*
X66427567Y-137401771D01*
X66429013Y-137406748D01*
X66433023Y-137426112D01*
X66433887Y-137432948D01*
X66435573Y-137446299D01*
X66438489Y-137453663D01*
X66438490Y-137453668D01*
X66451907Y-137487556D01*
X66455752Y-137498785D01*
X66459898Y-137513054D01*
X66468131Y-137541393D01*
X66472169Y-137548220D01*
X66472170Y-137548223D01*
X66478488Y-137558906D01*
X66487188Y-137576664D01*
X66491761Y-137588215D01*
X66491765Y-137588221D01*
X66494681Y-137595588D01*
X66499339Y-137601999D01*
X66499340Y-137602001D01*
X66520764Y-137631488D01*
X66527281Y-137641410D01*
X66545826Y-137672768D01*
X66545829Y-137672772D01*
X66549866Y-137679598D01*
X66564250Y-137693982D01*
X66577091Y-137709016D01*
X66589058Y-137725487D01*
X66595166Y-137730540D01*
X66623255Y-137753777D01*
X66632035Y-137761767D01*
X69431595Y-140561328D01*
X69465621Y-140623640D01*
X69468500Y-140650423D01*
X69468500Y-143256572D01*
X69448498Y-143324693D01*
X69394842Y-143371186D01*
X69324568Y-143381290D01*
X69283541Y-143367926D01*
X69231184Y-143340204D01*
X69149839Y-143297134D01*
X69139464Y-143294528D01*
X68993122Y-143257769D01*
X68993118Y-143257769D01*
X68985751Y-143255918D01*
X68978152Y-143255878D01*
X68978150Y-143255878D01*
X68907808Y-143255510D01*
X68816569Y-143255032D01*
X68809188Y-143256804D01*
X68659438Y-143292756D01*
X68659435Y-143292757D01*
X68652059Y-143294528D01*
X68501718Y-143372124D01*
X68495997Y-143377114D01*
X68495995Y-143377116D01*
X68452627Y-143414949D01*
X68388145Y-143444657D01*
X68369798Y-143446000D01*
X64396572Y-143446000D01*
X64384442Y-143444645D01*
X64384403Y-143445127D01*
X64375456Y-143444407D01*
X64366700Y-143442426D01*
X64323163Y-143445127D01*
X64312992Y-143445758D01*
X64305190Y-143446000D01*
X64288987Y-143446000D01*
X64280071Y-143447277D01*
X64278622Y-143447484D01*
X64268572Y-143448513D01*
X64230715Y-143450862D01*
X64221323Y-143451445D01*
X64212877Y-143454494D01*
X64209986Y-143455093D01*
X64193020Y-143459322D01*
X64190195Y-143460148D01*
X64181313Y-143461420D01*
X64138202Y-143481022D01*
X64128853Y-143484827D01*
X64084319Y-143500904D01*
X64077071Y-143506199D01*
X64074473Y-143507580D01*
X64059355Y-143516415D01*
X64056886Y-143517994D01*
X64048718Y-143521708D01*
X64039458Y-143529687D01*
X64012848Y-143552615D01*
X64004931Y-143558901D01*
X63997885Y-143564048D01*
X63997880Y-143564053D01*
X63993948Y-143566925D01*
X63982973Y-143577900D01*
X63976126Y-143584258D01*
X63938373Y-143616787D01*
X63933489Y-143624322D01*
X63928042Y-143630566D01*
X63918442Y-143642431D01*
X62818278Y-144742595D01*
X62755966Y-144776621D01*
X62729183Y-144779500D01*
X58546755Y-144779500D01*
X58478634Y-144759498D01*
X58462945Y-144747584D01*
X58420539Y-144709801D01*
X58413825Y-144706246D01*
X58409575Y-144703292D01*
X58365055Y-144647988D01*
X58357501Y-144577395D01*
X58392393Y-144510734D01*
X60253304Y-142649823D01*
X60262844Y-142642200D01*
X60262530Y-142641832D01*
X60269366Y-142636014D01*
X60276958Y-142631224D01*
X60284605Y-142622566D01*
X60312593Y-142590875D01*
X60317939Y-142585188D01*
X60329382Y-142573745D01*
X60335659Y-142565370D01*
X60342033Y-142557541D01*
X60373378Y-142522049D01*
X60377192Y-142513926D01*
X60378826Y-142511438D01*
X60387814Y-142496477D01*
X60389229Y-142493892D01*
X60394616Y-142486705D01*
X60411241Y-142442357D01*
X60415168Y-142433040D01*
X60416323Y-142430581D01*
X60435281Y-142390200D01*
X60436662Y-142381331D01*
X60437528Y-142378498D01*
X60441958Y-142361611D01*
X60442592Y-142358726D01*
X60445745Y-142350316D01*
X60448110Y-142318488D01*
X60449254Y-142303094D01*
X60450408Y-142293048D01*
X60451751Y-142284425D01*
X60451751Y-142284422D01*
X60452500Y-142279614D01*
X60452500Y-142264094D01*
X60452846Y-142254757D01*
X60455539Y-142218510D01*
X60456539Y-142205059D01*
X60454665Y-142196280D01*
X60454102Y-142188022D01*
X60452500Y-142172839D01*
X60452500Y-139087840D01*
X60476178Y-139014314D01*
X60556603Y-138902391D01*
X60556606Y-138902385D01*
X60561037Y-138896219D01*
X60566362Y-138882974D01*
X60612520Y-138768151D01*
X60624141Y-138739243D01*
X60647980Y-138571746D01*
X60648134Y-138557000D01*
X60646331Y-138542095D01*
X60636299Y-138459202D01*
X60627809Y-138389040D01*
X60568006Y-138230778D01*
X60505881Y-138140385D01*
X60476481Y-138097607D01*
X60476479Y-138097605D01*
X60472179Y-138091348D01*
X60466508Y-138086295D01*
X60351531Y-137983854D01*
X60351528Y-137983852D01*
X60345859Y-137978801D01*
X60196339Y-137899634D01*
X60185964Y-137897028D01*
X60039622Y-137860269D01*
X60039618Y-137860269D01*
X60032251Y-137858418D01*
X60024652Y-137858378D01*
X60024650Y-137858378D01*
X59954308Y-137858010D01*
X59863069Y-137857532D01*
X59855688Y-137859304D01*
X59705938Y-137895256D01*
X59705935Y-137895257D01*
X59698559Y-137897028D01*
X59548218Y-137974624D01*
X59542497Y-137979614D01*
X59542495Y-137979616D01*
X59541905Y-137980131D01*
X59420726Y-138085842D01*
X59416356Y-138092060D01*
X59412564Y-138097456D01*
X59357031Y-138141690D01*
X59286399Y-138148878D01*
X59223094Y-138116739D01*
X59211546Y-138103271D01*
X59211506Y-138103307D01*
X59206480Y-138097606D01*
X59202179Y-138091348D01*
X59196508Y-138086295D01*
X59081531Y-137983854D01*
X59081528Y-137983852D01*
X59075859Y-137978801D01*
X58926339Y-137899634D01*
X58915964Y-137897028D01*
X58769622Y-137860269D01*
X58769618Y-137860269D01*
X58762251Y-137858418D01*
X58754652Y-137858378D01*
X58754650Y-137858378D01*
X58684308Y-137858010D01*
X58593069Y-137857532D01*
X58585688Y-137859304D01*
X58435938Y-137895256D01*
X58435935Y-137895257D01*
X58428559Y-137897028D01*
X58278218Y-137974624D01*
X58272497Y-137979614D01*
X58272495Y-137979616D01*
X58271905Y-137980131D01*
X58150726Y-138085842D01*
X58138477Y-138103271D01*
X58065446Y-138207184D01*
X58053444Y-138224261D01*
X57991988Y-138381889D01*
X57990997Y-138389418D01*
X57981810Y-138459202D01*
X57969905Y-138549626D01*
X57988470Y-138717790D01*
X57991080Y-138724922D01*
X58038170Y-138853600D01*
X58046612Y-138876670D01*
X58050848Y-138882973D01*
X58050848Y-138882974D01*
X58140974Y-139017096D01*
X58139250Y-139018254D01*
X58164252Y-139073285D01*
X58165500Y-139090973D01*
X58165500Y-142231183D01*
X58145498Y-142299304D01*
X58128595Y-142320278D01*
X56310451Y-144138422D01*
X56310447Y-144138425D01*
X54657262Y-145791611D01*
X53039278Y-147409595D01*
X52976966Y-147443621D01*
X52950183Y-147446500D01*
X52443262Y-147446500D01*
X52375141Y-147426498D01*
X52328648Y-147372842D01*
X52318544Y-147302568D01*
X52326355Y-147273504D01*
X52357971Y-147194855D01*
X52382281Y-147134383D01*
X52406120Y-146966886D01*
X52406274Y-146952140D01*
X52385949Y-146784180D01*
X52326146Y-146625918D01*
X52271605Y-146546560D01*
X52234621Y-146492747D01*
X52234619Y-146492745D01*
X52230319Y-146486488D01*
X52224648Y-146481435D01*
X52109671Y-146378994D01*
X52109668Y-146378992D01*
X52103999Y-146373941D01*
X51954479Y-146294774D01*
X51944104Y-146292168D01*
X51797762Y-146255409D01*
X51797758Y-146255409D01*
X51790391Y-146253558D01*
X51782792Y-146253518D01*
X51782790Y-146253518D01*
X51712448Y-146253150D01*
X51621209Y-146252672D01*
X51613828Y-146254444D01*
X51464078Y-146290396D01*
X51464075Y-146290397D01*
X51456699Y-146292168D01*
X51306358Y-146369764D01*
X51300637Y-146374754D01*
X51300635Y-146374756D01*
X51257267Y-146412589D01*
X51192785Y-146442297D01*
X51174438Y-146443640D01*
X50986482Y-146443640D01*
X50918361Y-146423638D01*
X50871868Y-146369982D01*
X50861764Y-146299708D01*
X50891258Y-146235128D01*
X50897371Y-146228561D01*
X51855239Y-145270694D01*
X51855242Y-145270690D01*
X51920756Y-145205176D01*
X51953237Y-145181706D01*
X51994409Y-145160999D01*
X52090862Y-145112488D01*
X52096633Y-145107559D01*
X52096636Y-145107557D01*
X52213739Y-145007541D01*
X52213740Y-145007540D01*
X52219511Y-145002611D01*
X52318237Y-144865219D01*
X52347303Y-144792916D01*
X52375115Y-144750818D01*
X56505102Y-140620831D01*
X56537583Y-140597361D01*
X56643878Y-140543900D01*
X56650662Y-140540488D01*
X56656433Y-140535559D01*
X56656436Y-140535557D01*
X56773539Y-140435541D01*
X56773540Y-140435540D01*
X56779311Y-140430611D01*
X56878037Y-140293219D01*
X56898338Y-140242720D01*
X56904584Y-140227181D01*
X56941141Y-140136243D01*
X56964980Y-139968746D01*
X56965134Y-139954000D01*
X56963657Y-139941790D01*
X56949401Y-139823985D01*
X56944809Y-139786040D01*
X56885006Y-139627778D01*
X56872575Y-139609691D01*
X56793481Y-139494607D01*
X56793479Y-139494605D01*
X56789179Y-139488348D01*
X56783508Y-139483295D01*
X56668531Y-139380854D01*
X56668528Y-139380852D01*
X56662859Y-139375801D01*
X56653116Y-139370642D01*
X56568233Y-139325699D01*
X56513339Y-139296634D01*
X56496423Y-139292385D01*
X56356622Y-139257269D01*
X56356618Y-139257269D01*
X56349251Y-139255418D01*
X56341652Y-139255378D01*
X56341650Y-139255378D01*
X56271308Y-139255010D01*
X56180069Y-139254532D01*
X56172688Y-139256304D01*
X56022938Y-139292256D01*
X56022935Y-139292257D01*
X56015559Y-139294028D01*
X55865218Y-139371624D01*
X55835327Y-139397699D01*
X55770848Y-139427406D01*
X55700540Y-139417537D01*
X55646730Y-139371223D01*
X55626500Y-139302749D01*
X55626500Y-135826667D01*
X55635592Y-135779673D01*
X55671141Y-135691243D01*
X55694980Y-135523746D01*
X55695134Y-135509000D01*
X55693331Y-135494095D01*
X55684007Y-135417049D01*
X55674809Y-135341040D01*
X55615006Y-135182778D01*
X55578041Y-135128993D01*
X55523481Y-135049607D01*
X55523479Y-135049605D01*
X55519179Y-135043348D01*
X55513508Y-135038295D01*
X55398531Y-134935854D01*
X55398528Y-134935852D01*
X55392859Y-134930801D01*
X55243339Y-134851634D01*
X55232964Y-134849028D01*
X55086622Y-134812269D01*
X55086618Y-134812269D01*
X55079251Y-134810418D01*
X55071652Y-134810378D01*
X55071650Y-134810378D01*
X55001308Y-134810010D01*
X54910069Y-134809532D01*
X54902688Y-134811304D01*
X54752938Y-134847256D01*
X54752935Y-134847257D01*
X54745559Y-134849028D01*
X54595218Y-134926624D01*
X54589497Y-134931614D01*
X54589495Y-134931616D01*
X54584637Y-134935854D01*
X54467726Y-135037842D01*
X54459427Y-135049651D01*
X54396054Y-135139822D01*
X54370444Y-135176261D01*
X54367682Y-135183344D01*
X54367682Y-135183345D01*
X54361013Y-135200450D01*
X54308988Y-135333889D01*
X54305560Y-135359928D01*
X54294472Y-135444152D01*
X54286905Y-135501626D01*
X54305470Y-135669790D01*
X54315740Y-135697854D01*
X54347826Y-135785533D01*
X54355500Y-135828834D01*
X54355500Y-139257578D01*
X54335498Y-139325699D01*
X54318595Y-139346673D01*
X50573672Y-143091595D01*
X50511360Y-143125621D01*
X50484577Y-143128500D01*
X45992287Y-143128500D01*
X45924166Y-143108498D01*
X45877673Y-143054842D01*
X45867569Y-142984568D01*
X45897063Y-142919988D01*
X45910457Y-142906689D01*
X45978536Y-142848544D01*
X45978539Y-142848541D01*
X45984311Y-142843611D01*
X46083037Y-142706219D01*
X46088362Y-142692974D01*
X46120351Y-142613397D01*
X46146141Y-142549243D01*
X46163990Y-142423831D01*
X46193391Y-142359208D01*
X46199638Y-142352489D01*
X46231850Y-142320278D01*
X46283310Y-142268818D01*
X46292844Y-142261199D01*
X46292531Y-142260831D01*
X46299364Y-142255016D01*
X46306958Y-142250224D01*
X46342585Y-142209883D01*
X46347931Y-142204197D01*
X46359382Y-142192746D01*
X46365662Y-142184368D01*
X46372041Y-142176532D01*
X46375303Y-142172839D01*
X46403378Y-142141049D01*
X46407192Y-142132926D01*
X46408812Y-142130459D01*
X46417816Y-142115475D01*
X46419234Y-142112884D01*
X46424615Y-142105705D01*
X46441236Y-142061369D01*
X46445155Y-142052068D01*
X46465281Y-142009200D01*
X46466663Y-142000328D01*
X46467524Y-141997510D01*
X46471954Y-141980628D01*
X46472593Y-141977721D01*
X46475744Y-141969316D01*
X46479252Y-141922111D01*
X46480406Y-141912063D01*
X46481750Y-141903429D01*
X46482500Y-141898614D01*
X46482500Y-141883077D01*
X46482847Y-141873739D01*
X46485874Y-141833010D01*
X46485874Y-141833009D01*
X46486539Y-141824059D01*
X46484666Y-141815284D01*
X46484103Y-141807027D01*
X46482500Y-141791838D01*
X46482500Y-141179692D01*
X47526580Y-141179692D01*
X47533635Y-141189665D01*
X47567534Y-141218008D01*
X47574471Y-141223048D01*
X47801893Y-141365710D01*
X47809444Y-141369759D01*
X48054135Y-141480240D01*
X48062166Y-141483227D01*
X48319585Y-141559479D01*
X48327936Y-141561346D01*
X48593327Y-141601956D01*
X48601861Y-141602672D01*
X48870304Y-141606890D01*
X48878855Y-141606441D01*
X49145391Y-141574187D01*
X49153791Y-141572585D01*
X49413497Y-141504452D01*
X49421599Y-141501725D01*
X49669650Y-141398979D01*
X49677312Y-141395176D01*
X49909124Y-141259716D01*
X49916189Y-141254915D01*
X49999751Y-141189393D01*
X50008220Y-141177536D01*
X50001703Y-141165913D01*
X49225312Y-140389522D01*
X49211368Y-140381908D01*
X49209535Y-140382039D01*
X49202920Y-140386290D01*
X48857095Y-140732115D01*
X48794783Y-140766141D01*
X48723968Y-140761076D01*
X48678905Y-140732115D01*
X48336312Y-140389522D01*
X48322368Y-140381908D01*
X48320535Y-140382039D01*
X48313920Y-140386290D01*
X47533872Y-141166338D01*
X47526580Y-141179692D01*
X46482500Y-141179692D01*
X46482500Y-139609691D01*
X46497849Y-139557416D01*
X46718614Y-139557416D01*
X46729396Y-139574193D01*
X46734291Y-139602438D01*
X46747065Y-139823985D01*
X46748138Y-139832484D01*
X46799829Y-140095948D01*
X46802040Y-140104200D01*
X46889008Y-140358216D01*
X46892323Y-140366101D01*
X47012958Y-140605957D01*
X47017313Y-140613321D01*
X47150089Y-140806510D01*
X47160343Y-140814853D01*
X47174082Y-140807708D01*
X47951478Y-140030312D01*
X47957856Y-140018632D01*
X48687908Y-140018632D01*
X48688039Y-140020465D01*
X48692290Y-140027080D01*
X48755188Y-140089978D01*
X48769132Y-140097592D01*
X48770965Y-140097461D01*
X48777580Y-140093210D01*
X48840478Y-140030312D01*
X48846856Y-140018632D01*
X49576908Y-140018632D01*
X49577039Y-140020465D01*
X49581290Y-140027080D01*
X50360898Y-140806688D01*
X50373107Y-140813355D01*
X50384607Y-140804665D01*
X50485142Y-140667803D01*
X50489729Y-140660575D01*
X50617835Y-140424635D01*
X50621403Y-140416841D01*
X50716301Y-140165703D01*
X50718778Y-140157497D01*
X50778714Y-139895802D01*
X50780054Y-139887342D01*
X50804081Y-139618119D01*
X50804327Y-139613180D01*
X50804722Y-139575484D01*
X50804579Y-139570520D01*
X50786196Y-139300859D01*
X50785035Y-139292385D01*
X50730590Y-139029484D01*
X50728286Y-139021230D01*
X50638666Y-138768151D01*
X50635270Y-138760303D01*
X50512126Y-138521717D01*
X50507698Y-138514405D01*
X50385258Y-138340190D01*
X50374736Y-138331810D01*
X50361348Y-138338862D01*
X49584522Y-139115688D01*
X49576908Y-139129632D01*
X49577039Y-139131465D01*
X49581290Y-139138080D01*
X49927115Y-139483905D01*
X49961141Y-139546217D01*
X49956076Y-139617032D01*
X49927115Y-139662095D01*
X49584522Y-140004688D01*
X49576908Y-140018632D01*
X48846856Y-140018632D01*
X48848092Y-140016368D01*
X48847961Y-140014535D01*
X48843710Y-140007920D01*
X48780812Y-139945022D01*
X48766868Y-139937408D01*
X48765035Y-139937539D01*
X48758420Y-139941790D01*
X48695522Y-140004688D01*
X48687908Y-140018632D01*
X47957856Y-140018632D01*
X47959092Y-140016368D01*
X47958961Y-140014535D01*
X47954710Y-140007920D01*
X47608885Y-139662095D01*
X47574859Y-139599783D01*
X47576694Y-139574132D01*
X48243408Y-139574132D01*
X48243539Y-139575965D01*
X48247790Y-139582580D01*
X48310688Y-139645478D01*
X48324632Y-139653092D01*
X48326465Y-139652961D01*
X48333080Y-139648710D01*
X48395978Y-139585812D01*
X48402356Y-139574132D01*
X49132408Y-139574132D01*
X49132539Y-139575965D01*
X49136790Y-139582580D01*
X49199688Y-139645478D01*
X49213632Y-139653092D01*
X49215465Y-139652961D01*
X49222080Y-139648710D01*
X49284978Y-139585812D01*
X49292592Y-139571868D01*
X49292461Y-139570035D01*
X49288210Y-139563420D01*
X49225312Y-139500522D01*
X49211368Y-139492908D01*
X49209535Y-139493039D01*
X49202920Y-139497290D01*
X49140022Y-139560188D01*
X49132408Y-139574132D01*
X48402356Y-139574132D01*
X48403592Y-139571868D01*
X48403461Y-139570035D01*
X48399210Y-139563420D01*
X48336312Y-139500522D01*
X48322368Y-139492908D01*
X48320535Y-139493039D01*
X48313920Y-139497290D01*
X48251022Y-139560188D01*
X48243408Y-139574132D01*
X47576694Y-139574132D01*
X47579924Y-139528968D01*
X47608885Y-139483905D01*
X47951478Y-139141312D01*
X47957856Y-139129632D01*
X48687908Y-139129632D01*
X48688039Y-139131465D01*
X48692290Y-139138080D01*
X48755188Y-139200978D01*
X48769132Y-139208592D01*
X48770965Y-139208461D01*
X48777580Y-139204210D01*
X48840478Y-139141312D01*
X48848092Y-139127368D01*
X48847961Y-139125535D01*
X48843710Y-139118920D01*
X48780812Y-139056022D01*
X48766868Y-139048408D01*
X48765035Y-139048539D01*
X48758420Y-139052790D01*
X48695522Y-139115688D01*
X48687908Y-139129632D01*
X47957856Y-139129632D01*
X47959092Y-139127368D01*
X47958961Y-139125535D01*
X47954710Y-139118920D01*
X47174617Y-138338827D01*
X47162607Y-138332268D01*
X47150868Y-138341236D01*
X47039491Y-138496234D01*
X47034969Y-138503528D01*
X46909349Y-138740783D01*
X46905863Y-138748611D01*
X46813599Y-139000734D01*
X46811210Y-139008957D01*
X46754015Y-139271280D01*
X46752766Y-139279736D01*
X46734112Y-139516756D01*
X46718614Y-139557416D01*
X46497849Y-139557416D01*
X46498051Y-139556729D01*
X46485191Y-139532773D01*
X46482500Y-139506870D01*
X46482500Y-137968427D01*
X47527510Y-137968427D01*
X47533906Y-137979696D01*
X48310688Y-138756478D01*
X48324632Y-138764092D01*
X48326465Y-138763961D01*
X48333080Y-138759710D01*
X48678905Y-138413885D01*
X48741217Y-138379859D01*
X48812032Y-138384924D01*
X48857095Y-138413885D01*
X49199688Y-138756478D01*
X49213632Y-138764092D01*
X49215465Y-138763961D01*
X49222080Y-138759710D01*
X50001659Y-137980131D01*
X50008850Y-137966962D01*
X50001527Y-137956725D01*
X49951168Y-137915505D01*
X49944196Y-137910551D01*
X49715279Y-137770271D01*
X49707681Y-137766299D01*
X49461852Y-137658387D01*
X49453798Y-137655488D01*
X49195594Y-137581937D01*
X49187216Y-137580155D01*
X48921419Y-137542327D01*
X48912872Y-137541700D01*
X48644398Y-137540293D01*
X48635864Y-137540830D01*
X48369678Y-137575875D01*
X48361280Y-137577568D01*
X48102327Y-137648409D01*
X48094232Y-137651228D01*
X47847278Y-137756562D01*
X47839655Y-137760447D01*
X47609285Y-137898321D01*
X47602247Y-137903212D01*
X47535980Y-137956302D01*
X47527510Y-137968427D01*
X46482500Y-137968427D01*
X46482500Y-136787817D01*
X46502502Y-136719696D01*
X46519405Y-136698722D01*
X46590970Y-136627157D01*
X46653282Y-136593131D01*
X46667534Y-136591715D01*
X46667454Y-136590951D01*
X46675004Y-136590158D01*
X46682602Y-136590277D01*
X46761678Y-136572166D01*
X46840114Y-136554202D01*
X46840118Y-136554201D01*
X46847517Y-136552506D01*
X46998662Y-136476488D01*
X47004433Y-136471559D01*
X47004436Y-136471557D01*
X47121539Y-136371541D01*
X47121540Y-136371540D01*
X47127311Y-136366611D01*
X47226037Y-136229219D01*
X47232144Y-136214029D01*
X47270206Y-136119345D01*
X47289141Y-136072243D01*
X47312980Y-135904746D01*
X47313134Y-135890000D01*
X47311744Y-135878508D01*
X47296489Y-135752454D01*
X47292809Y-135722040D01*
X47233006Y-135563778D01*
X47192545Y-135504906D01*
X47141481Y-135430607D01*
X47141479Y-135430605D01*
X47137179Y-135424348D01*
X47095884Y-135387555D01*
X47046774Y-135343800D01*
X47009218Y-135283550D01*
X47010198Y-135212560D01*
X47041498Y-135160629D01*
X47882846Y-134319282D01*
X48823308Y-133378820D01*
X48832845Y-133371200D01*
X48832531Y-133370831D01*
X48839364Y-133365016D01*
X48846958Y-133360224D01*
X48882585Y-133319883D01*
X48887931Y-133314197D01*
X48899383Y-133302745D01*
X48905660Y-133294370D01*
X48912045Y-133286527D01*
X48937436Y-133257777D01*
X48943378Y-133251049D01*
X48947194Y-133242922D01*
X48948807Y-133240466D01*
X48957823Y-133225463D01*
X48959234Y-133222885D01*
X48964616Y-133215704D01*
X48964645Y-133215626D01*
X54159905Y-133215626D01*
X54178470Y-133383790D01*
X54181080Y-133390922D01*
X54220788Y-133499428D01*
X54236612Y-133542670D01*
X54240848Y-133548973D01*
X54240848Y-133548974D01*
X54326740Y-133676796D01*
X54326743Y-133676799D01*
X54330974Y-133683096D01*
X54336588Y-133688204D01*
X54434942Y-133777699D01*
X54456108Y-133796959D01*
X54509698Y-133826056D01*
X54594960Y-133872349D01*
X54604791Y-133877687D01*
X54768438Y-133920619D01*
X54856047Y-133921996D01*
X54930004Y-133923158D01*
X54930007Y-133923158D01*
X54937602Y-133923277D01*
X55059296Y-133895405D01*
X55095117Y-133887201D01*
X55095118Y-133887201D01*
X55102517Y-133885506D01*
X55116443Y-133878502D01*
X55129501Y-133871935D01*
X55186115Y-133858500D01*
X57850578Y-133858500D01*
X57918699Y-133878502D01*
X57939673Y-133895405D01*
X59244717Y-135200450D01*
X60539049Y-136494782D01*
X60568280Y-136540575D01*
X60579841Y-136572166D01*
X60586612Y-136590670D01*
X60590848Y-136596973D01*
X60590848Y-136596974D01*
X60676740Y-136724796D01*
X60676743Y-136724799D01*
X60680974Y-136731096D01*
X60806108Y-136844959D01*
X60812783Y-136848583D01*
X60938313Y-136916740D01*
X60954791Y-136925687D01*
X60956761Y-136926204D01*
X60996721Y-136952453D01*
X61811595Y-137767327D01*
X61845621Y-137829639D01*
X61848500Y-137856422D01*
X61848500Y-142810898D01*
X61839893Y-142856667D01*
X61801988Y-142953889D01*
X61800997Y-142961418D01*
X61782792Y-143099699D01*
X61779905Y-143121626D01*
X61798470Y-143289790D01*
X61801080Y-143296922D01*
X61849580Y-143429453D01*
X61856612Y-143448670D01*
X61860848Y-143454973D01*
X61860848Y-143454974D01*
X61946740Y-143582796D01*
X61946743Y-143582799D01*
X61950974Y-143589096D01*
X62076108Y-143702959D01*
X62224791Y-143783687D01*
X62388438Y-143826619D01*
X62476047Y-143827996D01*
X62550004Y-143829158D01*
X62550007Y-143829158D01*
X62557602Y-143829277D01*
X62615723Y-143815965D01*
X62715114Y-143793202D01*
X62715118Y-143793201D01*
X62722517Y-143791506D01*
X62873662Y-143715488D01*
X62879433Y-143710559D01*
X62879436Y-143710557D01*
X62996539Y-143610541D01*
X62996540Y-143610540D01*
X63002311Y-143605611D01*
X63101037Y-143468219D01*
X63104952Y-143458482D01*
X63141067Y-143368641D01*
X63164141Y-143311243D01*
X63187980Y-143143746D01*
X63188134Y-143129000D01*
X63186331Y-143114095D01*
X63170656Y-142984568D01*
X63167809Y-142961040D01*
X63127634Y-142854720D01*
X63119500Y-142810184D01*
X63119500Y-137620020D01*
X63120030Y-137608786D01*
X63121708Y-137601281D01*
X63119562Y-137532988D01*
X63119500Y-137529031D01*
X63119500Y-137501017D01*
X63118992Y-137496996D01*
X63118058Y-137485144D01*
X63116914Y-137448718D01*
X63116914Y-137448717D01*
X63116665Y-137440795D01*
X63110987Y-137421251D01*
X63106977Y-137401888D01*
X63105420Y-137389560D01*
X63105420Y-137389558D01*
X63104427Y-137381701D01*
X63101511Y-137374337D01*
X63101510Y-137374332D01*
X63088093Y-137340444D01*
X63084248Y-137329215D01*
X63074884Y-137296985D01*
X63071869Y-137286607D01*
X63061510Y-137269091D01*
X63052813Y-137251341D01*
X63045319Y-137232412D01*
X63040130Y-137225269D01*
X63019241Y-137196519D01*
X63012722Y-137186595D01*
X62994170Y-137155224D01*
X62994166Y-137155219D01*
X62990134Y-137148401D01*
X62975747Y-137134014D01*
X62962906Y-137118980D01*
X62955602Y-137108927D01*
X62950942Y-137102513D01*
X62916750Y-137074227D01*
X62907971Y-137066238D01*
X61888467Y-136046734D01*
X61859696Y-136002177D01*
X61840692Y-135951885D01*
X61840690Y-135951882D01*
X61838006Y-135944778D01*
X61803191Y-135894121D01*
X61746481Y-135811607D01*
X61746479Y-135811605D01*
X61742179Y-135805348D01*
X61736508Y-135800295D01*
X61621531Y-135697854D01*
X61621528Y-135697852D01*
X61615859Y-135692801D01*
X61558142Y-135662241D01*
X61466339Y-135613634D01*
X61466872Y-135612627D01*
X61431178Y-135589446D01*
X60056677Y-134214944D01*
X58671250Y-132829517D01*
X58663674Y-132821191D01*
X58659553Y-132814697D01*
X58609734Y-132767914D01*
X58606893Y-132765160D01*
X58587094Y-132745361D01*
X58583969Y-132742937D01*
X58583960Y-132742929D01*
X58583874Y-132742863D01*
X58574849Y-132735155D01*
X58548285Y-132710210D01*
X58542506Y-132704783D01*
X58524669Y-132694977D01*
X58508153Y-132684127D01*
X58492067Y-132671650D01*
X58451334Y-132654024D01*
X58440686Y-132648807D01*
X58416882Y-132635721D01*
X58401803Y-132627431D01*
X58394128Y-132625460D01*
X58394122Y-132625458D01*
X58382089Y-132622369D01*
X58363387Y-132615966D01*
X58344708Y-132607883D01*
X58310872Y-132602524D01*
X58300873Y-132600940D01*
X58289260Y-132598535D01*
X58246282Y-132587500D01*
X58225935Y-132587500D01*
X58206224Y-132585949D01*
X58193950Y-132584005D01*
X58186121Y-132582765D01*
X58178229Y-132583511D01*
X58141944Y-132586941D01*
X58130086Y-132587500D01*
X55188936Y-132587500D01*
X55129977Y-132572854D01*
X55123056Y-132569190D01*
X55123053Y-132569189D01*
X55116339Y-132565634D01*
X55038941Y-132546193D01*
X54959622Y-132526269D01*
X54959618Y-132526269D01*
X54952251Y-132524418D01*
X54944652Y-132524378D01*
X54944650Y-132524378D01*
X54874308Y-132524010D01*
X54783069Y-132523532D01*
X54775688Y-132525304D01*
X54625938Y-132561256D01*
X54625935Y-132561257D01*
X54618559Y-132563028D01*
X54468218Y-132640624D01*
X54462497Y-132645614D01*
X54462495Y-132645616D01*
X54363850Y-132731670D01*
X54340726Y-132751842D01*
X54336356Y-132758060D01*
X54249262Y-132881983D01*
X54243444Y-132890261D01*
X54181988Y-133047889D01*
X54177851Y-133079315D01*
X54161558Y-133203071D01*
X54159905Y-133215626D01*
X48964645Y-133215626D01*
X48981239Y-133171363D01*
X48985164Y-133162048D01*
X49005281Y-133119200D01*
X49006663Y-133110325D01*
X49007527Y-133107498D01*
X49011955Y-133090621D01*
X49012591Y-133087728D01*
X49015745Y-133079315D01*
X49019256Y-133032075D01*
X49020407Y-133022056D01*
X49021752Y-133013420D01*
X49021752Y-133013416D01*
X49022500Y-133008614D01*
X49022500Y-132993090D01*
X49022847Y-132983752D01*
X49025875Y-132943010D01*
X49025875Y-132943009D01*
X49026540Y-132934059D01*
X49024666Y-132925282D01*
X49024104Y-132917031D01*
X49022500Y-132901834D01*
X49022500Y-132610840D01*
X49046178Y-132537314D01*
X49126603Y-132425391D01*
X49126606Y-132425385D01*
X49131037Y-132419219D01*
X49135421Y-132408315D01*
X49160314Y-132346389D01*
X49194141Y-132262243D01*
X49217980Y-132094746D01*
X49218134Y-132080000D01*
X49216331Y-132065095D01*
X49198721Y-131919580D01*
X49197809Y-131912040D01*
X49138006Y-131753778D01*
X49108751Y-131711212D01*
X49046481Y-131620607D01*
X49046479Y-131620605D01*
X49042179Y-131614348D01*
X49036508Y-131609295D01*
X48921531Y-131506854D01*
X48921528Y-131506852D01*
X48915859Y-131501801D01*
X48766339Y-131422634D01*
X48755964Y-131420028D01*
X48609622Y-131383269D01*
X48609618Y-131383269D01*
X48602251Y-131381418D01*
X48594652Y-131381378D01*
X48594650Y-131381378D01*
X48524308Y-131381010D01*
X48433069Y-131380532D01*
X48425688Y-131382304D01*
X48275938Y-131418256D01*
X48275935Y-131418257D01*
X48268559Y-131420028D01*
X48261814Y-131423509D01*
X48261812Y-131423510D01*
X48126494Y-131493352D01*
X48056787Y-131506821D01*
X48009746Y-131492740D01*
X47884052Y-131426188D01*
X47884050Y-131426187D01*
X47877339Y-131422634D01*
X47866964Y-131420028D01*
X47720622Y-131383269D01*
X47720618Y-131383269D01*
X47713251Y-131381418D01*
X47705652Y-131381378D01*
X47705650Y-131381378D01*
X47635308Y-131381010D01*
X47544069Y-131380532D01*
X47536688Y-131382304D01*
X47386938Y-131418256D01*
X47386935Y-131418257D01*
X47379559Y-131420028D01*
X47229218Y-131497624D01*
X47223497Y-131502614D01*
X47223495Y-131502616D01*
X47107453Y-131603846D01*
X47101726Y-131608842D01*
X47093082Y-131621141D01*
X47015981Y-131730846D01*
X47004444Y-131747261D01*
X46942988Y-131904889D01*
X46936556Y-131953748D01*
X46925327Y-132039040D01*
X46920905Y-132072626D01*
X46939470Y-132240790D01*
X46942080Y-132247922D01*
X46991044Y-132381721D01*
X46997612Y-132399670D01*
X47065227Y-132500291D01*
X47080688Y-132523300D01*
X47102080Y-132590997D01*
X47083476Y-132659513D01*
X47065201Y-132682671D01*
X46404595Y-133343277D01*
X46342283Y-133377303D01*
X46271468Y-133372238D01*
X46214632Y-133329691D01*
X46189821Y-133263171D01*
X46189500Y-133254182D01*
X46189500Y-132082842D01*
X46188480Y-132075906D01*
X46179888Y-132017541D01*
X46179887Y-132017539D01*
X46178462Y-132007856D01*
X46174147Y-131999067D01*
X46127077Y-131903197D01*
X46127076Y-131903196D01*
X46122487Y-131893849D01*
X46047543Y-131819036D01*
X46039972Y-131811478D01*
X46032601Y-131804120D01*
X46022651Y-131799256D01*
X45947287Y-131762418D01*
X45918497Y-131748345D01*
X45885716Y-131743563D01*
X45848684Y-131738160D01*
X45848680Y-131738160D01*
X45844158Y-131737500D01*
X44071842Y-131737500D01*
X44067294Y-131738170D01*
X44067287Y-131738170D01*
X44006541Y-131747112D01*
X44006539Y-131747113D01*
X43996856Y-131748538D01*
X43988068Y-131752853D01*
X43988067Y-131752853D01*
X43892197Y-131799923D01*
X43892196Y-131799924D01*
X43882849Y-131804513D01*
X43875492Y-131811883D01*
X43808247Y-131879246D01*
X43793120Y-131894399D01*
X43737345Y-132008503D01*
X43735933Y-132018183D01*
X43727165Y-132078287D01*
X43726500Y-132082842D01*
X43726500Y-132293701D01*
X43706498Y-132361822D01*
X43652842Y-132408315D01*
X43582568Y-132418419D01*
X43517988Y-132388925D01*
X43491381Y-132356701D01*
X43490908Y-132355882D01*
X43488584Y-132350898D01*
X43384959Y-132202906D01*
X43368146Y-132178894D01*
X43368144Y-132178891D01*
X43364987Y-132174383D01*
X43212617Y-132022013D01*
X43208109Y-132018856D01*
X43208106Y-132018854D01*
X43040611Y-131901573D01*
X43040609Y-131901572D01*
X43036102Y-131898416D01*
X43031120Y-131896093D01*
X43031115Y-131896090D01*
X42845789Y-131809671D01*
X42845787Y-131809670D01*
X42840807Y-131807348D01*
X42835499Y-131805926D01*
X42835497Y-131805925D01*
X42637980Y-131753001D01*
X42637978Y-131753001D01*
X42632665Y-131751577D01*
X42418000Y-131732796D01*
X42203335Y-131751577D01*
X42198022Y-131753001D01*
X42198020Y-131753001D01*
X42000503Y-131805925D01*
X42000501Y-131805926D01*
X41995193Y-131807348D01*
X41990213Y-131809670D01*
X41990211Y-131809671D01*
X41804885Y-131896090D01*
X41804880Y-131896093D01*
X41799898Y-131898416D01*
X41795391Y-131901572D01*
X41795389Y-131901573D01*
X41627894Y-132018854D01*
X41627891Y-132018856D01*
X41623383Y-132022013D01*
X41471013Y-132174383D01*
X41467856Y-132178891D01*
X41467854Y-132178894D01*
X41362179Y-132329814D01*
X41347416Y-132350898D01*
X41345093Y-132355879D01*
X41345087Y-132355890D01*
X41332491Y-132382903D01*
X41285574Y-132436188D01*
X41217296Y-132455648D01*
X41149337Y-132435106D01*
X41102747Y-132379894D01*
X41080972Y-132329814D01*
X41076105Y-132320739D01*
X40960426Y-132141926D01*
X40954136Y-132133757D01*
X40810806Y-131976240D01*
X40803273Y-131969215D01*
X40636139Y-131837222D01*
X40627552Y-131831517D01*
X40441117Y-131728599D01*
X40431705Y-131724369D01*
X40230959Y-131653280D01*
X40220988Y-131650646D01*
X40149837Y-131637972D01*
X40136540Y-131639432D01*
X40132000Y-131653989D01*
X40132000Y-133097000D01*
X40111998Y-133165121D01*
X40058342Y-133211614D01*
X40006000Y-133223000D01*
X39750000Y-133223000D01*
X39681879Y-133202998D01*
X39635386Y-133149342D01*
X39624000Y-133097000D01*
X39624000Y-131652102D01*
X39620082Y-131638758D01*
X39605806Y-131636771D01*
X39567324Y-131642660D01*
X39557288Y-131645051D01*
X39354868Y-131711212D01*
X39345359Y-131715209D01*
X39156463Y-131813542D01*
X39147738Y-131819036D01*
X38977433Y-131946905D01*
X38969726Y-131953748D01*
X38822590Y-132107717D01*
X38816104Y-132115727D01*
X38696098Y-132291649D01*
X38690996Y-132300629D01*
X38652445Y-132383680D01*
X38605621Y-132437047D01*
X38537378Y-132456627D01*
X38469382Y-132436203D01*
X38423963Y-132383878D01*
X38410912Y-132355889D01*
X38410909Y-132355883D01*
X38408584Y-132350898D01*
X38393821Y-132329814D01*
X38288146Y-132178894D01*
X38288144Y-132178891D01*
X38284987Y-132174383D01*
X38132617Y-132022013D01*
X38128109Y-132018856D01*
X38128106Y-132018854D01*
X37960611Y-131901573D01*
X37960609Y-131901572D01*
X37956102Y-131898416D01*
X37951120Y-131896093D01*
X37951115Y-131896090D01*
X37765789Y-131809671D01*
X37765787Y-131809670D01*
X37760807Y-131807348D01*
X37755499Y-131805926D01*
X37755497Y-131805925D01*
X37557980Y-131753001D01*
X37557978Y-131753001D01*
X37552665Y-131751577D01*
X37338000Y-131732796D01*
X37123335Y-131751577D01*
X37118022Y-131753001D01*
X37118020Y-131753001D01*
X36920503Y-131805925D01*
X36920501Y-131805926D01*
X36915193Y-131807348D01*
X36910213Y-131809670D01*
X36910211Y-131809671D01*
X36724885Y-131896090D01*
X36724880Y-131896093D01*
X36719898Y-131898416D01*
X36715391Y-131901572D01*
X36715389Y-131901573D01*
X36547894Y-132018854D01*
X36547891Y-132018856D01*
X36543383Y-132022013D01*
X36391013Y-132174383D01*
X36387856Y-132178891D01*
X36387854Y-132178894D01*
X36282179Y-132329814D01*
X36267416Y-132350898D01*
X36265093Y-132355880D01*
X36265090Y-132355885D01*
X36186502Y-132524418D01*
X36176348Y-132546193D01*
X36174926Y-132551501D01*
X36174925Y-132551503D01*
X36122584Y-132746846D01*
X36120577Y-132754335D01*
X36101796Y-132969000D01*
X36120577Y-133183665D01*
X36122001Y-133188978D01*
X36122001Y-133188980D01*
X36172647Y-133377993D01*
X36176348Y-133391807D01*
X36178670Y-133396787D01*
X36178671Y-133396789D01*
X36265090Y-133582115D01*
X36265093Y-133582120D01*
X36267416Y-133587102D01*
X36270570Y-133591606D01*
X36270573Y-133591611D01*
X36358969Y-133717853D01*
X36391013Y-133763617D01*
X36543383Y-133915987D01*
X36547895Y-133919146D01*
X36547901Y-133919151D01*
X36549134Y-133920015D01*
X36549549Y-133920535D01*
X36552107Y-133922681D01*
X36551676Y-133923195D01*
X36593458Y-133975476D01*
X36600761Y-134046096D01*
X36565950Y-134112317D01*
X35483794Y-135194473D01*
X35421482Y-135228499D01*
X35350667Y-135223434D01*
X35290860Y-135176746D01*
X35199179Y-135043348D01*
X35193508Y-135038295D01*
X35078531Y-134935854D01*
X35078528Y-134935852D01*
X35072859Y-134930801D01*
X34987286Y-134885492D01*
X34923339Y-134851634D01*
X34923873Y-134850626D01*
X34888180Y-134827447D01*
X32676405Y-132615672D01*
X32642379Y-132553360D01*
X32639500Y-132526577D01*
X32639500Y-132524667D01*
X32648592Y-132477673D01*
X32684141Y-132389243D01*
X32707980Y-132221746D01*
X32708134Y-132207000D01*
X32706331Y-132192095D01*
X32693264Y-132084121D01*
X32687809Y-132039040D01*
X32628006Y-131880778D01*
X32546660Y-131762418D01*
X32536481Y-131747607D01*
X32536479Y-131747605D01*
X32532179Y-131741348D01*
X32526508Y-131736295D01*
X32411531Y-131633854D01*
X32411528Y-131633852D01*
X32405859Y-131628801D01*
X32256339Y-131549634D01*
X32245964Y-131547028D01*
X32099622Y-131510269D01*
X32099618Y-131510269D01*
X32092251Y-131508418D01*
X32084652Y-131508378D01*
X32084650Y-131508378D01*
X32014308Y-131508010D01*
X31923069Y-131507532D01*
X31915688Y-131509304D01*
X31765938Y-131545256D01*
X31765935Y-131545257D01*
X31758559Y-131547028D01*
X31608218Y-131624624D01*
X31602497Y-131629614D01*
X31602495Y-131629616D01*
X31574556Y-131653989D01*
X31480726Y-131735842D01*
X31471939Y-131748345D01*
X31422257Y-131819036D01*
X31383444Y-131874261D01*
X31380682Y-131881344D01*
X31380682Y-131881345D01*
X31374026Y-131898416D01*
X31321988Y-132031889D01*
X31320997Y-132039418D01*
X31310951Y-132115727D01*
X31299905Y-132199626D01*
X27178000Y-132199626D01*
X27178000Y-127897001D01*
X27198002Y-127828880D01*
X27251658Y-127782387D01*
X27290830Y-127771691D01*
X27409675Y-127759200D01*
X27479513Y-127771972D01*
X27531360Y-127820474D01*
X27542145Y-127848175D01*
X27543161Y-127847845D01*
X27545203Y-127854129D01*
X27546575Y-127860585D01*
X27549258Y-127866611D01*
X27549260Y-127866616D01*
X27562789Y-127897001D01*
X27622627Y-128031400D01*
X27732531Y-128182670D01*
X27871485Y-128307785D01*
X28033415Y-128401275D01*
X28039701Y-128403317D01*
X28039700Y-128403317D01*
X28204965Y-128457015D01*
X28204966Y-128457015D01*
X28211244Y-128459055D01*
X28217807Y-128459745D01*
X28217808Y-128459745D01*
X28240397Y-128462119D01*
X28350580Y-128473700D01*
X29459820Y-128473700D01*
X29570003Y-128462119D01*
X29592592Y-128459745D01*
X29592593Y-128459745D01*
X29599156Y-128459055D01*
X29605434Y-128457015D01*
X29605435Y-128457015D01*
X29770700Y-128403317D01*
X29770699Y-128403317D01*
X29776985Y-128401275D01*
X29938915Y-128307785D01*
X30077869Y-128182670D01*
X30187773Y-128031400D01*
X30247612Y-127897001D01*
X30261142Y-127866611D01*
X30263825Y-127860585D01*
X30265197Y-127854132D01*
X30267239Y-127847846D01*
X30269551Y-127848597D01*
X30298047Y-127795829D01*
X30360201Y-127761515D01*
X30400726Y-127759200D01*
X30549635Y-127774851D01*
X30556200Y-127775541D01*
X30562765Y-127774851D01*
X30735592Y-127756686D01*
X30735593Y-127756686D01*
X30742156Y-127755996D01*
X30820909Y-127730408D01*
X30913701Y-127700258D01*
X30913700Y-127700258D01*
X30919986Y-127698216D01*
X31081915Y-127604726D01*
X31220869Y-127479611D01*
X31303220Y-127366265D01*
X31304867Y-127363412D01*
X31304873Y-127363403D01*
X31706924Y-126667029D01*
X32841700Y-126667029D01*
X32882796Y-126860369D01*
X32963191Y-127040939D01*
X33079372Y-127200849D01*
X33226261Y-127333109D01*
X33231977Y-127336409D01*
X33231981Y-127336412D01*
X33391716Y-127428634D01*
X33397439Y-127431938D01*
X33403725Y-127433980D01*
X33403724Y-127433980D01*
X33579145Y-127490978D01*
X33579147Y-127490978D01*
X33585424Y-127493018D01*
X33591987Y-127493708D01*
X33591988Y-127493708D01*
X33617451Y-127496384D01*
X33732725Y-127508500D01*
X33831275Y-127508500D01*
X33946549Y-127496384D01*
X33972012Y-127493708D01*
X33972013Y-127493708D01*
X33978576Y-127493018D01*
X33984853Y-127490978D01*
X33984855Y-127490978D01*
X34160276Y-127433980D01*
X34160275Y-127433980D01*
X34166561Y-127431938D01*
X34172284Y-127428634D01*
X34332019Y-127336412D01*
X34332023Y-127336409D01*
X34337739Y-127333109D01*
X34484628Y-127200849D01*
X34600809Y-127040940D01*
X34681204Y-126860369D01*
X34722300Y-126667029D01*
X35381700Y-126667029D01*
X35422796Y-126860369D01*
X35503191Y-127040939D01*
X35619372Y-127200849D01*
X35766261Y-127333109D01*
X35771977Y-127336409D01*
X35771981Y-127336412D01*
X35931716Y-127428634D01*
X35937439Y-127431938D01*
X35943725Y-127433980D01*
X35943724Y-127433980D01*
X36119145Y-127490978D01*
X36119147Y-127490978D01*
X36125424Y-127493018D01*
X36131987Y-127493708D01*
X36131988Y-127493708D01*
X36157451Y-127496384D01*
X36272725Y-127508500D01*
X36371275Y-127508500D01*
X36486549Y-127496384D01*
X36512012Y-127493708D01*
X36512013Y-127493708D01*
X36518576Y-127493018D01*
X36524853Y-127490978D01*
X36524855Y-127490978D01*
X36700276Y-127433980D01*
X36700275Y-127433980D01*
X36706561Y-127431938D01*
X36712284Y-127428634D01*
X36872019Y-127336412D01*
X36872023Y-127336409D01*
X36877739Y-127333109D01*
X37024628Y-127200849D01*
X37140809Y-127040940D01*
X37221204Y-126860369D01*
X37262300Y-126667029D01*
X37921700Y-126667029D01*
X37962796Y-126860369D01*
X38043191Y-127040939D01*
X38159372Y-127200849D01*
X38306261Y-127333109D01*
X38311977Y-127336409D01*
X38311981Y-127336412D01*
X38471716Y-127428634D01*
X38477439Y-127431938D01*
X38483725Y-127433980D01*
X38483724Y-127433980D01*
X38659145Y-127490978D01*
X38659147Y-127490978D01*
X38665424Y-127493018D01*
X38671987Y-127493708D01*
X38671988Y-127493708D01*
X38697451Y-127496384D01*
X38812725Y-127508500D01*
X38911275Y-127508500D01*
X39026549Y-127496384D01*
X39052012Y-127493708D01*
X39052013Y-127493708D01*
X39058576Y-127493018D01*
X39064853Y-127490978D01*
X39064855Y-127490978D01*
X39240276Y-127433980D01*
X39240275Y-127433980D01*
X39246561Y-127431938D01*
X39252284Y-127428634D01*
X39412019Y-127336412D01*
X39412023Y-127336409D01*
X39417739Y-127333109D01*
X39564628Y-127200849D01*
X39680809Y-127040940D01*
X39761204Y-126860369D01*
X39802300Y-126667029D01*
X40461700Y-126667029D01*
X40502796Y-126860369D01*
X40583191Y-127040939D01*
X40699372Y-127200849D01*
X40846261Y-127333109D01*
X40851977Y-127336409D01*
X40851981Y-127336412D01*
X41011716Y-127428634D01*
X41017439Y-127431938D01*
X41023725Y-127433980D01*
X41023724Y-127433980D01*
X41199145Y-127490978D01*
X41199147Y-127490978D01*
X41205424Y-127493018D01*
X41211987Y-127493708D01*
X41211988Y-127493708D01*
X41237451Y-127496384D01*
X41352725Y-127508500D01*
X41451275Y-127508500D01*
X41566549Y-127496384D01*
X41592012Y-127493708D01*
X41592013Y-127493708D01*
X41598576Y-127493018D01*
X41604853Y-127490978D01*
X41604855Y-127490978D01*
X41780276Y-127433980D01*
X41780275Y-127433980D01*
X41786561Y-127431938D01*
X41792284Y-127428634D01*
X41952019Y-127336412D01*
X41952023Y-127336409D01*
X41957739Y-127333109D01*
X42104628Y-127200849D01*
X42220809Y-127040940D01*
X42301204Y-126860369D01*
X42342300Y-126667029D01*
X43001700Y-126667029D01*
X43042796Y-126860369D01*
X43123191Y-127040939D01*
X43239372Y-127200849D01*
X43386261Y-127333109D01*
X43391977Y-127336409D01*
X43391981Y-127336412D01*
X43551716Y-127428634D01*
X43557439Y-127431938D01*
X43563725Y-127433980D01*
X43563724Y-127433980D01*
X43739145Y-127490978D01*
X43739147Y-127490978D01*
X43745424Y-127493018D01*
X43751987Y-127493708D01*
X43751988Y-127493708D01*
X43777451Y-127496384D01*
X43892725Y-127508500D01*
X43991275Y-127508500D01*
X44106549Y-127496384D01*
X44132012Y-127493708D01*
X44132013Y-127493708D01*
X44138576Y-127493018D01*
X44144853Y-127490978D01*
X44144855Y-127490978D01*
X44320276Y-127433980D01*
X44320275Y-127433980D01*
X44326561Y-127431938D01*
X44332284Y-127428634D01*
X44492019Y-127336412D01*
X44492023Y-127336409D01*
X44497739Y-127333109D01*
X44644628Y-127200849D01*
X44760809Y-127040940D01*
X44841204Y-126860369D01*
X44882300Y-126667029D01*
X44882300Y-126469371D01*
X44868753Y-126405635D01*
X44861752Y-126372701D01*
X44841204Y-126276031D01*
X44760809Y-126095461D01*
X44644628Y-125935551D01*
X44621107Y-125914372D01*
X44502647Y-125807710D01*
X44502646Y-125807709D01*
X44497739Y-125803291D01*
X44492023Y-125799991D01*
X44492019Y-125799988D01*
X44332284Y-125707766D01*
X44332283Y-125707765D01*
X44326561Y-125704462D01*
X44247881Y-125678897D01*
X44144855Y-125645422D01*
X44144853Y-125645422D01*
X44138576Y-125643382D01*
X44132013Y-125642692D01*
X44132012Y-125642692D01*
X44106549Y-125640016D01*
X43991275Y-125627900D01*
X43892725Y-125627900D01*
X43777451Y-125640016D01*
X43751988Y-125642692D01*
X43751987Y-125642692D01*
X43745424Y-125643382D01*
X43739147Y-125645422D01*
X43739145Y-125645422D01*
X43636119Y-125678897D01*
X43557439Y-125704462D01*
X43551717Y-125707765D01*
X43551716Y-125707766D01*
X43391981Y-125799988D01*
X43391977Y-125799991D01*
X43386261Y-125803291D01*
X43381354Y-125807709D01*
X43381353Y-125807710D01*
X43262894Y-125914372D01*
X43239372Y-125935551D01*
X43123191Y-126095460D01*
X43042796Y-126276031D01*
X43022248Y-126372701D01*
X43015248Y-126405635D01*
X43001700Y-126469371D01*
X43001700Y-126667029D01*
X42342300Y-126667029D01*
X42342300Y-126469371D01*
X42328753Y-126405635D01*
X42321752Y-126372701D01*
X42301204Y-126276031D01*
X42220809Y-126095461D01*
X42104628Y-125935551D01*
X42081107Y-125914372D01*
X41962647Y-125807710D01*
X41962646Y-125807709D01*
X41957739Y-125803291D01*
X41952023Y-125799991D01*
X41952019Y-125799988D01*
X41792284Y-125707766D01*
X41792283Y-125707765D01*
X41786561Y-125704462D01*
X41707881Y-125678897D01*
X41604855Y-125645422D01*
X41604853Y-125645422D01*
X41598576Y-125643382D01*
X41592013Y-125642692D01*
X41592012Y-125642692D01*
X41566549Y-125640016D01*
X41451275Y-125627900D01*
X41352725Y-125627900D01*
X41237451Y-125640016D01*
X41211988Y-125642692D01*
X41211987Y-125642692D01*
X41205424Y-125643382D01*
X41199147Y-125645422D01*
X41199145Y-125645422D01*
X41096119Y-125678897D01*
X41017439Y-125704462D01*
X41011717Y-125707765D01*
X41011716Y-125707766D01*
X40851981Y-125799988D01*
X40851977Y-125799991D01*
X40846261Y-125803291D01*
X40841354Y-125807709D01*
X40841353Y-125807710D01*
X40722894Y-125914372D01*
X40699372Y-125935551D01*
X40583191Y-126095460D01*
X40502796Y-126276031D01*
X40482248Y-126372701D01*
X40475248Y-126405635D01*
X40461700Y-126469371D01*
X40461700Y-126667029D01*
X39802300Y-126667029D01*
X39802300Y-126469371D01*
X39788753Y-126405635D01*
X39781752Y-126372701D01*
X39761204Y-126276031D01*
X39680809Y-126095461D01*
X39564628Y-125935551D01*
X39541107Y-125914372D01*
X39422647Y-125807710D01*
X39422646Y-125807709D01*
X39417739Y-125803291D01*
X39412023Y-125799991D01*
X39412019Y-125799988D01*
X39252284Y-125707766D01*
X39252283Y-125707765D01*
X39246561Y-125704462D01*
X39167881Y-125678897D01*
X39064855Y-125645422D01*
X39064853Y-125645422D01*
X39058576Y-125643382D01*
X39052013Y-125642692D01*
X39052012Y-125642692D01*
X39026549Y-125640016D01*
X38911275Y-125627900D01*
X38812725Y-125627900D01*
X38697451Y-125640016D01*
X38671988Y-125642692D01*
X38671987Y-125642692D01*
X38665424Y-125643382D01*
X38659147Y-125645422D01*
X38659145Y-125645422D01*
X38556119Y-125678897D01*
X38477439Y-125704462D01*
X38471717Y-125707765D01*
X38471716Y-125707766D01*
X38311981Y-125799988D01*
X38311977Y-125799991D01*
X38306261Y-125803291D01*
X38301354Y-125807709D01*
X38301353Y-125807710D01*
X38182894Y-125914372D01*
X38159372Y-125935551D01*
X38043191Y-126095460D01*
X37962796Y-126276031D01*
X37942248Y-126372701D01*
X37935248Y-126405635D01*
X37921700Y-126469371D01*
X37921700Y-126667029D01*
X37262300Y-126667029D01*
X37262300Y-126469371D01*
X37248753Y-126405635D01*
X37241752Y-126372701D01*
X37221204Y-126276031D01*
X37140809Y-126095461D01*
X37024628Y-125935551D01*
X37001107Y-125914372D01*
X36882647Y-125807710D01*
X36882646Y-125807709D01*
X36877739Y-125803291D01*
X36872023Y-125799991D01*
X36872019Y-125799988D01*
X36712284Y-125707766D01*
X36712283Y-125707765D01*
X36706561Y-125704462D01*
X36627881Y-125678897D01*
X36524855Y-125645422D01*
X36524853Y-125645422D01*
X36518576Y-125643382D01*
X36512013Y-125642692D01*
X36512012Y-125642692D01*
X36486549Y-125640016D01*
X36371275Y-125627900D01*
X36272725Y-125627900D01*
X36157451Y-125640016D01*
X36131988Y-125642692D01*
X36131987Y-125642692D01*
X36125424Y-125643382D01*
X36119147Y-125645422D01*
X36119145Y-125645422D01*
X36016119Y-125678897D01*
X35937439Y-125704462D01*
X35931717Y-125707765D01*
X35931716Y-125707766D01*
X35771981Y-125799988D01*
X35771977Y-125799991D01*
X35766261Y-125803291D01*
X35761354Y-125807709D01*
X35761353Y-125807710D01*
X35642894Y-125914372D01*
X35619372Y-125935551D01*
X35503191Y-126095460D01*
X35422796Y-126276031D01*
X35402248Y-126372701D01*
X35395248Y-126405635D01*
X35381700Y-126469371D01*
X35381700Y-126667029D01*
X34722300Y-126667029D01*
X34722300Y-126469371D01*
X34708753Y-126405635D01*
X34701752Y-126372701D01*
X34681204Y-126276031D01*
X34600809Y-126095461D01*
X34484628Y-125935551D01*
X34461107Y-125914372D01*
X34342647Y-125807710D01*
X34342646Y-125807709D01*
X34337739Y-125803291D01*
X34332023Y-125799991D01*
X34332019Y-125799988D01*
X34172284Y-125707766D01*
X34172283Y-125707765D01*
X34166561Y-125704462D01*
X34087881Y-125678897D01*
X33984855Y-125645422D01*
X33984853Y-125645422D01*
X33978576Y-125643382D01*
X33972013Y-125642692D01*
X33972012Y-125642692D01*
X33946549Y-125640016D01*
X33831275Y-125627900D01*
X33732725Y-125627900D01*
X33617451Y-125640016D01*
X33591988Y-125642692D01*
X33591987Y-125642692D01*
X33585424Y-125643382D01*
X33579147Y-125645422D01*
X33579145Y-125645422D01*
X33476119Y-125678897D01*
X33397439Y-125704462D01*
X33391717Y-125707765D01*
X33391716Y-125707766D01*
X33231981Y-125799988D01*
X33231977Y-125799991D01*
X33226261Y-125803291D01*
X33221354Y-125807709D01*
X33221353Y-125807710D01*
X33102894Y-125914372D01*
X33079372Y-125935551D01*
X32963191Y-126095460D01*
X32882796Y-126276031D01*
X32862248Y-126372701D01*
X32855248Y-126405635D01*
X32841700Y-126469371D01*
X32841700Y-126667029D01*
X31706924Y-126667029D01*
X31856187Y-126408498D01*
X31857840Y-126405635D01*
X31914825Y-126277644D01*
X31934263Y-126186197D01*
X31952328Y-126101207D01*
X31952328Y-126101203D01*
X31953700Y-126094750D01*
X31953700Y-125907769D01*
X31914825Y-125724874D01*
X31879451Y-125645422D01*
X31841458Y-125560089D01*
X31841457Y-125560087D01*
X31838773Y-125554059D01*
X31728869Y-125402789D01*
X31716703Y-125391835D01*
X31679465Y-125331392D01*
X31680815Y-125260409D01*
X31716703Y-125204566D01*
X31728869Y-125193611D01*
X31838773Y-125042341D01*
X31871803Y-124968156D01*
X31912140Y-124877557D01*
X31912140Y-124877555D01*
X31914825Y-124871526D01*
X31953700Y-124688631D01*
X31953700Y-124501650D01*
X31952268Y-124494910D01*
X31934263Y-124410203D01*
X31914825Y-124318756D01*
X31857840Y-124190765D01*
X31821042Y-124127029D01*
X32841700Y-124127029D01*
X32843072Y-124133481D01*
X32843072Y-124133486D01*
X32855889Y-124193781D01*
X32882796Y-124320369D01*
X32963191Y-124500939D01*
X33079372Y-124660849D01*
X33084274Y-124665262D01*
X33084275Y-124665264D01*
X33110227Y-124688631D01*
X33226261Y-124793109D01*
X33231977Y-124796409D01*
X33231981Y-124796412D01*
X33350900Y-124865069D01*
X33397439Y-124891938D01*
X33403725Y-124893980D01*
X33403724Y-124893980D01*
X33579145Y-124950978D01*
X33579147Y-124950978D01*
X33585424Y-124953018D01*
X33591987Y-124953708D01*
X33591988Y-124953708D01*
X33617451Y-124956384D01*
X33732725Y-124968500D01*
X33831275Y-124968500D01*
X33946549Y-124956384D01*
X33972012Y-124953708D01*
X33972013Y-124953708D01*
X33978576Y-124953018D01*
X33984853Y-124950978D01*
X33984855Y-124950978D01*
X34160276Y-124893980D01*
X34160275Y-124893980D01*
X34166561Y-124891938D01*
X34213100Y-124865069D01*
X34332019Y-124796412D01*
X34332023Y-124796409D01*
X34337739Y-124793109D01*
X34453773Y-124688631D01*
X34479725Y-124665264D01*
X34479726Y-124665262D01*
X34484628Y-124660849D01*
X34600809Y-124500940D01*
X34681204Y-124320369D01*
X34708111Y-124193781D01*
X34720928Y-124133486D01*
X34720928Y-124133481D01*
X34722300Y-124127029D01*
X35381700Y-124127029D01*
X35383072Y-124133481D01*
X35383072Y-124133486D01*
X35395889Y-124193781D01*
X35422796Y-124320369D01*
X35503191Y-124500939D01*
X35619372Y-124660849D01*
X35624274Y-124665262D01*
X35624275Y-124665264D01*
X35650227Y-124688631D01*
X35766261Y-124793109D01*
X35771977Y-124796409D01*
X35771981Y-124796412D01*
X35890900Y-124865069D01*
X35937439Y-124891938D01*
X35943725Y-124893980D01*
X35943724Y-124893980D01*
X36119145Y-124950978D01*
X36119147Y-124950978D01*
X36125424Y-124953018D01*
X36131987Y-124953708D01*
X36131988Y-124953708D01*
X36157451Y-124956384D01*
X36272725Y-124968500D01*
X36371275Y-124968500D01*
X36486549Y-124956384D01*
X36512012Y-124953708D01*
X36512013Y-124953708D01*
X36518576Y-124953018D01*
X36524853Y-124950978D01*
X36524855Y-124950978D01*
X36700276Y-124893980D01*
X36700275Y-124893980D01*
X36706561Y-124891938D01*
X36753100Y-124865069D01*
X36872019Y-124796412D01*
X36872023Y-124796409D01*
X36877739Y-124793109D01*
X36993773Y-124688631D01*
X37019725Y-124665264D01*
X37019726Y-124665262D01*
X37024628Y-124660849D01*
X37140809Y-124500940D01*
X37221204Y-124320369D01*
X37248111Y-124193781D01*
X37260928Y-124133486D01*
X37260928Y-124133481D01*
X37262300Y-124127029D01*
X37921700Y-124127029D01*
X37923072Y-124133481D01*
X37923072Y-124133486D01*
X37935889Y-124193781D01*
X37962796Y-124320369D01*
X38043191Y-124500939D01*
X38159372Y-124660849D01*
X38164274Y-124665262D01*
X38164275Y-124665264D01*
X38190227Y-124688631D01*
X38306261Y-124793109D01*
X38311977Y-124796409D01*
X38311981Y-124796412D01*
X38430900Y-124865069D01*
X38477439Y-124891938D01*
X38483725Y-124893980D01*
X38483724Y-124893980D01*
X38659145Y-124950978D01*
X38659147Y-124950978D01*
X38665424Y-124953018D01*
X38671987Y-124953708D01*
X38671988Y-124953708D01*
X38697451Y-124956384D01*
X38812725Y-124968500D01*
X38911275Y-124968500D01*
X39026549Y-124956384D01*
X39052012Y-124953708D01*
X39052013Y-124953708D01*
X39058576Y-124953018D01*
X39064853Y-124950978D01*
X39064855Y-124950978D01*
X39240276Y-124893980D01*
X39240275Y-124893980D01*
X39246561Y-124891938D01*
X39293100Y-124865069D01*
X39412019Y-124796412D01*
X39412023Y-124796409D01*
X39417739Y-124793109D01*
X39533773Y-124688631D01*
X39559725Y-124665264D01*
X39559726Y-124665262D01*
X39564628Y-124660849D01*
X39680809Y-124500940D01*
X39761204Y-124320369D01*
X39788111Y-124193781D01*
X39800928Y-124133486D01*
X39800928Y-124133481D01*
X39802300Y-124127029D01*
X40461700Y-124127029D01*
X40463072Y-124133481D01*
X40463072Y-124133486D01*
X40475889Y-124193781D01*
X40502796Y-124320369D01*
X40583191Y-124500939D01*
X40699372Y-124660849D01*
X40704274Y-124665262D01*
X40704275Y-124665264D01*
X40730227Y-124688631D01*
X40846261Y-124793109D01*
X40851977Y-124796409D01*
X40851981Y-124796412D01*
X40970900Y-124865069D01*
X41017439Y-124891938D01*
X41023725Y-124893980D01*
X41023724Y-124893980D01*
X41199145Y-124950978D01*
X41199147Y-124950978D01*
X41205424Y-124953018D01*
X41211987Y-124953708D01*
X41211988Y-124953708D01*
X41237451Y-124956384D01*
X41352725Y-124968500D01*
X41451275Y-124968500D01*
X41566549Y-124956384D01*
X41592012Y-124953708D01*
X41592013Y-124953708D01*
X41598576Y-124953018D01*
X41604853Y-124950978D01*
X41604855Y-124950978D01*
X41780276Y-124893980D01*
X41780275Y-124893980D01*
X41786561Y-124891938D01*
X41833100Y-124865069D01*
X41952019Y-124796412D01*
X41952023Y-124796409D01*
X41957739Y-124793109D01*
X42073773Y-124688631D01*
X42099725Y-124665264D01*
X42099726Y-124665262D01*
X42104628Y-124660849D01*
X42220809Y-124500940D01*
X42301204Y-124320369D01*
X42328111Y-124193781D01*
X42340928Y-124133486D01*
X42340928Y-124133481D01*
X42342300Y-124127029D01*
X43001700Y-124127029D01*
X43003072Y-124133481D01*
X43003072Y-124133486D01*
X43015889Y-124193781D01*
X43042796Y-124320369D01*
X43123191Y-124500939D01*
X43239372Y-124660849D01*
X43244274Y-124665262D01*
X43244275Y-124665264D01*
X43270227Y-124688631D01*
X43386261Y-124793109D01*
X43391977Y-124796409D01*
X43391981Y-124796412D01*
X43510900Y-124865069D01*
X43557439Y-124891938D01*
X43563725Y-124893980D01*
X43563724Y-124893980D01*
X43739145Y-124950978D01*
X43739147Y-124950978D01*
X43745424Y-124953018D01*
X43751987Y-124953708D01*
X43751988Y-124953708D01*
X43777451Y-124956384D01*
X43892725Y-124968500D01*
X43991275Y-124968500D01*
X44106549Y-124956384D01*
X44132012Y-124953708D01*
X44132013Y-124953708D01*
X44138576Y-124953018D01*
X44144853Y-124950978D01*
X44144855Y-124950978D01*
X44320276Y-124893980D01*
X44320275Y-124893980D01*
X44326561Y-124891938D01*
X44373100Y-124865069D01*
X44492019Y-124796412D01*
X44492023Y-124796409D01*
X44497739Y-124793109D01*
X44613773Y-124688631D01*
X44639725Y-124665264D01*
X44639726Y-124665262D01*
X44644628Y-124660849D01*
X44760809Y-124500940D01*
X44841204Y-124320369D01*
X44868111Y-124193781D01*
X44880928Y-124133486D01*
X44880928Y-124133481D01*
X44882300Y-124127029D01*
X44882300Y-123929371D01*
X44841204Y-123736031D01*
X44760809Y-123555461D01*
X44644628Y-123395551D01*
X44497739Y-123263291D01*
X44492023Y-123259991D01*
X44492019Y-123259988D01*
X44332284Y-123167766D01*
X44332283Y-123167765D01*
X44326561Y-123164462D01*
X44247881Y-123138897D01*
X44144855Y-123105422D01*
X44144853Y-123105422D01*
X44138576Y-123103382D01*
X44132013Y-123102692D01*
X44132012Y-123102692D01*
X44106549Y-123100016D01*
X43991275Y-123087900D01*
X43892725Y-123087900D01*
X43777451Y-123100016D01*
X43751988Y-123102692D01*
X43751987Y-123102692D01*
X43745424Y-123103382D01*
X43739147Y-123105422D01*
X43739145Y-123105422D01*
X43636119Y-123138897D01*
X43557439Y-123164462D01*
X43551717Y-123167765D01*
X43551716Y-123167766D01*
X43391981Y-123259988D01*
X43391977Y-123259991D01*
X43386261Y-123263291D01*
X43239372Y-123395551D01*
X43123191Y-123555460D01*
X43042796Y-123736031D01*
X43001700Y-123929371D01*
X43001700Y-124127029D01*
X42342300Y-124127029D01*
X42342300Y-123929371D01*
X42301204Y-123736031D01*
X42220809Y-123555461D01*
X42104628Y-123395551D01*
X41957739Y-123263291D01*
X41952023Y-123259991D01*
X41952019Y-123259988D01*
X41792284Y-123167766D01*
X41792283Y-123167765D01*
X41786561Y-123164462D01*
X41707881Y-123138897D01*
X41604855Y-123105422D01*
X41604853Y-123105422D01*
X41598576Y-123103382D01*
X41592013Y-123102692D01*
X41592012Y-123102692D01*
X41566549Y-123100016D01*
X41451275Y-123087900D01*
X41352725Y-123087900D01*
X41237451Y-123100016D01*
X41211988Y-123102692D01*
X41211987Y-123102692D01*
X41205424Y-123103382D01*
X41199147Y-123105422D01*
X41199145Y-123105422D01*
X41096119Y-123138897D01*
X41017439Y-123164462D01*
X41011717Y-123167765D01*
X41011716Y-123167766D01*
X40851981Y-123259988D01*
X40851977Y-123259991D01*
X40846261Y-123263291D01*
X40699372Y-123395551D01*
X40583191Y-123555460D01*
X40502796Y-123736031D01*
X40461700Y-123929371D01*
X40461700Y-124127029D01*
X39802300Y-124127029D01*
X39802300Y-123929371D01*
X39761204Y-123736031D01*
X39680809Y-123555461D01*
X39564628Y-123395551D01*
X39417739Y-123263291D01*
X39412023Y-123259991D01*
X39412019Y-123259988D01*
X39252284Y-123167766D01*
X39252283Y-123167765D01*
X39246561Y-123164462D01*
X39167881Y-123138897D01*
X39064855Y-123105422D01*
X39064853Y-123105422D01*
X39058576Y-123103382D01*
X39052013Y-123102692D01*
X39052012Y-123102692D01*
X39026549Y-123100016D01*
X38911275Y-123087900D01*
X38812725Y-123087900D01*
X38697451Y-123100016D01*
X38671988Y-123102692D01*
X38671987Y-123102692D01*
X38665424Y-123103382D01*
X38659147Y-123105422D01*
X38659145Y-123105422D01*
X38556119Y-123138897D01*
X38477439Y-123164462D01*
X38471717Y-123167765D01*
X38471716Y-123167766D01*
X38311981Y-123259988D01*
X38311977Y-123259991D01*
X38306261Y-123263291D01*
X38159372Y-123395551D01*
X38043191Y-123555460D01*
X37962796Y-123736031D01*
X37921700Y-123929371D01*
X37921700Y-124127029D01*
X37262300Y-124127029D01*
X37262300Y-123929371D01*
X37221204Y-123736031D01*
X37140809Y-123555461D01*
X37024628Y-123395551D01*
X36877739Y-123263291D01*
X36872023Y-123259991D01*
X36872019Y-123259988D01*
X36712284Y-123167766D01*
X36712283Y-123167765D01*
X36706561Y-123164462D01*
X36627881Y-123138897D01*
X36524855Y-123105422D01*
X36524853Y-123105422D01*
X36518576Y-123103382D01*
X36512013Y-123102692D01*
X36512012Y-123102692D01*
X36486549Y-123100016D01*
X36371275Y-123087900D01*
X36272725Y-123087900D01*
X36157451Y-123100016D01*
X36131988Y-123102692D01*
X36131987Y-123102692D01*
X36125424Y-123103382D01*
X36119147Y-123105422D01*
X36119145Y-123105422D01*
X36016119Y-123138897D01*
X35937439Y-123164462D01*
X35931717Y-123167765D01*
X35931716Y-123167766D01*
X35771981Y-123259988D01*
X35771977Y-123259991D01*
X35766261Y-123263291D01*
X35619372Y-123395551D01*
X35503191Y-123555460D01*
X35422796Y-123736031D01*
X35381700Y-123929371D01*
X35381700Y-124127029D01*
X34722300Y-124127029D01*
X34722300Y-123929371D01*
X34681204Y-123736031D01*
X34600809Y-123555461D01*
X34484628Y-123395551D01*
X34337739Y-123263291D01*
X34332023Y-123259991D01*
X34332019Y-123259988D01*
X34172284Y-123167766D01*
X34172283Y-123167765D01*
X34166561Y-123164462D01*
X34087881Y-123138897D01*
X33984855Y-123105422D01*
X33984853Y-123105422D01*
X33978576Y-123103382D01*
X33972013Y-123102692D01*
X33972012Y-123102692D01*
X33946549Y-123100016D01*
X33831275Y-123087900D01*
X33732725Y-123087900D01*
X33617451Y-123100016D01*
X33591988Y-123102692D01*
X33591987Y-123102692D01*
X33585424Y-123103382D01*
X33579147Y-123105422D01*
X33579145Y-123105422D01*
X33476119Y-123138897D01*
X33397439Y-123164462D01*
X33391717Y-123167765D01*
X33391716Y-123167766D01*
X33231981Y-123259988D01*
X33231977Y-123259991D01*
X33226261Y-123263291D01*
X33079372Y-123395551D01*
X32963191Y-123555460D01*
X32882796Y-123736031D01*
X32841700Y-123929371D01*
X32841700Y-124127029D01*
X31821042Y-124127029D01*
X31591817Y-123730000D01*
X31304873Y-123232997D01*
X31304867Y-123232988D01*
X31303220Y-123230135D01*
X31220869Y-123116789D01*
X31081915Y-122991674D01*
X30919986Y-122898184D01*
X30831979Y-122869589D01*
X30748435Y-122842444D01*
X30748434Y-122842444D01*
X30742156Y-122840404D01*
X30735593Y-122839714D01*
X30735592Y-122839714D01*
X30562765Y-122821549D01*
X30556200Y-122820859D01*
X30549635Y-122821549D01*
X30400726Y-122837200D01*
X30330887Y-122824428D01*
X30279041Y-122775926D01*
X30268254Y-122748224D01*
X30267239Y-122748554D01*
X30265197Y-122742268D01*
X30263825Y-122735815D01*
X30187773Y-122565000D01*
X30141319Y-122501061D01*
X30117460Y-122434193D01*
X30133541Y-122365041D01*
X30184455Y-122315561D01*
X30243255Y-122301000D01*
X44493995Y-122301000D01*
X44562116Y-122321002D01*
G37*
G04 #@! TD.AperFunction*
G04 #@! TA.AperFunction,Conductor*
G36*
X45577584Y-135986222D02*
G01*
X45624077Y-136039878D01*
X45634181Y-136110152D01*
X45604687Y-136174732D01*
X45598558Y-136181315D01*
X45588618Y-136191255D01*
X45585235Y-136195769D01*
X45582341Y-136199630D01*
X45575967Y-136207459D01*
X45544622Y-136242951D01*
X45540808Y-136251074D01*
X45539174Y-136253562D01*
X45530186Y-136268523D01*
X45528770Y-136271109D01*
X45523384Y-136278295D01*
X45518039Y-136292553D01*
X45506759Y-136322642D01*
X45502832Y-136331960D01*
X45486851Y-136366000D01*
X45482719Y-136374800D01*
X45481338Y-136383669D01*
X45480472Y-136386502D01*
X45476042Y-136403389D01*
X45475408Y-136406274D01*
X45472255Y-136414684D01*
X45470288Y-136441155D01*
X45468746Y-136461906D01*
X45467592Y-136471952D01*
X45465500Y-136485386D01*
X45465500Y-136500906D01*
X45465154Y-136510243D01*
X45461461Y-136559941D01*
X45463335Y-136568720D01*
X45463898Y-136576978D01*
X45465500Y-136592161D01*
X45465500Y-138139063D01*
X45445498Y-138207184D01*
X45391842Y-138253677D01*
X45321568Y-138263781D01*
X45308813Y-138261269D01*
X45173251Y-138227218D01*
X45165652Y-138227178D01*
X45165650Y-138227178D01*
X45095308Y-138226810D01*
X45004069Y-138226332D01*
X44996688Y-138228104D01*
X44846938Y-138264056D01*
X44846935Y-138264057D01*
X44839559Y-138265828D01*
X44689218Y-138343424D01*
X44683497Y-138348414D01*
X44683495Y-138348416D01*
X44639693Y-138386627D01*
X44561726Y-138454642D01*
X44557356Y-138460860D01*
X44476557Y-138575826D01*
X44464444Y-138593061D01*
X44402988Y-138750689D01*
X44400689Y-138768151D01*
X44383829Y-138896219D01*
X44380905Y-138918426D01*
X44399470Y-139086590D01*
X44402080Y-139093722D01*
X44453071Y-139233060D01*
X44457612Y-139245470D01*
X44461848Y-139251773D01*
X44461848Y-139251774D01*
X44551974Y-139385896D01*
X44550250Y-139387054D01*
X44575252Y-139442085D01*
X44576500Y-139459773D01*
X44576500Y-140707183D01*
X44556498Y-140775304D01*
X44539595Y-140796278D01*
X43196539Y-142139334D01*
X43134227Y-142173360D01*
X43106785Y-142176237D01*
X43019621Y-142175781D01*
X42972069Y-142175532D01*
X42964688Y-142177304D01*
X42814938Y-142213256D01*
X42814935Y-142213257D01*
X42807559Y-142215028D01*
X42657218Y-142292624D01*
X42651497Y-142297614D01*
X42651495Y-142297616D01*
X42564055Y-142373895D01*
X42499573Y-142403603D01*
X42429266Y-142393733D01*
X42397409Y-142373023D01*
X42357012Y-142337031D01*
X42317531Y-142301854D01*
X42317528Y-142301852D01*
X42311859Y-142296801D01*
X42292818Y-142286719D01*
X42196278Y-142235604D01*
X42162339Y-142217634D01*
X42151964Y-142215028D01*
X42005622Y-142178269D01*
X42005618Y-142178269D01*
X41998251Y-142176418D01*
X41990652Y-142176378D01*
X41990650Y-142176378D01*
X41920308Y-142176010D01*
X41829069Y-142175532D01*
X41821688Y-142177304D01*
X41671938Y-142213256D01*
X41671935Y-142213257D01*
X41664559Y-142215028D01*
X41514218Y-142292624D01*
X41508497Y-142297614D01*
X41508495Y-142297616D01*
X41398314Y-142393733D01*
X41386726Y-142403842D01*
X41382356Y-142410060D01*
X41294602Y-142534922D01*
X41289444Y-142542261D01*
X41286682Y-142549344D01*
X41286682Y-142549345D01*
X41274567Y-142580418D01*
X41227988Y-142699889D01*
X41226997Y-142707418D01*
X41207348Y-142856667D01*
X41205905Y-142867626D01*
X41224470Y-143035790D01*
X41227080Y-143042922D01*
X41262468Y-143139623D01*
X41282612Y-143194670D01*
X41286848Y-143200973D01*
X41286848Y-143200974D01*
X41372740Y-143328796D01*
X41372743Y-143328799D01*
X41376974Y-143335096D01*
X41502108Y-143448959D01*
X41650791Y-143529687D01*
X41652761Y-143530204D01*
X41692720Y-143556452D01*
X42293755Y-144157488D01*
X42301325Y-144165807D01*
X42305447Y-144172303D01*
X42319684Y-144185672D01*
X42355262Y-144219082D01*
X42358104Y-144221837D01*
X42377906Y-144241639D01*
X42381031Y-144244063D01*
X42381040Y-144244071D01*
X42381126Y-144244137D01*
X42390151Y-144251845D01*
X42422494Y-144282217D01*
X42429438Y-144286035D01*
X42429440Y-144286036D01*
X42440329Y-144292022D01*
X42456847Y-144302873D01*
X42472933Y-144315350D01*
X42513666Y-144332976D01*
X42524314Y-144338193D01*
X42563197Y-144359569D01*
X42570872Y-144361540D01*
X42570878Y-144361542D01*
X42582911Y-144364631D01*
X42601613Y-144371034D01*
X42620292Y-144379117D01*
X42654128Y-144384476D01*
X42664127Y-144386060D01*
X42675740Y-144388465D01*
X42718718Y-144399500D01*
X42739065Y-144399500D01*
X42758777Y-144401051D01*
X42778879Y-144404235D01*
X42786771Y-144403489D01*
X42823056Y-144400059D01*
X42834914Y-144399500D01*
X50624778Y-144399500D01*
X50692899Y-144419502D01*
X50739392Y-144473158D01*
X50749496Y-144543432D01*
X50720002Y-144608012D01*
X50713889Y-144614579D01*
X49950870Y-145377597D01*
X49888560Y-145411621D01*
X49861777Y-145414500D01*
X49727936Y-145414500D01*
X49668977Y-145399854D01*
X49662056Y-145396190D01*
X49662053Y-145396189D01*
X49655339Y-145392634D01*
X49595470Y-145377596D01*
X49498622Y-145353269D01*
X49498618Y-145353269D01*
X49491251Y-145351418D01*
X49483652Y-145351378D01*
X49483650Y-145351378D01*
X49413308Y-145351010D01*
X49322069Y-145350532D01*
X49314688Y-145352304D01*
X49164938Y-145388256D01*
X49164935Y-145388257D01*
X49157559Y-145390028D01*
X49007218Y-145467624D01*
X49001497Y-145472614D01*
X49001495Y-145472616D01*
X48901717Y-145559658D01*
X48879726Y-145578842D01*
X48875356Y-145585060D01*
X48794998Y-145699399D01*
X48782444Y-145717261D01*
X48779682Y-145724344D01*
X48779682Y-145724345D01*
X48770536Y-145747803D01*
X48720988Y-145874889D01*
X48715870Y-145913767D01*
X48700060Y-146033854D01*
X48698905Y-146042626D01*
X48717470Y-146210790D01*
X48740726Y-146274340D01*
X48745353Y-146345184D01*
X48710943Y-146407285D01*
X48648421Y-146440924D01*
X48622400Y-146443640D01*
X47848980Y-146443640D01*
X47780859Y-146423638D01*
X47759885Y-146406735D01*
X47225553Y-145872403D01*
X47191527Y-145810091D01*
X47189561Y-145798445D01*
X47189490Y-145797855D01*
X47176527Y-145690735D01*
X47116724Y-145532473D01*
X47065582Y-145458060D01*
X47025199Y-145399302D01*
X47025197Y-145399300D01*
X47020897Y-145393043D01*
X47015226Y-145387990D01*
X46900249Y-145285549D01*
X46900246Y-145285547D01*
X46894577Y-145280496D01*
X46876063Y-145270693D01*
X46788589Y-145224378D01*
X46745057Y-145201329D01*
X46733512Y-145198429D01*
X46588340Y-145161964D01*
X46588336Y-145161964D01*
X46580969Y-145160113D01*
X46573370Y-145160073D01*
X46573368Y-145160073D01*
X46503026Y-145159705D01*
X46411787Y-145159227D01*
X46404406Y-145160999D01*
X46254656Y-145196951D01*
X46254653Y-145196952D01*
X46247277Y-145198723D01*
X46096936Y-145276319D01*
X46091215Y-145281309D01*
X46091213Y-145281311D01*
X46018433Y-145344801D01*
X45969444Y-145387537D01*
X45960788Y-145399854D01*
X45880315Y-145514356D01*
X45872162Y-145525956D01*
X45810706Y-145683584D01*
X45803830Y-145735815D01*
X45789792Y-145842444D01*
X45788623Y-145851321D01*
X45792056Y-145882418D01*
X45795065Y-145909674D01*
X45782659Y-145979578D01*
X45734429Y-146031678D01*
X45669826Y-146049500D01*
X44148020Y-146049500D01*
X44136786Y-146048970D01*
X44129281Y-146047292D01*
X44061571Y-146049420D01*
X44060988Y-146049438D01*
X44057031Y-146049500D01*
X44029017Y-146049500D01*
X44025092Y-146049996D01*
X44025091Y-146049996D01*
X44024996Y-146050008D01*
X44013151Y-146050941D01*
X43983330Y-146051878D01*
X43976718Y-146052086D01*
X43976717Y-146052086D01*
X43968795Y-146052335D01*
X43949252Y-146058013D01*
X43929888Y-146062023D01*
X43917560Y-146063580D01*
X43917558Y-146063580D01*
X43909701Y-146064573D01*
X43902337Y-146067489D01*
X43902332Y-146067490D01*
X43868444Y-146080907D01*
X43857215Y-146084752D01*
X43850022Y-146086842D01*
X43814607Y-146097131D01*
X43807780Y-146101169D01*
X43807777Y-146101170D01*
X43797094Y-146107488D01*
X43779336Y-146116188D01*
X43767785Y-146120761D01*
X43767779Y-146120765D01*
X43760412Y-146123681D01*
X43728274Y-146147031D01*
X43724512Y-146149764D01*
X43714590Y-146156281D01*
X43683232Y-146174826D01*
X43683228Y-146174829D01*
X43676402Y-146178866D01*
X43662018Y-146193250D01*
X43646984Y-146206091D01*
X43630513Y-146218058D01*
X43614898Y-146236934D01*
X43602223Y-146252255D01*
X43594233Y-146261035D01*
X41940046Y-147915221D01*
X41877734Y-147949247D01*
X41806918Y-147944182D01*
X41750083Y-147901635D01*
X41725141Y-147833051D01*
X41725091Y-147832138D01*
X41725134Y-147828000D01*
X41704809Y-147660040D01*
X41645006Y-147501778D01*
X41593268Y-147426498D01*
X41553481Y-147368607D01*
X41553479Y-147368605D01*
X41549179Y-147362348D01*
X41535528Y-147350185D01*
X41428531Y-147254854D01*
X41428528Y-147254852D01*
X41422859Y-147249801D01*
X41273339Y-147170634D01*
X41224976Y-147158486D01*
X41116621Y-147131269D01*
X41116619Y-147131269D01*
X41109251Y-147129418D01*
X41101653Y-147129378D01*
X41101651Y-147129378D01*
X41094140Y-147129339D01*
X41092993Y-147129333D01*
X41024978Y-147108975D01*
X41004557Y-147092430D01*
X39534405Y-145622278D01*
X39500379Y-145559966D01*
X39497500Y-145533183D01*
X39497500Y-142629817D01*
X39517502Y-142561696D01*
X39534405Y-142540722D01*
X40802704Y-141272424D01*
X42092308Y-139982820D01*
X42101845Y-139975200D01*
X42101531Y-139974831D01*
X42108364Y-139969016D01*
X42115958Y-139964224D01*
X42151585Y-139923883D01*
X42156931Y-139918197D01*
X42168383Y-139906745D01*
X42171076Y-139903152D01*
X42174660Y-139898370D01*
X42181045Y-139890527D01*
X42206436Y-139861777D01*
X42212378Y-139855049D01*
X42216194Y-139846922D01*
X42217807Y-139844466D01*
X42226829Y-139829453D01*
X42228237Y-139826882D01*
X42233616Y-139819704D01*
X42250240Y-139775357D01*
X42254159Y-139766057D01*
X42274281Y-139723200D01*
X42275662Y-139714331D01*
X42276526Y-139711505D01*
X42280960Y-139694601D01*
X42281592Y-139691725D01*
X42284745Y-139683316D01*
X42286991Y-139653092D01*
X42288254Y-139636094D01*
X42289408Y-139626048D01*
X42290751Y-139617425D01*
X42290751Y-139617422D01*
X42291500Y-139612614D01*
X42291500Y-139597094D01*
X42291846Y-139587757D01*
X42294874Y-139547007D01*
X42295539Y-139538059D01*
X42293665Y-139529280D01*
X42293102Y-139521022D01*
X42291500Y-139505839D01*
X42291500Y-138438818D01*
X42311502Y-138370697D01*
X42328405Y-138349722D01*
X42727311Y-137950817D01*
X42736845Y-137943200D01*
X42736531Y-137942831D01*
X42743364Y-137937016D01*
X42750958Y-137932224D01*
X42786585Y-137891883D01*
X42791931Y-137886197D01*
X42803383Y-137874745D01*
X42809660Y-137866370D01*
X42816045Y-137858527D01*
X42841436Y-137829777D01*
X42847378Y-137823049D01*
X42851194Y-137814922D01*
X42852807Y-137812466D01*
X42861823Y-137797463D01*
X42863234Y-137794885D01*
X42868616Y-137787704D01*
X42885239Y-137743363D01*
X42889164Y-137734048D01*
X42890811Y-137730540D01*
X42909281Y-137691200D01*
X42910663Y-137682325D01*
X42911527Y-137679498D01*
X42915955Y-137662621D01*
X42916591Y-137659728D01*
X42919745Y-137651315D01*
X42923256Y-137604075D01*
X42924407Y-137594056D01*
X42925752Y-137585420D01*
X42925752Y-137585416D01*
X42926500Y-137580614D01*
X42926500Y-137565090D01*
X42926847Y-137555752D01*
X42929875Y-137515010D01*
X42929875Y-137515009D01*
X42930540Y-137506059D01*
X42928666Y-137497282D01*
X42928104Y-137489031D01*
X42926500Y-137473834D01*
X42926500Y-137055840D01*
X42950178Y-136982314D01*
X43030603Y-136870391D01*
X43030606Y-136870385D01*
X43035037Y-136864219D01*
X43042780Y-136844959D01*
X43065750Y-136787817D01*
X43098141Y-136707243D01*
X43121980Y-136539746D01*
X43122134Y-136525000D01*
X43120349Y-136510243D01*
X43108882Y-136415491D01*
X43101809Y-136357040D01*
X43042006Y-136198778D01*
X43017820Y-136163587D01*
X42995720Y-136096118D01*
X43013606Y-136027411D01*
X43065797Y-135979280D01*
X43121660Y-135966220D01*
X45509463Y-135966220D01*
X45577584Y-135986222D01*
G37*
G04 #@! TD.AperFunction*
G04 #@! TA.AperFunction,Conductor*
G36*
X40700303Y-135529502D02*
G01*
X40746796Y-135583158D01*
X40756900Y-135653432D01*
X40727406Y-135718012D01*
X40721277Y-135724595D01*
X38882492Y-137563381D01*
X38820180Y-137597406D01*
X38749365Y-137592342D01*
X38689557Y-137545653D01*
X38632481Y-137462607D01*
X38632479Y-137462605D01*
X38628179Y-137456348D01*
X38622508Y-137451295D01*
X38507531Y-137348854D01*
X38507528Y-137348852D01*
X38501859Y-137343801D01*
X38485092Y-137334923D01*
X38408215Y-137294219D01*
X38352339Y-137264634D01*
X38336096Y-137260554D01*
X38195622Y-137225269D01*
X38195618Y-137225269D01*
X38188251Y-137223418D01*
X38180652Y-137223378D01*
X38180650Y-137223378D01*
X38110308Y-137223010D01*
X38019069Y-137222532D01*
X38011688Y-137224304D01*
X37861938Y-137260256D01*
X37861935Y-137260257D01*
X37854559Y-137262028D01*
X37704218Y-137339624D01*
X37698497Y-137344614D01*
X37698495Y-137344616D01*
X37597238Y-137432948D01*
X37576726Y-137450842D01*
X37562370Y-137471268D01*
X37485844Y-137580155D01*
X37479444Y-137589261D01*
X37417988Y-137746889D01*
X37403189Y-137859304D01*
X37402649Y-137863402D01*
X37373927Y-137928329D01*
X37366822Y-137936051D01*
X36139696Y-139163177D01*
X36130156Y-139170800D01*
X36130470Y-139171168D01*
X36123634Y-139176986D01*
X36116042Y-139181776D01*
X36110100Y-139188504D01*
X36080407Y-139222125D01*
X36075061Y-139227812D01*
X36063618Y-139239255D01*
X36058960Y-139245470D01*
X36057341Y-139247630D01*
X36050967Y-139255459D01*
X36019622Y-139290951D01*
X36015808Y-139299074D01*
X36014174Y-139301562D01*
X36005186Y-139316523D01*
X36003771Y-139319108D01*
X35998384Y-139326295D01*
X35995233Y-139334701D01*
X35981759Y-139370642D01*
X35977833Y-139379958D01*
X35957719Y-139422800D01*
X35956338Y-139431669D01*
X35955472Y-139434502D01*
X35951042Y-139451389D01*
X35950408Y-139454274D01*
X35947255Y-139462684D01*
X35946590Y-139471639D01*
X35943746Y-139509906D01*
X35942592Y-139519952D01*
X35940500Y-139533386D01*
X35940500Y-139548906D01*
X35940154Y-139558243D01*
X35936461Y-139607941D01*
X35938335Y-139616720D01*
X35938898Y-139624978D01*
X35940500Y-139640161D01*
X35940500Y-141199973D01*
X35917588Y-141272422D01*
X35828444Y-141399261D01*
X35766988Y-141556889D01*
X35765997Y-141564418D01*
X35746418Y-141713134D01*
X35744905Y-141724626D01*
X35763470Y-141892790D01*
X35766080Y-141899922D01*
X35814913Y-142033363D01*
X35821612Y-142051670D01*
X35825848Y-142057973D01*
X35825848Y-142057974D01*
X35911740Y-142185796D01*
X35911743Y-142185799D01*
X35915974Y-142192096D01*
X35931046Y-142205810D01*
X36035464Y-142300823D01*
X36041108Y-142305959D01*
X36096549Y-142336061D01*
X36181553Y-142382214D01*
X36189791Y-142386687D01*
X36353438Y-142429619D01*
X36441047Y-142430996D01*
X36515004Y-142432158D01*
X36515007Y-142432158D01*
X36522602Y-142432277D01*
X36589234Y-142417016D01*
X36680114Y-142396202D01*
X36680118Y-142396201D01*
X36687517Y-142394506D01*
X36838662Y-142318488D01*
X36844433Y-142313559D01*
X36844436Y-142313557D01*
X36961539Y-142213541D01*
X36961540Y-142213540D01*
X36967311Y-142208611D01*
X37066037Y-142071219D01*
X37070567Y-142059952D01*
X37102454Y-141980628D01*
X37129141Y-141914243D01*
X37152980Y-141746746D01*
X37153134Y-141732000D01*
X37151331Y-141717095D01*
X37136625Y-141595573D01*
X37132809Y-141564040D01*
X37073006Y-141405778D01*
X37068703Y-141399517D01*
X37065318Y-141393042D01*
X37051484Y-141323406D01*
X37077494Y-141257346D01*
X37135090Y-141215834D01*
X37190707Y-141210175D01*
X37191638Y-141210419D01*
X37269357Y-141211640D01*
X37353204Y-141212958D01*
X37353207Y-141212958D01*
X37360802Y-141213077D01*
X37418923Y-141199765D01*
X37518314Y-141177002D01*
X37518318Y-141177001D01*
X37525717Y-141175306D01*
X37676862Y-141099288D01*
X37682633Y-141094359D01*
X37682636Y-141094357D01*
X37799739Y-140994341D01*
X37799740Y-140994340D01*
X37805511Y-140989411D01*
X37904237Y-140852019D01*
X37967341Y-140695043D01*
X37991180Y-140527546D01*
X37991334Y-140512800D01*
X37971009Y-140344840D01*
X37911206Y-140186578D01*
X37883532Y-140146312D01*
X37861432Y-140078843D01*
X37879318Y-140010136D01*
X37898277Y-139985850D01*
X40451179Y-137432948D01*
X40513491Y-137398922D01*
X40584306Y-137403987D01*
X40641142Y-137446534D01*
X40665953Y-137513054D01*
X40660768Y-137558884D01*
X40660536Y-137559643D01*
X40656719Y-137567773D01*
X40655337Y-137576647D01*
X40654470Y-137579484D01*
X40650042Y-137596362D01*
X40649408Y-137599247D01*
X40646255Y-137607657D01*
X40644484Y-137631488D01*
X40642746Y-137654879D01*
X40641592Y-137664925D01*
X40640371Y-137672768D01*
X40639500Y-137678359D01*
X40639500Y-137693879D01*
X40639154Y-137703216D01*
X40635461Y-137752914D01*
X40637335Y-137761693D01*
X40637898Y-137769951D01*
X40639500Y-137785134D01*
X40639500Y-139056183D01*
X40619498Y-139124304D01*
X40602595Y-139145278D01*
X38044696Y-141703177D01*
X38035156Y-141710800D01*
X38035470Y-141711168D01*
X38028634Y-141716986D01*
X38021042Y-141721776D01*
X38015100Y-141728504D01*
X37985407Y-141762125D01*
X37980061Y-141767812D01*
X37968618Y-141779255D01*
X37964594Y-141784624D01*
X37962341Y-141787630D01*
X37955967Y-141795459D01*
X37924622Y-141830951D01*
X37920808Y-141839074D01*
X37919174Y-141841562D01*
X37910186Y-141856523D01*
X37908771Y-141859108D01*
X37903384Y-141866295D01*
X37893095Y-141893741D01*
X37886759Y-141910642D01*
X37882833Y-141919958D01*
X37862719Y-141962800D01*
X37861338Y-141971669D01*
X37860472Y-141974502D01*
X37856042Y-141991389D01*
X37855408Y-141994274D01*
X37852255Y-142002684D01*
X37851590Y-142011639D01*
X37848746Y-142049906D01*
X37847592Y-142059952D01*
X37845500Y-142073386D01*
X37845500Y-142088906D01*
X37845154Y-142098243D01*
X37841461Y-142147941D01*
X37843335Y-142156720D01*
X37843898Y-142164978D01*
X37845500Y-142180161D01*
X37845500Y-146025973D01*
X37822588Y-146098422D01*
X37785190Y-146151634D01*
X37729656Y-146195864D01*
X37659024Y-146203050D01*
X37593009Y-146168277D01*
X35948081Y-144523349D01*
X34240152Y-142815419D01*
X34206127Y-142753109D01*
X34213611Y-142676285D01*
X34223969Y-142652349D01*
X34229192Y-142641689D01*
X34246749Y-142609753D01*
X34246751Y-142609748D01*
X34250569Y-142602803D01*
X34252539Y-142595129D01*
X34252542Y-142595122D01*
X34255632Y-142583087D01*
X34262036Y-142564382D01*
X34266967Y-142552987D01*
X34270117Y-142545708D01*
X34277060Y-142501873D01*
X34279467Y-142490251D01*
X34280135Y-142487650D01*
X34290500Y-142447282D01*
X34290500Y-142426935D01*
X34292051Y-142407224D01*
X34293995Y-142394950D01*
X34295235Y-142387121D01*
X34291059Y-142342944D01*
X34290500Y-142331086D01*
X34290500Y-138526663D01*
X34310502Y-138458542D01*
X34364158Y-138412049D01*
X34434432Y-138401945D01*
X34476622Y-138415932D01*
X34538791Y-138449687D01*
X34702438Y-138492619D01*
X34790047Y-138493996D01*
X34864004Y-138495158D01*
X34864007Y-138495158D01*
X34871602Y-138495277D01*
X34929723Y-138481965D01*
X35029114Y-138459202D01*
X35029118Y-138459201D01*
X35036517Y-138457506D01*
X35187662Y-138381488D01*
X35193433Y-138376559D01*
X35193436Y-138376557D01*
X35310539Y-138276541D01*
X35310540Y-138276540D01*
X35316311Y-138271611D01*
X35415037Y-138134219D01*
X35434485Y-138085842D01*
X35439820Y-138072569D01*
X35478141Y-137977243D01*
X35495990Y-137851830D01*
X35525391Y-137787208D01*
X35531638Y-137780489D01*
X37765723Y-135546405D01*
X37828035Y-135512379D01*
X37854818Y-135509500D01*
X40632182Y-135509500D01*
X40700303Y-135529502D01*
G37*
G04 #@! TD.AperFunction*
G04 #@! TD*
M02*
