G04 #@! TF.GenerationSoftware,KiCad,Pcbnew,(6.0.0-rc1-387-g70841c6393)*
G04 #@! TF.CreationDate,2022-03-02T22:10:33+08:00*
G04 #@! TF.ProjectId,uw-rs485_hat,75772d72-7334-4383-955f-6861742e6b69,rev?*
G04 #@! TF.SameCoordinates,Original*
G04 #@! TF.FileFunction,Legend,Top*
G04 #@! TF.FilePolarity,Positive*
%FSLAX46Y46*%
G04 Gerber Fmt 4.6, Leading zero omitted, Abs format (unit mm)*
G04 Created by KiCad (PCBNEW (6.0.0-rc1-387-g70841c6393)) date 2022-03-02 22:10:33*
%MOMM*%
%LPD*%
G01*
G04 APERTURE LIST*
%ADD10C,0.254000*%
%ADD11C,0.101600*%
G04 APERTURE END LIST*
D10*
X69940714Y-143800285D02*
X70122142Y-143860761D01*
X70182619Y-143921238D01*
X70243095Y-144042190D01*
X70243095Y-144223619D01*
X70182619Y-144344571D01*
X70122142Y-144405047D01*
X70001190Y-144465523D01*
X69517380Y-144465523D01*
X69517380Y-143195523D01*
X69940714Y-143195523D01*
X70061666Y-143256000D01*
X70122142Y-143316476D01*
X70182619Y-143437428D01*
X70182619Y-143558380D01*
X70122142Y-143679333D01*
X70061666Y-143739809D01*
X69940714Y-143800285D01*
X69517380Y-143800285D01*
X67739380Y-135763000D02*
X67618428Y-135702523D01*
X67437000Y-135702523D01*
X67255571Y-135763000D01*
X67134619Y-135883952D01*
X67074142Y-136004904D01*
X67013666Y-136246809D01*
X67013666Y-136428238D01*
X67074142Y-136670142D01*
X67134619Y-136791095D01*
X67255571Y-136912047D01*
X67437000Y-136972523D01*
X67557952Y-136972523D01*
X67739380Y-136912047D01*
X67799857Y-136851571D01*
X67799857Y-136428238D01*
X67557952Y-136428238D01*
X68344142Y-136972523D02*
X68344142Y-135702523D01*
X69069857Y-136972523D01*
X69069857Y-135702523D01*
X69674619Y-136972523D02*
X69674619Y-135702523D01*
X69977000Y-135702523D01*
X70158428Y-135763000D01*
X70279380Y-135883952D01*
X70339857Y-136004904D01*
X70400333Y-136246809D01*
X70400333Y-136428238D01*
X70339857Y-136670142D01*
X70279380Y-136791095D01*
X70158428Y-136912047D01*
X69977000Y-136972523D01*
X69674619Y-136972523D01*
X67866380Y-133350000D02*
X67745428Y-133289523D01*
X67564000Y-133289523D01*
X67382571Y-133350000D01*
X67261619Y-133470952D01*
X67201142Y-133591904D01*
X67140666Y-133833809D01*
X67140666Y-134015238D01*
X67201142Y-134257142D01*
X67261619Y-134378095D01*
X67382571Y-134499047D01*
X67564000Y-134559523D01*
X67684952Y-134559523D01*
X67866380Y-134499047D01*
X67926857Y-134438571D01*
X67926857Y-134015238D01*
X67684952Y-134015238D01*
X68471142Y-134559523D02*
X68471142Y-133289523D01*
X69196857Y-134559523D01*
X69196857Y-133289523D01*
X69801619Y-134559523D02*
X69801619Y-133289523D01*
X70104000Y-133289523D01*
X70285428Y-133350000D01*
X70406380Y-133470952D01*
X70466857Y-133591904D01*
X70527333Y-133833809D01*
X70527333Y-134015238D01*
X70466857Y-134257142D01*
X70406380Y-134378095D01*
X70285428Y-134499047D01*
X70104000Y-134559523D01*
X69801619Y-134559523D01*
X69547619Y-147023666D02*
X70152380Y-147023666D01*
X69426666Y-147386523D02*
X69850000Y-146116523D01*
X70273333Y-147386523D01*
X69547619Y-141562666D02*
X70152380Y-141562666D01*
X69426666Y-141925523D02*
X69850000Y-140655523D01*
X70273333Y-141925523D01*
X69940714Y-138847285D02*
X70122142Y-138907761D01*
X70182619Y-138968238D01*
X70243095Y-139089190D01*
X70243095Y-139270619D01*
X70182619Y-139391571D01*
X70122142Y-139452047D01*
X70001190Y-139512523D01*
X69517380Y-139512523D01*
X69517380Y-138242523D01*
X69940714Y-138242523D01*
X70061666Y-138303000D01*
X70122142Y-138363476D01*
X70182619Y-138484428D01*
X70182619Y-138605380D01*
X70122142Y-138726333D01*
X70061666Y-138786809D01*
X69940714Y-138847285D01*
X69517380Y-138847285D01*
D11*
G04 #@! TO.C,MH1*
X31953200Y-125298200D02*
G75*
G03*
X31953200Y-125298200I-3048000J0D01*
G01*
G04 #@! TO.C,MH2*
X31953200Y-148298200D02*
G75*
G03*
X31953200Y-148298200I-3048000J0D01*
G01*
G04 #@! TD*
M02*
